# Created by Open3D 
# object name: cluster29
# number of vertices: 898
# number of triangles: 1525
v 0.48165 -4.0336 -0.99397
vn 0.931575 0.207252 -0.298688
v 0.48165 -4.0396 -0.99534
vn 0.989849 0.031638 -0.13856
v 0.47866 -4.0396 -1.0167
vn 0.989849 0.031638 -0.13856
v 0.4952 -4.0396 -0.97126
vn 0.944236 0.0181853 -0.328767
v 0.48406 -4.0396 -0.99397
vn 0.844564 0.33923 -0.414288
v 0.50197 -4.0623 -0.94855
vn 0.949184 -0.0223942 -0.313923
v 0.49319 -4.0623 -0.97126
vn 0.929555 -0.0823082 -0.359379
v 0.50138 -4.0396 -0.94855
vn 0.968403 0.0407161 -0.246043
v 0.50436 -4.0396 -0.93284
vn 0.940907 0.252092 -0.226148
v 0.50436 -4.0623 -0.94151
vn 0.964412 0.0781472 -0.25259
v 0.50436 -4.0384 -0.92585
vn 0.4757 0.863842 -0.165791
v 0.48165 -4.0264 -0.92585
vn 0.447167 0.881264 -0.153022
v 0.50905 -4.0623 -0.92585
vn 0.970297 0.115028 -0.212818
v 0.50562 -4.0396 -0.92585
vn 0.925455 0.318119 -0.205749
v 0.50436 -4.0339 -0.90314
vn 0.51923 0.838843 -0.163531
v 0.48165 -4.023 -0.90314
vn 0.411694 0.896118 -0.16577
v 0.50436 -4.0286 -0.88044
vn 0.539008 0.812742 -0.221182
v 0.48165 -4.0191 -0.88044
vn 0.380603 0.909841 -0.165319
v 0.51272 -4.0623 -0.90314
vn 0.995702 0.0785141 -0.0491164
v 0.51093 -4.0396 -0.90314
vn 0.978451 0.161619 -0.1285
v 0.51129 -4.0623 -0.88044
vn 0.995808 -0.0694672 -0.0595064
v 0.51456 -4.0396 -0.88044
vn 0.955333 0.266981 -0.12673
v 0.50436 -4.0189 -0.85773
vn 0.765382 0.584663 -0.268999
v 0.49909 -4.0169 -0.85773
vn 0.237888 0.816404 -0.526207
v 0.48165 -4.0169 -0.86957
vn 0.284488 0.9045 -0.317719
v 0.50436 -4.0169 -0.85501
vn 0.648052 0.500957 -0.573646
v 0.51643 -4.0396 -0.85773
vn 0.921275 0.287023 -0.262432
v 0.51905 -4.0396 -0.83503
vn 0.989393 -0.0897868 -0.114194
v 0.52111 -4.0169 -0.83503
vn 0.818283 0.338528 -0.464556
v 0.48165 -4.0131 -0.85773
vn 0.170693 0.783409 -0.597608
v 0.50436 -3.9955 -0.83503
vn 0.512247 0.580973 -0.632514
v 0.52605 -4.0169 -0.81232
vn 0.985299 0.0707481 -0.155504
v 0.52442 -3.9942 -0.81232
vn 0.903781 0.273735 -0.329011
v 0.50436 -3.9942 -0.83423
vn 0.712243 0.259754 -0.652103
v 0.50436 -3.9715 -0.82547
vn 0.709716 0.24442 -0.660728
v 0.51694 -3.9715 -0.81232
vn 0.92025 0.332786 -0.205897
v 0.52706 -4.0159 -0.78962
vn 0.992102 0.125434 0
v 0.52706 -4.0169 -0.79733
vn 0.994227 0.10519 -0.0211628
v 0.52425 -3.9942 -0.78962
vn 0.93932 0.268349 0.2137
v 0.52712 -4.0169 -0.78962
vn 0.998203 0.0599184 0
v 0.5172 -3.9715 -0.78962
vn 0.938848 0.319908 0.127372
v 0.50758 -3.9488 -0.81232
vn 0.924439 0.381182 -0.0105881
v 0.52706 -4.0169 -0.78709
vn 0.991799 0.0950524 0.0854444
v 0.52526 -4.0169 -0.76691
vn 0.893192 0.387014 0.228972
v 0.52657 -4.028 -0.78029
vn 0.996079 0.0839596 0.0278758
v 0.52706 -4.0236 -0.76691
vn 0.965479 0.259381 -0.0238919
v 0.52706 -4.0265 -0.74421
vn 0.836421 0.525449 0.155896
v 0.51862 -4.0169 -0.74421
vn 0.802045 0.549258 0.234605
v 0.51158 -3.9942 -0.76691
vn 0.823193 0.415935 0.38646
v 0.39573 -3.9942 -1.0394
vn -0.28607 0.34526 0.893845
v 0.39083 -4.0169 -1.0322
vn -0.337535 0.394168 0.854811
v 0.41354 -3.9942 -1.0337
vn -0.317291 0.450575 0.834451
v 0.41354 -4.0169 -1.0219
vn -0.42946 0.416527 0.801292
v 0.43624 -4.0093 -1.0167
vn -0.272999 0.592348 0.758021
v 0.43624 -3.9942 -1.0285
vn -0.215649 0.569117 0.793474
v 0.41975 -4.0169 -1.0167
vn -0.284418 0.542596 0.790377
v 0.41354 -3.9488 -1.0479
vn 0.0523406 0.126549 0.990578
v 0.46488 -4.0169 -1.0167
vn 0.829411 0.503496 -0.242012
v 0.32272 -4.0278 -0.78962
vn -0.520587 0.821953 0.231045
v 0.34542 -4.0169 -0.77725
vn -0.491186 0.808929 0.323065
v 0.33993 -4.0169 -0.78962
vn -0.520587 0.821953 0.231045
v 0.36813 -4.0274 -0.74421
vn -0.231133 0.820629 0.522634
v 0.36813 -4.0169 -0.75741
vn -0.25814 0.774624 0.57734
v 0.34542 -4.0344 -0.74421
vn -0.264936 0.839755 0.473941
v 0.35313 -4.0169 -0.76691
vn -0.368442 0.795758 0.480645
v 0.34542 -4.0211 -0.76691
vn -0.42537 0.780863 0.457508
v 0.36813 -4.0094 -0.76691
vn -0.302843 0.809815 0.502479
v 0.36813 -3.9974 -0.78962
vn -0.464427 0.806453 0.36598
v 0.34542 -4.0136 -0.78962
vn -0.567494 0.795551 0.212245
v 0.32272 -4.0382 -0.74421
vn -0.160506 0.958831 0.234267
v 0.32272 -4.0396 -0.73848
vn -0.123107 0.927211 0.353728
v 0.34542 -4.0396 -0.73264
vn -0.215465 0.881536 0.420082
v 0.36558 -4.0396 -0.7215
vn -0.242001 0.865817 0.437946
v 0.39083 -4.0216 -0.74421
vn -0.19885 0.778224 0.595673
v 0.39083 -4.0169 -0.75035
vn -0.191037 0.770775 0.607791
v 0.39083 -4.0038 -0.76691
vn -0.215168 0.814295 0.539098
v 0.39083 -3.9942 -0.78201
vn -0.272952 0.811849 0.516138
v 0.37644 -3.9942 -0.78962
vn -0.247954 0.837276 0.487327
v 0.48165 -4.0623 -1.0263
vn 0.409438 -0.143761 0.90094
v 0.50436 -4.0623 -1.0341
vn 0.245634 0.0411611 0.968488
v 0.52706 -4.0623 -1.0375
vn 0.153379 0.150815 0.976591
v 0.53767 -4.0623 -1.0394
vn 0.157991 0.14558 0.97665
v 0.54977 -4.0742 -1.0394
vn 0.149968 0.167419 0.974413
v 0.57247 -4.0623 -1.0452
vn 0.165833 0.16863 0.971629
v 0.41354 -3.9809 -1.0394
vn -0.203607 0.306568 0.929817
v 0.39083 -3.9715 -1.0451
vn -0.0907925 0.190407 0.977498
v 0.39083 -3.9488 -1.0482
vn -0.0131467 0.098628 0.995038
v 0.41354 -3.9715 -1.0426
vn -0.106587 0.226069 0.968262
v 0.48165 -4.0396 -1.0231
vn 0.508648 -0.00393696 0.860965
v 0.50436 -4.0396 -1.0375
vn 0.466273 0.138223 0.873775
v 0.51121 -4.0396 -1.0394
vn 0.187208 0.177992 0.96606
v 0.52706 -4.0529 -1.0394
vn 0.149767 0.185849 0.971097
v 0.50436 -4.0328 -1.0394
vn 0.258084 0.259993 0.930482
v 0.48165 -4.0088 -1.0394
vn 0.436427 0.421877 0.794702
v 0.48165 -4.0169 -1.0351
vn 0.436427 0.421877 0.794702
v 0.48948 -4.0169 -1.0394
vn 0.436427 0.421877 0.794702
v 0.45895 -3.9854 -1.0394
vn 0.419536 0.427638 0.800697
v 0.45895 -3.9942 -1.0347
vn 0.419536 0.427638 0.800697
v 0.46792 -3.9942 -1.0394
vn 0.419536 0.427638 0.800697
v 0.50655 -3.9488 -0.78962
vn 0.718522 0.33427 0.609909
v 0.50436 -3.9488 -0.78704
vn 0.718522 0.33427 0.609909
v 0.50436 -3.9439 -0.78962
vn 0.721635 0.322527 0.612552
v 0.54977 -4.0623 -1.0418
vn 0.162122 0.16587 0.97273
v 0.43624 -3.9724 -1.0394
vn 0.0640606 0.425686 0.902601
v 0.43624 -3.9715 -1.0398
vn 0.0695903 0.362329 0.929449
v 0.45895 -3.9715 -1.046
vn 0.218638 0.346757 0.912117
v 0.45895 -4.0129 -1.0167
vn 0.192103 0.653207 0.732405
v 0.43624 -3.9488 -1.0486
vn 0.0986722 0.2543 0.962079
v 0.50436 -4.0169 -1.0438
vn 0.197684 0.231938 0.952432
v 0.52706 -4.0396 -1.0425
vn 0.147895 0.209426 0.966575
v 0.54977 -4.0396 -1.0453
vn 0.110457 0.153309 0.981986
v 0.52706 -4.0169 -1.0472
vn 0.114001 0.183844 0.976322
v 0.54977 -4.0169 -1.0485
vn 0.0479755 0.130871 0.990238
v 0.48165 -3.9942 -1.0454
vn 0.238828 0.292893 0.925838
v 0.50436 -3.9942 -1.0488
vn 0.127778 0.200469 0.971331
v 0.57247 -4.0396 -1.047
vn 0.0525168 0.100665 0.993533
v 0.57247 -4.0169 -1.0491
vn -0.0036553 0.0913893 0.995809
v 0.59518 -4.0396 -1.0478
vn 0.0325499 0.0387199 0.99872
v 0.59518 -4.0169 -1.0485
vn -0.0227355 0.0388778 0.998985
v 0.59518 -4.0623 -1.0468
vn 0.0833267 0.0438534 0.995557
v 0.61788 -4.0623 -1.0487
vn 0.0439989 -0.00660821 0.99901
v 0.61788 -4.0396 -1.0486
vn 0.0096899 -0.00616859 0.999934
v 0.64059 -4.0396 -1.0486
vn 0.00549985 -0.0385168 0.999243
v 0.64059 -4.0623 -1.05
vn 0.0570409 -0.0614557 0.996479
v 0.61788 -4.0169 -1.048
vn -0.0198105 -0.0209212 0.999585
v 0.64059 -4.0169 -1.0472
vn -0.0351388 -0.0615192 0.997487
v 0.61788 -3.9942 -1.0487
vn -0.0570462 0.0672849 0.996102
v 0.27231 -4.0396 -0.2674
vn -0.851254 -0.095909 0.515914
v 0.27731 -4.0623 -0.26337
vn -0.81671 -0.105467 0.567328
v 0.27731 -4.0396 -0.25915
vn -0.817242 -0.0298582 0.575521
v 0.28764 -4.0396 -0.2447
vn -0.785033 0.103053 0.610821
v 0.29101 -4.0623 -0.2447
vn -0.778219 -0.111324 0.618047
v 0.29588 -4.0169 -0.2447
vn -0.791633 0.295565 0.534751
v 0.27731 -4.0243 -0.2674
vn -0.782609 0.289367 0.551172
v 0.3111 -3.9942 -0.2447
vn -0.722605 0.441759 0.531686
v 0.30001 -3.9942 -0.25671
vn -0.63943 0.492442 0.590449
v 0.30001 -4.0086 -0.2447
vn -0.660088 0.484397 0.574146
v 0.27731 -3.9812 -0.31281
vn -0.811741 0.583869 -0.0131881
v 0.27731 -3.9942 -0.3278
vn -0.752709 0.497368 -0.43134
v 0.26872 -3.9942 -0.31281
vn -0.833223 0.550568 -0.0511271
v 0.27731 -3.9907 -0.29011
vn -0.812958 0.537178 0.224811
v 0.28746 -3.9715 -0.29011
vn -0.760573 0.64609 0.0639954
v 0.28555 -3.9715 -0.31281
vn -0.760573 0.64609 0.0639954
v 0.32272 -3.9811 -0.2447
vn -0.647583 0.567733 0.508247
v 0.32272 -3.9715 -0.25331
vn -0.589147 0.505076 0.630716
v 0.31933 -3.9488 -0.2674
vn -0.478579 0.410357 0.776253
v 0.32272 -3.9488 -0.26531
vn -0.478579 0.410357 0.776253
v 0.48165 -3.9488 -0.77987
vn 0.218963 0.388237 0.895169
v 0.48165 -3.9715 -0.77164
vn 0.160975 0.336401 0.927858
v 0.50436 -3.9715 -0.77558
vn 0.366375 0.381395 0.848709
v 0.66329 -4.0623 -1.0494
vn -0.165848 0.27916 0.945814
v 0.686 -4.0623 -1.0495
vn 0.0177586 0.289876 0.956899
v 0.686 -4.0396 -1.0501
vn 0.068758 0.0497419 0.996393
v 0.54977 -4.0366 -0.6988
vn 0.409925 0.846298 -0.340207
v 0.54977 -4.0396 -0.7042
vn 0.389913 0.804983 -0.44718
v 0.52706 -4.0256 -0.6988
vn 0.409925 0.846298 -0.340207
v 0.48165 -4.0223 -0.65339
vn 0.0479395 0.989669 0.13512
v 0.48165 -4.0195 -0.67609
vn 0.0306411 0.99399 0.105098
v 0.45895 -4.0212 -0.65339
vn 0.036412 0.992172 0.119454
v 0.45895 -4.0192 -0.67609
vn 0.0131607 0.996054 0.0877725
v 0.54977 -4.0283 -0.67609
vn 0.414101 0.854919 -0.312465
v 0.45895 -4.0246 -0.63068
vn 0.0478512 0.987846 0.147888
v 0.66329 -4.0396 -1.048
vn 0.0329521 -0.0615225 0.997562
v 0.45895 -4.0301 -0.60798
vn 0.142966 0.955071 0.259616
v 0.43624 -4.0268 -0.60798
vn 0.124835 0.966513 0.224209
v 0.43624 -4.0224 -0.63068
vn 0.0946814 0.977315 0.189446
v 0.45895 -4.0365 -0.58527
vn 0.16331 0.961758 0.219891
v 0.43624 -4.0327 -0.58527
vn 0.149188 0.954431 0.258465
v 0.54977 -4.0277 -0.65339
vn 0.108351 0.992063 0.0638024
v 0.52706 -4.0238 -0.65339
vn 0.139434 0.983305 0.116914
v 0.52706 -4.0229 -0.67609
vn 0.231147 0.972155 0.0385347
v 0.48165 -4.0268 -0.63068
vn 0.0707312 0.96747 0.242895
v 0.50436 -4.0269 -0.63068
vn 0.023194 0.975248 0.219895
v 0.50436 -4.0219 -0.65339
vn 0.0322459 0.976105 0.214891
v 0.48165 -4.0338 -0.60798
vn 0.109004 0.951779 0.286766
v 0.52706 -4.0279 -0.63068
vn 0.0957566 0.977227 0.189363
v 0.54977 -4.0299 -0.63068
vn 0.064157 0.987718 0.142469
v 0.52706 -4.0351 -0.60798
vn 0.0836454 0.949864 0.301268
v 0.57247 -4.029 -0.65339
vn 0.0450426 0.997706 0.0505354
v 0.64059 -4.0396 -0.67843
vn -0.0413497 0.550389 -0.833884
v 0.64059 -4.0623 -0.69027
vn -0.0150787 0.433885 -0.900842
v 0.61788 -4.0396 -0.67791
vn -0.0198362 0.49926 -0.866225
v 0.64059 -4.0382 -0.67609
vn -0.0239836 0.95007 -0.311113
v 0.61788 -4.0386 -0.67609
vn -0.0133499 0.866115 -0.499667
v 0.59518 -4.0361 -0.67609
vn 0.0593896 0.962965 -0.263005
v 0.59518 -4.0299 -0.65339
vn 0.0184559 0.997656 -0.0658862
v 0.61788 -4.0313 -0.65339
vn 0.0324014 0.980815 -0.192227
v 0.64059 -4.0314 -0.65339
vn -0.0308207 0.979744 -0.197869
v 0.57247 -4.0305 -0.63068
vn -0.00788578 0.995138 0.0981752
v 0.59518 -4.0297 -0.63068
vn -0.048172 0.994432 0.0937243
v 0.59518 -4.0339 -0.60798
vn -0.0562082 0.981756 0.181646
v 0.57247 -4.0347 -0.60798
vn -0.0346239 0.982721 0.181824
v 0.61788 -4.0289 -0.63068
vn -0.0169794 0.999843 -0.00503762
v 0.64059 -4.0283 -0.63068
vn -0.0387329 0.999249 -0.000890137
v 0.61788 -4.0316 -0.60798
vn -0.065275 0.988099 0.139284
v 0.64059 -4.0302 -0.60798
vn -0.0392443 0.989896 0.136254
v 0.48165 -4.0402 -0.58527
vn 0.126616 0.972288 0.19653
v 0.48165 -4.0396 -0.58824
vn 0.172148 0.948139 0.267203
v 0.47704 -4.0396 -0.58527
vn 0.162448 0.960579 0.225609
v 0.46265 -4.0396 -0.56257
vn 0.167939 0.980032 0.10646
v 0.66329 -4.0396 -0.6801
vn -0.0184349 0.529261 -0.848259
v 0.66329 -4.0623 -0.68922
vn 0.0428814 0.372452 -0.92706
v 0.66329 -4.037 -0.67609
vn -0.0485051 0.945206 -0.32285
v 0.686 -4.0358 -0.67609
vn -0.0282504 0.926679 -0.37479
v 0.686 -4.0396 -0.68105
vn 0 0.793819 -0.608154
v 0.66329 -4.0303 -0.65339
vn -0.0598691 0.970922 -0.231787
v 0.686 -4.0285 -0.65339
vn -0.0357883 0.974911 -0.219697
v 0.7087 -4.0363 -0.67609
vn 0.0421232 0.924707 -0.378341
v 0.7087 -4.0396 -0.6801
vn 0.0420123 0.77973 -0.624705
v 0.73141 -4.0389 -0.67609
vn 0.113615 0.911192 -0.396006
v 0.73141 -4.0396 -0.67699
vn 0.0872883 0.772355 -0.629165
v 0.7087 -4.028 -0.65339
vn 0.0173416 0.984189 -0.176269
v 0.73141 -4.0293 -0.65339
vn 0.0783896 0.954073 -0.289136
v 0.66329 -4.0271 -0.63068
vn -0.042737 0.998816 -0.0232526
v 0.686 -4.0262 -0.63068
vn -0.0167363 0.999835 0.00704581
v 0.66329 -4.0294 -0.60798
vn -0.0191237 0.986799 0.160818
v 0.686 -4.0297 -0.60798
vn 0.0117201 0.980379 0.196775
v 0.7087 -4.0264 -0.63068
vn 0.0202045 0.997135 0.0729003
v 0.73141 -4.027 -0.63068
vn 0.0242015 0.999087 0.0351977
v 0.7087 -4.0304 -0.60798
vn 0.00430256 0.977362 0.21153
v 0.73141 -4.0301 -0.60798
vn -0.044592 0.979948 0.194197
v 0.73509 -4.0396 -0.67609
vn 0.172567 0.90721 -0.383653
v 0.66329 -4.0354 -0.58527
vn 0.00141291 0.965766 0.25941
v 0.686 -4.036 -0.58527
vn 0.0204035 0.974797 0.222159
v 0.7087 -4.0363 -0.58527
vn -0.0208612 0.986903 0.159962
v 0.73141 -4.0353 -0.58527
vn -0.0700324 0.983623 0.166075
v 0.7087 -4.0385 -0.56257
vn -0.0153309 0.995221 0.0964377
v 0.73141 -4.0375 -0.56257
vn -0.0744437 0.994191 0.0777363
v 0.75411 -4.0328 -0.58527
vn -0.0940346 0.985423 0.141774
v 0.75411 -4.0351 -0.56257
vn -0.0961428 0.992167 0.0797591
v 0.77682 -4.0336 -0.56257
vn -0.065578 0.992766 0.100579
v 0.75411 -4.0356 -0.53986
vn -0.105112 0.994219 0.0218983
v 0.41354 -4.0682 -1.0167
vn -0.406012 -0.46329 0.787729
v 0.32789 -4.0623 -0.88044
vn -0.972364 -0.0861616 -0.216991
v 0.33226 -4.0623 -0.90314
vn -0.967237 -0.172569 -0.186204
v 0.32191 -4.0623 -0.85773
vn -0.944722 0.035375 -0.325959
v 0.32272 -4.0623 -0.86039
vn -0.960795 0.0161445 -0.276789
v 0.31397 -4.0623 -0.83503
vn -0.944013 0.0469937 -0.326545
v 0.30671 -4.0623 -0.81232
vn -0.961293 0.0211737 -0.274715
v 0.29223 -4.0623 -0.7215
vn -0.941692 0.33272 -0.0501376
v 0.29419 -4.0623 -0.74421
vn -0.951218 0.297396 -0.0820945
v 0.29268 -4.0623 -0.6988
vn -0.915211 0.402851 -0.0099969
v 0.29295 -4.0623 -0.67609
vn -0.869653 0.493542 -0.0109465
v 0.34542 -4.0161 -0.81232
vn -0.507338 0.773573 -0.379729
v 0.34542 -4.0169 -0.81395
vn -0.507338 0.773573 -0.379729
v 0.3442 -4.0169 -0.81232
vn -0.507338 0.773573 -0.379729
v 0.45895 -4.0081 -0.85773
vn -0.199064 0.93302 -0.299745
v 0.4519 -4.0169 -0.88044
vn -0.199064 0.93302 -0.299745
v 0.43624 -4.0169 -0.87004
vn -0.199064 0.93302 -0.299745
v 0.31766 -4.0396 -0.74421
vn -0.519425 0.84714 0.112031
v 0.31169 -4.0396 -0.76691
vn -0.562347 0.813568 0.147895
v 0.30001 -4.0518 -0.74421
vn -0.567018 0.820325 0.0745451
v 0.30001 -4.0518 -0.7215
vn -0.485484 0.868538 0.0997361
v 0.32272 -4.0434 -0.7215
vn -0.342385 0.925667 0.160973
v 0.30001 -4.0543 -0.6988
vn -0.526361 0.848445 0.0555387
v 0.32272 -4.0465 -0.6988
vn -0.343619 0.937392 0.0567711
v 0.50436 -3.988 -0.76691
vn 0.215625 0.460904 0.860856
v 0.48165 -3.9815 -0.76691
vn 0.140579 0.446768 0.883536
v 0.50436 -3.9942 -0.76291
vn 0.422048 0.491474 0.761793
v 0.52706 -4.027 -0.7215
vn 0.750952 0.660197 0.0145274
v 0.5401 -4.0396 -0.7215
vn 0.461768 0.848616 -0.258111
v 0.30001 -4.055 -0.67609
vn -0.518615 0.853283 -0.0542745
v 0.32272 -4.0457 -0.67609
vn -0.37847 0.917637 -0.121253
v 0.30001 -4.051 -0.65339
vn -0.529128 0.829875 -0.177009
v 0.29038 -4.0623 -0.65339
vn -0.746386 0.657003 -0.106089
v 0.32272 -4.0415 -0.65339
vn -0.380383 0.909312 -0.168703
v 0.30001 -4.0456 -0.63068
vn -0.647929 0.753897 -0.108753
v 0.28691 -4.0623 -0.63068
vn -0.772635 0.627773 -0.0945276
v 0.31163 -4.0396 -0.63068
vn -0.291703 0.946902 -0.135228
v 0.32272 -4.0396 -0.64321
vn -0.309605 0.924367 -0.222913
v 0.32272 -4.0382 -0.63068
vn -0.125085 0.990853 -0.0506272
v 0.30001 -4.0439 -0.60798
vn -0.697835 0.714458 -0.0507426
v 0.28457 -4.0623 -0.60798
vn -0.758754 0.649198 -0.0532339
v 0.3084 -4.0396 -0.60798
vn -0.271067 0.961859 -0.0367353
v 0.32272 -4.0378 -0.60798
vn -0.124836 0.991927 -0.0222959
v 0.30001 -4.043 -0.58527
vn -0.720023 0.692459 -0.045459
v 0.28289 -4.0623 -0.58527
vn -0.747235 0.662833 -0.0478852
v 0.30631 -4.0396 -0.58527
vn -0.268035 0.962256 -0.0471303
v 0.32272 -4.0371 -0.58527
vn -0.142635 0.988779 -0.0444021
v 0.30001 -4.0413 -0.56257
vn -0.712308 0.700262 -0.0474459
v 0.28166 -4.0623 -0.56257
vn -0.749899 0.660017 -0.0450368
v 0.30257 -4.0396 -0.56257
vn -0.278959 0.959682 -0.034515
v 0.32272 -4.0351 -0.56257
vn -0.198478 0.97875 -0.0515238
v 0.30151 -4.0396 -0.53986
vn -0.308179 0.951228 0.0138095
v 0.30001 -4.0406 -0.53986
vn -0.55461 0.831981 0.0146597
v 0.32272 -4.0342 -0.53986
vn -0.231194 0.972852 0.0104026
v 0.3045 -4.0396 -0.51716
vn -0.296057 0.951658 0.0818341
v 0.30001 -4.0421 -0.51716
vn -0.677687 0.7268 0.111817
v 0.32272 -4.0357 -0.51716
vn -0.208215 0.975445 0.0717927
v 0.30001 -4.0461 -0.49445
vn -0.654461 0.743915 0.135167
v 0.28239 -4.0623 -0.51716
vn -0.741965 0.662463 0.103103
v 0.28513 -4.0623 -0.49445
vn -0.731575 0.671963 0.115169
v 0.31278 -4.0396 -0.49445
vn -0.358691 0.92476 0.127123
v 0.32272 -4.0375 -0.49445
vn -0.206182 0.975933 0.0710143
v 0.30001 -4.0509 -0.47175
vn -0.566106 0.807501 0.16573
v 0.3199 -4.0396 -0.47175
vn -0.415093 0.898363 0.143672
v 0.32272 -4.0396 -0.46598
vn -0.248899 0.961087 0.119838
v 0.32272 -4.0389 -0.47175
vn -0.239263 0.963888 0.116936
v 0.3308 -4.0396 -0.44904
vn -0.25586 0.961811 0.0972348
v 0.32272 -4.0425 -0.44904
vn -0.335279 0.934116 0.122536
v 0.34542 -4.0359 -0.47175
vn -0.143513 0.987278 0.0684524
v 0.33858 -4.0396 -0.42634
vn -0.311545 0.950231 0.00107131
v 0.32272 -4.0448 -0.42634
vn -0.414736 0.909627 -0.0239501
v 0.32272 -4.0423 -0.40363
vn -0.462233 0.868739 -0.177858
v 0.30001 -4.0575 -0.40363
vn -0.605064 0.760968 -0.234146
v 0.30001 -4.0475 -0.38093
vn -0.764728 0.588901 -0.261506
v 0.29249 -4.0623 -0.38093
vn -0.873761 0.443962 -0.198591
v 0.31385 -4.0396 -0.38093
vn -0.445014 0.843575 -0.300571
v 0.32272 -4.0396 -0.38621
vn -0.0953319 0.982478 -0.160151
v 0.32272 -4.0386 -0.38093
vn -0.110089 0.976564 -0.184942
v 0.28725 -4.0623 -0.35822
vn -0.873234 0.443695 -0.201486
v 0.36813 -4.0396 -0.71859
vn -0.224513 0.954404 0.196742
v 0.36813 -4.039 -0.7215
vn -0.224513 0.954404 0.196742
v 0.34542 -4.0411 -0.65339
vn -0.017444 0.989786 -0.14149
v 0.34542 -4.0439 -0.67609
vn -0.0174888 0.992327 -0.122401
v 0.41354 -4.0265 -0.60798
vn -0.123347 0.982648 0.138525
v 0.41354 -4.0233 -0.63068
vn -0.0952761 0.983164 0.155923
v 0.39083 -4.0293 -0.63068
vn -0.253098 0.957969 0.135046
v 0.34542 -4.036 -0.56257
vn 0.0409831 0.997083 -0.0643916
v 0.34542 -4.0348 -0.53986
vn 0.0308154 0.999524 0.00146854
v 0.36813 -4.0358 -0.53986
vn 0.00880705 0.999922 0.00881418
v 0.34542 -4.0358 -0.51716
vn 0.0132103 0.999744 0.018342
v 0.36813 -4.0363 -0.51716
vn -0.026421 0.999648 -0.00220437
v 0.43624 -4.0348 -0.56257
vn 0.149483 0.988623 0.0166898
v 0.41354 -4.0325 -0.56257
vn 0.0892247 0.99601 0.00146413
v 0.45895 -4.0389 -0.56257
vn 0.17878 0.983696 0.0194918
v 0.39083 -4.0346 -0.51716
vn -0.107717 0.994116 -0.011385
v 0.41354 -4.0312 -0.51716
vn -0.104013 0.994422 -0.0175224
v 0.41354 -4.0319 -0.53986
vn 0.0033047 0.998482 -0.054975
v 0.39083 -4.0338 -0.53986
vn -0.115903 0.993258 0.00218033
v 0.43624 -4.0334 -0.53986
vn 0.101636 0.992361 -0.0699234
v 0.45895 -4.0374 -0.53986
vn 0.185448 0.980712 -0.0617533
v 0.43624 -4.0304 -0.51716
vn 0.0153657 0.996577 -0.0812244
v 0.50436 -4.0355 -0.60798
vn 0.0305606 0.940738 0.337755
v 0.54977 -4.0343 -0.60798
vn -0.00328797 0.977736 0.209814
v 0.50436 -4.0427 -0.58527
vn 0.107261 0.974522 0.196981
v 0.50436 -4.0396 -0.59663
vn 0.0403371 0.948575 0.313971
v 0.48165 -4.0424 -0.56257
vn 0.145732 0.988899 0.0290116
v 0.52706 -4.0396 -0.59453
vn -0.031367 0.947866 0.317123
v 0.468 -4.0396 -0.53986
vn 0.175341 0.983641 -0.0413067
v 0.26085 -4.0169 -0.31281
vn -0.952741 0.114699 -0.2813
v 0.27731 -4.0169 -0.33442
vn -0.788092 0.136298 -0.600278
v 0.27731 -4.0282 -0.33552
vn -0.818677 -0.0414253 -0.572758
v 0.26334 -4.0396 -0.31281
vn -0.953336 -0.179177 -0.242993
v 0.26227 -4.0396 -0.29011
vn -0.968916 -0.0543771 0.241341
v 0.27009 -4.0623 -0.29011
vn -0.929402 -0.320169 0.183588
v 0.26522 -4.0169 -0.29011
vn -0.894354 0.273878 0.353724
v 0.27549 -3.9942 -0.29011
vn -0.868781 0.400216 0.291627
v 0.27731 -4.0169 -0.27198
vn -0.763606 0.365703 0.532134
v 0.27731 -3.9942 -0.28761
vn -0.757822 0.369286 0.537897
v 0.34542 -4.0361 -0.49445
vn -0.0308105 0.99937 0.0176056
v 0.36813 -4.0357 -0.49445
vn -0.0477433 0.99846 -0.028266
v 0.36813 -4.0345 -0.47175
vn -0.0717075 0.996906 -0.0321926
v 0.36813 -4.0347 -0.44904
vn -0.0811655 0.996293 0.0285125
v 0.34542 -4.037 -0.44904
vn -0.114156 0.992096 0.0521027
v 0.34542 -4.0385 -0.42634
vn -0.158376 0.984751 0.0719931
v 0.39083 -4.0336 -0.49445
vn -0.110776 0.992751 -0.0466288
v 0.34542 -4.0396 -0.41348
vn -0.108445 0.992428 0.0576799
v 0.28037 -4.0169 -0.2674
vn -0.765903 0.381158 0.517795
v 0.29229 -3.9942 -0.2674
vn -0.751343 0.387604 0.534084
v 0.30001 -3.9779 -0.2674
vn -0.772654 0.346526 0.531908
v 0.30001 -3.9715 -0.27074
vn -0.807368 0.272989 0.523101
v 0.40867 -4.0623 -1.0167
vn -0.465043 -0.145203 0.873299
v 0.39083 -4.0623 -1.0262
vn -0.418614 -0.215361 0.882259
v 0.40461 -4.0396 -1.0167
vn -0.4742 -0.0791035 0.876856
v 0.39083 -4.0396 -1.0243
vn -0.481649 -0.0730984 0.873311
v 0.35739 -4.0396 -0.94855
vn -0.765928 0.539829 -0.349197
v 0.3638 -4.0396 -0.97126
vn -0.942136 0.204121 -0.265922
v 0.36813 -4.0623 -0.96774
vn -0.827403 0.0786253 -0.556078
v 0.34638 -4.0623 -0.94855
vn -0.640638 0.310719 -0.702166
v 0.36813 -4.0373 -0.94855
vn -0.209384 0.977823 -0.00447252
v 0.36283 -4.0396 -0.92585
vn -0.327764 0.941489 0.0785481
v 0.34542 -4.0471 -0.92585
vn -0.712521 0.685605 -0.149194
v 0.34542 -4.0623 -0.94702
vn -0.84669 0.424875 -0.320307
v 0.45895 -4.0333 -0.51716
vn 0.193532 0.968429 -0.157133
v 0.48165 -4.0423 -0.53986
vn 0.193236 0.979302 -0.0602295
v 0.48165 -4.0396 -0.51716
vn 0 0.992999 -0.118124
v 0.48158 -4.0396 -0.51716
vn 0.237962 0.960742 -0.142652
v 0.41354 -4.0296 -0.49445
vn -0.136 0.988334 -0.0685531
v 0.39083 -4.0319 -0.47175
vn -0.140398 0.988476 -0.0566039
v 0.41354 -4.0282 -0.47175
vn -0.160497 0.985164 -0.0607587
v 0.39083 -4.0315 -0.44904
vn -0.113784 0.993351 -0.0174992
v 0.34542 -4.0403 -0.40363
vn -0.0875467 0.993491 -0.0728753
v 0.48165 -4.0396 -0.51706
vn 0.263588 0.946828 -0.184496
v 0.39083 -4.0328 -0.7215
vn -0.223372 0.874195 0.431147
v 0.41354 -4.0239 -0.65339
vn -0.28445 0.957002 -0.0568861
v 0.39083 -4.0314 -0.65339
vn -0.312397 0.945916 -0.0874689
v 0.36813 -4.0357 -0.42634
vn -0.14362 0.988731 0.0422463
v 0.43624 -4.0264 -0.49445
vn -0.138634 0.983416 -0.116938
v 0.41354 -4.0273 -0.44904
vn -0.181835 0.983212 -0.0151563
v 0.39083 -4.0317 -0.42634
vn -0.167161 0.985736 0.0195435
v 0.34866 -4.0396 -0.40363
vn -0.188381 0.98134 0.0385176
v 0.36813 -4.0361 -0.40363
vn -0.168188 0.985468 0.0237753
v 0.34542 -4.0396 -0.3835
vn -0.211055 0.976884 -0.03397
v 0.36813 -4.0623 -1.0345
vn -0.337087 -0.190882 0.92192
v 0.27538 -4.0623 -0.2674
vn -0.955639 -0.185468 0.228815
v 0.27731 -4.0664 -0.2674
vn -0.878914 -0.413754 0.237313
v 0.2319 -3.9715 -1.0463
vn -0.073221 -0.0117135 0.997247
v 0.2319 -3.9942 -1.0465
vn -0.0703087 -0.00878462 0.997487
v 0.2546 -3.9942 -1.0449
vn -0.0626372 -0.00549277 0.998021
v 0.2546 -3.9715 -1.0446
vn -0.0641614 -0.020218 0.997735
v 0.27731 -3.9715 -1.0437
vn -0.0314428 0.00251342 0.999502
v 0.27731 -3.9942 -1.0434
vn -0.0330182 -0.00110063 0.999454
v 0.2319 -3.9488 -1.046
vn -0.0862877 -0.0248632 0.99596
v 0.2546 -3.9488 -1.0439
vn -0.0446137 -0.0245108 0.998704
v 0.27731 -3.9488 -1.0438
vn -0.00660736 -0.00440589 0.999968
v 0.34542 -4.0435 -1.0394
vn -0.338521 -0.0959912 0.93605
v 0.34542 -4.0396 -1.039
vn -0.283735 0.0390857 0.958106
v 0.34435 -4.0396 -1.0394
vn -0.311881 -0.0226127 0.949852
v 0.36813 -4.0396 -1.0308
vn -0.265547 0.0630998 0.962031
v 0.34542 -4.0169 -1.0386
vn -0.223492 0.0107488 0.974647
v 0.34281 -4.0169 -1.0394
vn -0.204843 0.0322294 0.978264
v 0.36813 -4.0169 -1.0337
vn -0.141686 0.170528 0.975113
v 0.30001 -4.0169 -1.0437
vn -0.0286049 -0.0308095 0.999116
v 0.30001 -3.9942 -1.043
vn -0.0220136 -0.014091 0.999658
v 0.32272 -4.0169 -1.0428
vn -0.0794874 -0.0091436 0.996794
v 0.32272 -3.9942 -1.0426
vn -0.0557834 0.0215069 0.998211
v 0.30001 -3.9715 -1.043
vn -0.0161455 0.0139459 0.999772
v 0.32272 -3.9715 -1.043
vn -0.0132082 0.0220184 0.99967
v 0.34542 -4.0065 -1.0394
vn -0.131683 0.0966165 0.986572
v 0.34542 -3.9942 -1.0404
vn -0.0447752 0.0943668 0.99453
v 0.36813 -3.9953 -1.0394
vn -0.0468246 0.218228 0.974774
v 0.36813 -3.9942 -1.0396
vn -0.00654481 0.137341 0.990502
v 0.34542 -3.9715 -1.0422
vn -0.0246176 0.0562828 0.998111
v 0.36813 -3.9715 -1.0427
vn 0.0455496 0.119827 0.991749
v 0.36813 -4.0377 -0.97126
vn 0.0139619 0.997619 -0.0675446
v 0.36813 -4.0396 -0.97479
vn -0.0220851 0.880364 -0.473785
v 0.41354 -4.0243 -1.0167
vn -0.66594 0.482303 0.56913
v 0.39083 -3.9968 -1.0394
vn -0.0351096 0.296858 0.954276
v 0.39083 -3.9942 -1.0401
vn 0.0394237 0.184149 0.982107
v 0.40682 -4.0396 -0.99397
vn -0.985458 -0.0580503 -0.159697
v 0.41036 -4.0623 -0.99397
vn -0.896806 -0.100601 -0.430835
v 0.41354 -4.0327 -0.99397
vn -0.792995 0.585644 0.167867
v 0.39083 -4.0444 -0.97126
vn -0.782504 -0.0686133 -0.618853
v 0.39085 -4.0623 -0.97126
vn -0.758524 -0.000847402 -0.651644
v 0.39083 -4.0391 -0.97126
vn 0.0615035 0.99724 -0.0416006
v 0.39083 -4.0396 -0.97252
vn 0.0499026 0.892979 -0.447323
v 0.30001 -3.9488 -1.0436
vn -0.00817772 0.0138452 0.999871
v 0.32272 -3.9488 -1.0432
vn -0.00528257 0.0202612 0.999781
v 0.34542 -3.9488 -1.0434
vn 0.0282638 0.0527732 0.998206
v 0.36813 -3.9488 -1.0452
vn 0.106039 0.0987953 0.989442
v 0.33771 -4.0623 -0.92585
vn -0.879203 0.445961 -0.167693
v 0.36813 -4.0388 -0.92585
vn -0.0266791 0.999637 0.00363677
v 0.34542 -4.0458 -0.90314
vn -0.547741 0.83483 -0.055124
v 0.3605 -4.0396 -0.90314
vn -0.328062 0.943351 -0.0496469
v 0.36813 -4.0381 -0.90314
vn -0.117358 0.99103 -0.0639299
v 0.35648 -4.0396 -0.88044
vn -0.333279 0.937175 -0.103095
v 0.34542 -4.0441 -0.88044
vn -0.594051 0.794231 -0.127672
v 0.36813 -4.0366 -0.88044
vn -0.198339 0.972369 -0.12313
v 0.39083 -4.0386 -0.94855
vn 0.0341257 0.999417 -0.00110718
v 0.39083 -4.0379 -0.92585
vn -0.0687216 0.995834 -0.059935
v 0.39083 -4.0352 -0.90314
vn -0.154244 0.98178 -0.110985
v 0.39083 -4.0317 -0.88044
vn -0.236015 0.95102 -0.199646
v 0.34542 -4.0409 -0.85773
vn -0.649403 0.746819 -0.143307
v 0.32272 -4.0609 -0.85773
vn -0.603799 0.715446 -0.351516
v 0.34849 -4.0396 -0.85773
vn -0.356914 0.92411 -0.136504
v 0.36813 -4.0323 -0.85773
vn -0.313445 0.907445 -0.279814
v 0.33316 -4.0396 -0.83503
vn -0.57185 0.717172 -0.398313
v 0.34542 -4.0396 -0.85317
vn -0.526084 0.764593 -0.372336
v 0.32272 -4.0489 -0.83503
vn -0.597311 0.698215 -0.394609
v 0.34542 -4.0308 -0.83503
vn -0.453284 0.767482 -0.453327
v 0.36813 -4.0202 -0.83503
vn -0.375025 0.803467 -0.462382
v 0.32272 -4.0337 -0.81232
vn -0.592288 0.746809 -0.302443
v 0.32272 -4.0396 -0.82058
vn -0.579635 0.688593 -0.435733
v 0.31779 -4.0396 -0.81232
vn -0.745426 0.622882 -0.237399
v 0.36813 -4.0169 -0.83097
vn -0.401765 0.732938 -0.548987
v 0.36813 -4.0013 -0.81232
vn -0.516335 0.813864 -0.266504
v 0.39083 -4.0252 -0.85773
vn -0.287967 0.920669 -0.263521
v 0.32272 -4.0323 -0.76691
vn -0.390013 0.874602 0.288031
v 0.34542 -4.043 -0.7215
vn -0.0910316 0.982533 0.162305
v 0.34542 -4.0453 -0.6988
vn -0.094654 0.9947 0.0401666
v 0.36813 -4.0418 -0.6988
vn -0.169172 0.985584 -0.00227737
v 0.37747 -4.0396 -0.6988
vn -0.254349 0.966351 0.0383579
v 0.39083 -4.0361 -0.6988
vn -0.253215 0.966565 0.0404361
v 0.36813 -4.0406 -0.67609
vn -0.155726 0.985758 -0.0634892
v 0.36101 -4.0396 -0.65339
vn -0.107685 0.990291 -0.0879062
v 0.36813 -4.0396 -0.66464
vn -0.224099 0.968919 -0.104769
v 0.36813 -4.0386 -0.65339
vn -0.264569 0.962163 -0.0651581
v 0.34542 -4.0396 -0.6357
vn -0.02981 0.996345 -0.080046
v 0.34542 -4.0394 -0.63068
vn -0.0319525 0.999482 -0.00384084
v 0.36813 -4.0373 -0.63068
vn -0.231001 0.972825 -0.0158199
v 0.34542 -4.0392 -0.60798
vn 0.0105669 0.99964 -0.0246608
v 0.36813 -4.0378 -0.60798
vn -0.133413 0.990884 0.0186955
v 0.37264 -4.0396 -0.67609
vn -0.246279 0.967021 -0.0649367
v 0.39083 -4.0347 -0.67609
vn -0.263923 0.960058 -0.0929167
v 0.39083 -4.0315 -0.60798
vn -0.238727 0.965098 0.107679
v 0.34542 -4.0382 -0.58527
vn 0.015082 0.998526 -0.0521419
v 0.36813 -4.038 -0.58527
vn -0.0855406 0.995987 -0.0263137
v 0.36813 -4.0366 -0.56257
vn -0.0563562 0.997169 -0.0497824
v 0.39083 -4.0343 -0.58527
vn -0.149247 0.98825 0.0329639
v 0.41354 -4.0312 -0.58527
vn -0.0572364 0.987035 0.149956
v 0.39083 -4.0341 -0.56257
vn -0.0894846 0.995863 -0.0157848
v 0.50436 -4.0449 -0.56257
vn 0.0570804 0.996978 0.0526967
v 0.52706 -4.0421 -0.58527
vn -0.037255 0.987847 0.150899
v 0.54977 -4.0408 -0.58527
vn -0.0173995 0.987476 0.156804
v 0.54977 -4.0396 -0.58965
vn -0.0206365 0.961995 0.272285
v 0.52706 -4.0444 -0.56257
vn -0.0241968 0.998893 0.0403305
v 0.54977 -4.0439 -0.56257
vn -5.24576e-06 0.999126 0.0418035
v 0.50436 -4.0446 -0.53986
vn 0.0345853 0.999382 0.00628915
v 0.50436 -4.045 -0.51716
vn 0.143887 0.98688 -0.0732466
v 0.52706 -4.0439 -0.53986
vn -0.0498473 0.99875 0.00366128
v 0.54977 -4.0428 -0.53986
vn -0.0176102 0.999436 -0.0286088
v 0.52706 -4.0453 -0.51716
vn -0.0475842 0.997317 0.0556371
v 0.54977 -4.0426 -0.51716
vn -0.0858439 0.995816 0.031334
v 0.57247 -4.0413 -0.58527
vn 0.00531507 0.982769 0.184761
v 0.57247 -4.0396 -0.59136
vn -0.00786654 0.960159 0.279344
v 0.59518 -4.0405 -0.58527
vn -0.0549784 0.978337 0.199585
v 0.59518 -4.0396 -0.58855
vn -0.0523921 0.959441 0.277
v 0.57247 -4.0452 -0.56257
vn 0.0219974 0.998973 0.0395995
v 0.59518 -4.0449 -0.56257
vn -0.0643149 0.99625 0.0578713
v 0.60272 -4.0396 -0.58527
vn -0.112054 0.964534 0.238995
v 0.61788 -4.0376 -0.58527
vn -0.10179 0.963766 0.246563
v 0.64059 -4.0356 -0.58527
vn -0.0480778 0.976966 0.207909
v 0.61788 -4.0417 -0.56257
vn -0.111441 0.993668 -0.0142943
v 0.61788 -4.0396 -0.57671
vn -0.1101 0.978139 0.176412
v 0.63993 -4.0396 -0.56257
vn -0.084142 0.99445 0.0631552
v 0.64059 -4.0396 -0.56257
vn 0.00144788 0.99842 0.0561754
v 0.57247 -4.0431 -0.53986
vn -0.0181607 0.995536 -0.0926229
v 0.59518 -4.0427 -0.53986
vn -0.0831171 0.988727 -0.124538
v 0.57247 -4.0405 -0.51716
vn -0.0913357 0.995473 -0.0263002
v 0.58247 -4.0396 -0.51716
vn -0.0996406 0.994354 -0.036496
v 0.59518 -4.0396 -0.52475
vn -0.0765683 0.983253 -0.165381
v 0.59518 -4.0385 -0.51716
vn -0.101767 0.994299 -0.0318394
v 0.61788 -4.0401 -0.53986
vn -0.0969613 0.991847 -0.0826864
v 0.62689 -4.0396 -0.53986
vn -0.040978 0.994509 -0.0962941
v 0.64059 -4.0393 -0.53986
vn 0.00932343 0.996556 -0.0823946
v 0.61788 -4.0396 -0.53738
vn -0.0891939 0.980332 -0.176051
v 0.61788 -4.0363 -0.51716
vn -0.069244 0.992968 -0.0960248
v 0.64059 -4.0362 -0.51716
vn 0.00484784 0.992875 -0.119059
v 0.66329 -4.0395 -0.56257
vn -0.00261856 0.991034 0.133587
v 0.686 -4.039 -0.56257
vn -0.0218354 0.991142 0.130999
v 0.66329 -4.0396 -0.53986
vn 0.00989586 0.998315 -0.0571697
v 0.66329 -4.0371 -0.51716
vn 0.0233176 0.992731 -0.118077
v 0.686 -4.0375 -0.51716
vn 0.0175078 0.993837 -0.109456
v 0.29675 -4.0623 -0.40363
vn -0.817473 0.555161 -0.153411
v 0.34542 -4.0394 -0.38093
vn -0.0945769 0.954404 -0.283139
v 0.36813 -4.0341 -0.38093
vn -0.202741 0.95977 -0.194263
v 0.29375 -4.0396 -0.35822
vn -0.704642 0.409201 -0.579685
v 0.30001 -4.0396 -0.36806
vn -0.566186 0.701462 -0.432879
v 0.30001 -4.0323 -0.35822
vn -0.371265 0.60466 -0.704662
v 0.32272 -4.0304 -0.35822
vn -0.0208351 0.822717 -0.568069
v 0.27906 -4.0169 -0.33552
vn -0.477488 0.0739463 -0.875521
v 0.30001 -4.0169 -0.3468
vn -0.200219 0.563987 -0.801143
v 0.32272 -4.0169 -0.34365
vn 0.118074 0.702159 -0.702162
v 0.34542 -4.0321 -0.35822
vn -0.0379247 0.892415 -0.449619
v 0.36813 -4.0279 -0.35822
vn -0.157196 0.896892 -0.413369
v 0.34542 -4.0169 -0.33858
vn -0.0121864 0.78686 -0.617011
v 0.36813 -4.0169 -0.34056
vn -0.106221 0.812738 -0.572864
v 0.32272 -4.0057 -0.33552
vn 0.169577 0.503567 -0.84715
v 0.34542 -4.0134 -0.33552
vn 0.094714 0.543572 -0.834002
v 0.36813 -4.0119 -0.33552
vn -0.0974422 0.590101 -0.801427
v 0.39083 -4.0234 -0.35822
vn -0.210538 0.918793 -0.333906
v 0.39083 -4.0292 -0.38093
vn -0.188342 0.950207 -0.24826
v 0.41291 -4.0169 -0.35822
vn -0.260287 0.884181 -0.38791
v 0.41354 -4.0251 -0.38093
vn -0.220386 0.93127 -0.290115
v 0.39083 -4.0169 -0.347
vn -0.190763 0.794776 -0.576142
v 0.41354 -4.0167 -0.35822
vn -0.27581 0.867613 -0.413735
v 0.41354 -4.0169 -0.35864
vn -0.27581 0.867613 -0.413735
v 0.39083 -4.0049 -0.33552
vn -0.18553 0.60165 -0.776914
v 0.50436 -4.0409 -0.49445
vn 0.242391 0.949812 -0.197745
v 0.50144 -4.0396 -0.49445
vn 0.301214 0.919862 -0.251244
v 0.48165 -4.0314 -0.49445
vn 0.36295 0.875982 -0.317682
v 0.52706 -4.0462 -0.49445
vn 0.0748576 0.994159 -0.0777431
v 0.54977 -4.0452 -0.49445
vn -0.0926597 0.993986 0.0583617
v 0.50436 -4.0396 -0.49161
vn 0.207643 0.88941 -0.407227
v 0.54977 -4.0452 -0.47175
vn 0.0526524 0.986839 -0.152895
v 0.52706 -4.0407 -0.47175
vn 0.190292 0.948681 -0.252573
v 0.52459 -4.0396 -0.47175
vn 0.403024 0.784554 -0.471218
v 0.52706 -4.0396 -0.46946
vn 0.320874 0.868207 -0.378492
v 0.54977 -4.0396 -0.44975
vn 0.320692 0.873032 -0.367386
v 0.52706 -4.0272 -0.44904
vn 0.364237 0.840068 -0.402017
v 0.50436 -4.0293 -0.47175
vn 0.342554 0.840337 -0.420108
v 0.50436 -4.02 -0.44904
vn 0.288001 0.90797 -0.304379
v 0.54977 -4.0393 -0.44904
vn 0.436604 0.832387 -0.341335
v 0.50436 -4.0169 -0.43476
vn 0.194065 0.915669 -0.35198
v 0.52706 -4.0169 -0.42846
vn 0.148682 0.884767 -0.44168
v 0.54977 -4.03 -0.42634
vn 0.46737 0.801867 -0.372255
v 0.52966 -4.0169 -0.42634
vn 0.482868 0.775701 -0.406357
v 0.52706 -4.0161 -0.42634
vn 0.276678 0.899059 -0.339326
v 0.57247 -4.0419 -0.49445
vn -0.131689 0.988416 0.0754453
v 0.58671 -4.0396 -0.49445
vn -0.149227 0.98771 0.0464823
v 0.59518 -4.0383 -0.49445
vn -0.128781 0.991136 -0.0326336
v 0.57247 -4.0438 -0.47175
vn -0.0643226 0.997925 -0.00302466
v 0.59518 -4.04 -0.47175
vn -0.166944 0.977023 0.132499
v 0.59518 -4.0396 -0.4747
vn -0.171432 0.981807 0.0816479
v 0.61788 -4.0348 -0.49445
vn -0.0788615 0.994718 -0.065707
v 0.59705 -4.0396 -0.47175
vn -0.207386 0.969386 0.131463
v 0.57247 -4.0439 -0.44904
vn 0.193779 0.981036 0.00432571
v 0.5507 -4.0396 -0.44904
vn 0.0722424 0.988945 -0.129498
v 0.30001 -3.9982 -0.33552
vn 0.142588 0.40931 -0.901185
v 0.30001 -3.9942 -0.33389
vn 0.152339 0.372972 -0.915251
v 0.32272 -3.9942 -0.33011
vn 0.160536 0.39745 -0.903472
v 0.32272 -3.9715 -0.32041
vn 0.0775069 0.391684 -0.91683
v 0.30001 -3.9715 -0.32192
vn 0.0610281 0.392208 -0.91785
v 0.34542 -3.9942 -0.3242
vn 0.0971378 0.44774 -0.888872
v 0.36813 -3.9942 -0.324
vn -0.104467 0.426346 -0.898508
v 0.36813 -3.9715 -0.31635
vn -0.12424 0.316881 -0.940293
v 0.39083 -3.9715 -0.32255
vn -0.250568 0.309168 -0.917404
v 0.32272 -3.9537 -0.31281
vn -0.107579 0.394061 -0.912766
v 0.30001 -3.9599 -0.31281
vn -0.107579 0.394061 -0.912766
v 0.32272 -3.9488 -0.31061
vn -0.51393 0.540713 -0.665962
v 0.77682 -4.0283 -0.63068
vn 0.0125287 0.948228 -0.317342
v 0.79952 -4.0362 -0.65339
vn 0.0125287 0.948228 -0.317342
v 0.77682 -4.0359 -0.65339
vn 0.0125287 0.948228 -0.317342
v 0.39083 -4.0309 -0.40363
vn -0.218749 0.973658 -0.064328
v 0.37842 -4.0169 -0.83503
vn -0.267755 0.849366 -0.454846
v 0.41354 -4.0281 -0.6988
vn -0.321931 0.946405 0.0260473
v 0.41354 -4.026 -0.7215
vn -0.285732 0.954235 0.0882771
v 0.41354 -4.0266 -0.67609
vn -0.326794 0.939418 -0.103441
v 0.41354 -4.027 -0.40363
vn -0.18489 0.982071 -0.0367632
v 0.41354 -4.0269 -0.42634
vn -0.209587 0.977752 0.00861497
v 0.43624 -4.0218 -0.40363
vn -0.22938 0.973278 0.0107185
v 0.43624 -4.0214 -0.42634
vn -0.235437 0.971739 0.0171184
v 0.30001 -3.9513 -0.29011
vn -0.684128 0.504808 0.526439
v 0.41354 -4.0334 -0.97126
vn -0.357725 0.933384 0.02877
v 0.43624 -4.0247 -0.97126
vn -0.357725 0.933384 0.02877
v 0.41354 -4.0333 -0.90314
vn -0.0824677 0.985604 -0.147595
v 0.41354 -4.0366 -0.92585
vn -0.0825201 0.98623 -0.143318
v 0.27731 -4.074 -0.29011
vn -0.838157 -0.517236 0.173091
v 0.30252 -3.9488 -0.29011
vn -0.681539 0.684318 -0.259257
v 0.89035 -4.0694 -0.94855
vn -0.281868 0.954982 -0.0925178
v 0.89035 -4.0716 -0.97126
vn -0.281868 0.954982 -0.0925178
v 0.89035 -4.071 -0.83503
vn -0.321335 0.942797 0.0887519
v 0.89035 -4.0697 -0.85773
vn -0.338475 0.939132 0.0588788
v 0.75411 -4.0328 -0.65339
vn 0.14982 0.938675 -0.310554
v 0.75411 -4.0396 -0.66939
vn 0.148761 0.910097 -0.386773
v 0.77682 -4.0396 -0.66016
vn 0.156994 0.908925 -0.386275
v 0.75411 -4.0283 -0.63068
vn 0.103991 0.983614 -0.147275
v 0.86764 -4.0725 -1.0394
vn -0.0212116 0.519302 0.854327
v 0.86764 -4.0623 -1.0456
vn 0.00793721 0.346835 0.937893
v 0.84493 -4.0623 -1.0446
vn 0.0414145 0.337313 0.940481
v 0.89035 -4.069 -1.0394
vn -0.0612373 0.558183 0.827455
v 0.89035 -4.0623 -1.0446
vn -0.0404419 0.3936 0.918392
v 0.86764 -4.0748 -0.94855
vn -0.251732 0.960778 -0.116349
v 0.89035 -4.0694 -0.92585
vn -0.202736 0.979233 0
v 0.89035 -4.0698 -0.88044
vn -0.344111 0.93892 -0.00414
v 0.45874 -4.0169 -0.99397
vn -0.0512106 0.984781 0.166085
v 0.43624 -4.0169 -1.0001
vn -0.0499511 0.981779 0.183343
v 0.43624 -4.0183 -0.99397
vn -0.0869785 0.967759 0.236383
v 0.45895 -4.0203 -0.97126
vn -0.187502 0.96771 0.168462
v 0.45895 -4.0169 -0.99079
vn -0.133933 0.968614 0.209403
v 0.86764 -4.0739 -0.92585
vn -0.212938 0.976874 -0.0193609
v 0.89035 -4.0698 -0.90314
vn -0.243545 0.96989 0
v 0.41354 -4.0362 -0.94855
vn -0.245816 0.962032 0.118612
v 0.43624 -4.0304 -0.94855
vn -0.2347 0.968857 0.0789388
v 0.45895 -4.0261 -0.92585
vn -0.223027 0.974047 0.0386301
v 0.45895 -4.0252 -0.94855
vn -0.223027 0.974047 0.0386301
v 0.43624 -4.0278 -0.90314
vn -0.230156 0.949943 -0.211272
v 0.43624 -4.0318 -0.92585
vn -0.218585 0.963454 -0.154846
v 0.41354 -4.0272 -0.88044
vn -0.22783 0.940344 -0.252679
v 0.46082 -4.0169 -0.99397
vn 0.607705 0.782813 0.133782
v 0.82223 -4.0335 -0.65339
vn -0.127557 0.808542 -0.574447
v 0.82223 -4.0396 -0.6598
vn -0.0803944 0.741226 -0.666424
v 0.79952 -4.0396 -0.65792
vn -0.0496302 0.798816 -0.599525
v 0.75411 -4.0289 -0.60798
vn 0.0286032 0.999241 0.0264265
v 0.79952 -4.0249 -0.63068
vn -0.1194 0.888886 -0.442295
v 0.84493 -4.0623 -0.67013
vn -0.177992 0.297881 -0.937862
v 0.84493 -4.0396 -0.66292
vn -0.149766 0.540908 -0.827641
v 0.86764 -4.0396 -0.66723
vn -0.167179 0.44282 -0.880887
v 0.84493 -4.029 -0.65339
vn -0.151963 0.75534 -0.637471
v 0.83509 -4.0169 -0.63068
vn -0.16625 0.838564 -0.518817
v 0.86764 -4.074 -0.90314
vn -0.191862 0.981347 0.0121025
v 0.86764 -4.0746 -0.88044
vn -0.208834 0.977818 0.0161512
v 0.86764 -4.075 -0.85773
vn -0.223035 0.974045 0.0386176
v 0.45895 -4.0216 -0.90314
vn -0.150159 0.963517 -0.221558
v 0.43624 -4.0205 -0.88044
vn -0.24713 0.920363 -0.303081
v 0.45895 -4.0169 -0.88324
vn -0.0909068 0.969198 -0.228892
v 0.41354 -4.0188 -0.85773
vn -0.2654 0.900745 -0.343833
v 0.39083 -4.0169 -0.8406
vn -0.329979 0.763691 -0.554878
v 0.41354 -4.0169 -0.85362
vn -0.330019 0.768269 -0.548498
v 0.41882 -4.0169 -0.85773
vn -0.317735 0.790735 -0.523242
v 0.41354 -3.9996 -0.83503
vn -0.39228 0.639831 -0.660858
v 0.39083 -4.0125 -0.83503
vn -0.367707 0.647342 -0.667637
v 0.43624 -4.0104 -0.85773
vn -0.197044 0.748128 -0.633623
v 0.42159 -3.9942 -0.83503
vn -0.291685 0.654633 -0.697406
v 0.43624 -3.9942 -0.83942
vn -0.123024 0.743255 -0.657599
v 0.39083 -3.9942 -0.81859
vn -0.469521 0.510471 -0.720395
v 0.41354 -3.9942 -0.83216
vn -0.438895 0.364714 -0.821191
v 0.39083 -3.9894 -0.81232
vn -0.671573 0.729714 0.128483
v 0.3822 -3.9942 -0.81232
vn -0.403999 0.726345 -0.556064
v 0.41136 -3.9715 -0.81232
vn -0.657178 0.753735 0
v 0.41354 -3.9715 -0.82255
vn -0.497019 0.573132 -0.65153
v 0.41354 -3.9852 -0.78962
vn -0.460317 0.695353 0.551899
v 0.41354 -3.9715 -0.80801
vn -0.603147 0.655952 0.453807
v 0.42198 -3.9488 -0.81232
vn -0.520506 0.276295 -0.80792
v 0.43624 -3.9715 -0.82927
vn -0.418173 0.49788 -0.759768
v 0.41354 -3.9647 -0.81232
vn -0.418173 0.49788 -0.759768
v 0.43624 -4.001 -0.76691
vn -0.109575 0.82279 0.557682
v 0.43624 -3.9942 -0.77478
vn -0.11783 0.765123 0.633011
v 0.41354 -4.0037 -0.76691
vn -0.104578 0.80814 0.579632
v 0.41354 -3.9942 -0.77941
vn -0.127765 0.768957 0.626403
v 0.43624 -4.015 -0.74421
vn -0.150302 0.870079 0.469439
v 0.42524 -4.0169 -0.74421
vn -0.134659 0.879559 0.456336
v 0.43624 -4.0196 -0.7215
vn -0.174513 0.980281 0.0927037
v 0.43624 -4.0169 -0.73744
vn -0.182488 0.957622 0.222841
v 0.45895 -4.017 -0.7215
vn -0.114035 0.991407 0.0640915
v 0.45895 -4.0169 -0.72197
vn -0.149367 0.963941 0.220242
v 0.43624 -4.0209 -0.6988
vn -0.204421 0.978603 0.0233973
v 0.45895 -4.0184 -0.6988
vn -0.110921 0.992514 0.0511084
v 0.45895 -4.0109 -0.74421
vn -0.1742 0.950719 0.256491
v 0.45971 -4.0169 -0.7215
vn -0.14558 0.9762 0.160746
v 0.43624 -4.0208 -0.67609
vn -0.127415 0.991836 -0.00508573
v 0.43624 -4.0209 -0.65339
vn -0.0593135 0.99762 0.0351461
v 0.75411 -4.0488 -0.67609
vn 0.294863 0.562515 -0.77242
v 0.77682 -4.0272 -0.60798
vn -0.137197 0.98884 0.0580751
v 0.79952 -4.0229 -0.60798
vn -0.241665 0.968773 0.0554722
v 0.82223 -4.0169 -0.61604
vn -0.233221 0.962785 -0.136576
v 0.82223 -4.0199 -0.63068
vn -0.210524 0.92372 -0.320034
v 0.686 -4.0392 -0.53986
vn -0.0307954 0.998906 -0.0351986
v 0.7087 -4.0383 -0.53986
vn -0.0413421 0.998525 -0.0351846
v 0.73141 -4.0371 -0.53986
vn -0.0578 0.996898 -0.0534149
v 0.7087 -4.0364 -0.51716
vn -0.0543363 0.99266 -0.108049
v 0.73141 -4.0349 -0.51716
vn -0.0438293 0.99528 -0.0865839
v 0.77682 -4.031 -0.58527
vn -0.11783 0.983554 0.136885
v 0.79952 -4.0275 -0.58527
vn -0.216078 0.96131 0.170858
v 0.82223 -4.0199 -0.58527
vn -0.308754 0.934991 0.174534
v 0.82223 -4.0169 -0.60134
vn -0.276465 0.948447 0.154966
v 0.79952 -4.0305 -0.56257
vn -0.15005 0.987301 0.0521789
v 0.77682 -4.0337 -0.53986
vn -0.142409 0.98977 0.00871843
v 0.75411 -4.0354 -0.51716
vn -0.00661505 0.999939 -0.008822
v 0.77682 -4.0346 -0.51716
vn -0.110854 0.993563 0.0233312
v 0.79952 -4.0296 -0.53986
vn -0.177708 0.983931 -0.0173371
v 0.79952 -4.0297 -0.51716
vn -0.194405 0.980684 0.0215891
v 0.86764 -4.0218 -0.65339
vn -0.230679 0.628567 -0.742758
v 0.89035 -4.052 -0.67609
vn -0.261673 0.196006 -0.945044
v 0.86764 -4.0623 -0.67241
vn -0.250622 0.215372 -0.943824
v 0.89035 -4.0396 -0.67399
vn -0.260007 0.411608 -0.873485
v 0.8779 -4.0169 -0.65339
vn -0.336647 0.700229 -0.629562
v 0.89035 -4.0169 -0.65955
vn -0.287065 0.582023 -0.760818
v 0.89035 -4.0106 -0.65339
vn -0.381363 0.727612 -0.570213
v 0.84493 -4.0169 -0.63635
vn -0.270996 0.823593 -0.498252
v 0.86764 -4.0169 -0.64802
vn -0.260292 0.806926 -0.530207
v 0.84493 -4.0145 -0.63068
vn -0.272068 0.942121 -0.195926
v 0.86764 -4.0075 -0.63068
vn -0.318504 0.858802 -0.401266
v 0.84493 -4.011 -0.60798
vn -0.238669 0.968769 -0.0672626
v 0.82223 -4.0166 -0.60798
vn -0.239514 0.970893 0
v 0.89035 -3.9967 -0.63068
vn -0.385527 0.786985 -0.481688
v 0.89479 -3.9942 -0.63068
vn -0.459992 0.760098 -0.458975
v 0.83162 -4.0169 -0.58527
vn -0.237847 0.961308 0.138979
v 0.45895 -4.0263 -0.49445
vn 0.07339 0.963905 -0.255932
v 0.45895 -4.0203 -0.47175
vn -0.0390511 0.985058 -0.167735
v 0.43624 -4.0232 -0.47175
vn -0.0852498 0.984287 -0.154634
v 0.45895 -4.0177 -0.44904
vn -0.052603 0.995016 -0.0847135
v 0.43624 -4.0217 -0.44904
vn -0.149594 0.984744 -0.0888881
v 0.48165 -4.0224 -0.47175
vn 0.167792 0.940584 -0.295209
v 0.48165 -4.0179 -0.44904
vn 0.0364522 0.993012 -0.112239
v 0.48165 -4.0173 -0.42634
vn 0.00879813 0.999612 -0.0264154
v 0.50436 -4.0154 -0.42634
vn 0.030391 0.985539 -0.166703
v 0.50436 -4.012 -0.40363
vn -0.0379462 0.990538 -0.131887
v 0.48165 -4.0169 -0.41772
vn -0.147243 0.983542 -0.104715
v 0.48165 -4.0154 -0.40363
vn -0.147243 0.983542 -0.104715
v 0.686 -4.0345 -0.49445
vn -0.0262032 0.991606 -0.126613
v 0.66329 -4.0348 -0.49445
vn -0.0131387 0.994826 -0.100744
v 0.7087 -4.0331 -0.49445
vn -0.0630654 0.987639 -0.143502
v 0.48165 -4.0261 -0.94855
vn 0.388794 0.918312 -0.0744431
v 0.45895 -3.9942 -0.83809
vn 0.0579593 0.781743 -0.620901
v 0.43624 -3.9875 -0.83503
vn -0.107866 0.453399 -0.884757
v 0.444 -3.9715 -0.78962
vn -0.472637 0.410596 0.779759
v 0.43624 -3.9488 -0.8091
vn -0.502801 0.457495 0.733409
v 0.43624 -3.9715 -0.79494
vn -0.502801 0.457495 0.733409
v 0.45565 -3.9942 -0.76691
vn -0.311048 0.570237 0.760315
v 0.45895 -3.9942 -0.76556
vn -0.311048 0.570237 0.760315
v 0.45895 -3.9924 -0.76691
vn -0.311048 0.570237 0.760315
v 0.45895 -3.9715 -0.78134
vn -0.40368 0.359885 0.841145
v 0.45895 -3.9536 -0.78962
vn -0.43744 0.352158 0.827424
v 0.47919 -3.9942 -0.83503
vn 0.0870078 0.813156 -0.575505
v 0.46077 -3.9488 -0.78962
vn -0.503594 0.121449 0.855362
v 0.45895 -3.9488 -0.79138
vn -0.68749 0.148134 0.710924
v 0.48165 -4.0081 -0.74421
vn -0.10665 0.864631 0.490957
v 0.48165 -3.9942 -0.75954
vn -0.0909984 0.73774 0.668924
v 0.48165 -4.0169 -0.71331
vn 0.00657598 0.994937 0.100283
v 0.50436 -4.0195 -0.6988
vn 0.0660414 0.996596 0.0493506
v 0.50436 -4.0171 -0.7215
vn 0.193021 0.975757 0.103161
v 0.50335 -4.0169 -0.7215
vn 0.0492577 0.991916 0.116948
v 0.48165 -4.0158 -0.7215
vn -0.0624073 0.966148 0.250328
v 0.50436 -4.0199 -0.67609
vn 0.074568 0.995826 0.0526399
v 0.40786 -3.9942 -0.33552
vn -0.357816 0.60104 -0.714646
v 0.61788 -4.0365 -0.47175
vn -0.0912401 0.988379 0.121579
v 0.64059 -4.0357 -0.47175
vn -0.0269092 0.987252 0.156876
v 0.61788 -4.0396 -0.45614
vn -0.0594564 0.976471 0.207292
v 0.64059 -4.0396 -0.45531
vn -0.00843601 0.972961 0.230815
v 0.46183 -4.0169 -0.40363
vn -0.07505 0.991576 -0.105571
v 0.34542 -3.9715 -0.3157
vn 0.190746 0.344232 -0.919304
v 0.39083 -3.9942 -0.32926
vn -0.242784 0.489866 -0.837309
v 0.45895 -4.0164 -0.99397
vn 0 0.988352 0.152187
v 0.48165 -4.0253 -0.97126
vn 0.427881 0.903372 -0.0289383
v 0.48165 -4.0183 -0.6988
vn 0.0131933 0.998521 0.0527497
v 0.45895 -4.0178 -0.42634
vn -0.107079 0.994189 -0.0110288
v 0.45895 -4.0171 -0.40363
vn -0.187936 0.981492 -0.0367821
v 0.43624 -4.018 -0.38093
vn -0.297445 0.937295 -0.181674
v 0.43938 -4.0169 -0.38093
vn -0.263921 0.936218 -0.232037
v 0.45895 -4.0169 -0.40233
vn -0.249406 0.938591 -0.23842
v 0.45895 -4.0098 -0.38093
vn -0.197477 0.931395 -0.305788
v 0.43624 -4.0169 -0.37835
vn -0.286375 0.897204 -0.336178
v 0.48611 -4.0169 -0.42634
vn -0.0513671 0.996709 -0.0627033
v 0.59518 -4.0435 -0.44904
vn -0.144036 0.977487 0.154181
v 0.48165 -4.0076 -0.38093
vn -0.0917849 0.946998 -0.307847
v 0.52706 -4.0107 -0.40363
vn 0.134571 0.964879 -0.22561
v 0.54263 -4.0169 -0.40363
vn 0.36195 0.908989 -0.206715
v 0.47321 -4.0169 -0.88044
vn 0.0541155 0.962925 -0.264285
v 0.45895 -4.0161 -0.88044
vn 0.0529685 0.944006 -0.325648
v 0.89035 -3.9715 -1.0334
vn -0.416124 -0.457687 0.785725
v 0.89035 -3.9825 -1.0394
vn -0.340895 -0.45016 0.825316
v 0.86764 -3.9488 -1.0328
vn -0.440263 -0.431195 0.787553
v 0.89035 -3.9488 -1.0199
vn -0.438723 -0.459337 0.772355
v 0.41354 -3.9942 -0.33792
vn -0.290181 0.642381 -0.709325
v 0.64059 -4.0341 -0.49445
vn 0 0.999939 -0.0110146
v 0.32272 -3.9428 -0.2674
vn -0.503149 0.284276 0.816106
v 0.30447 -3.9715 -0.2674
vn -0.562253 0.391814 0.728254
v 0.82223 -3.9715 -1.0495
vn -0.0644531 -0.0117278 0.997852
v 0.82223 -3.9942 -1.0492
vn -0.0264135 0.013207 0.999564
v 0.82223 -3.9488 -1.0481
vn -0.168556 -0.0907993 0.981501
v 0.82223 -4.0396 -1.049
vn 0.0523191 0.132981 0.989737
v 0.82223 -4.0169 -1.0495
vn 0.0549653 0.0241843 0.998195
v 0.84493 -3.9942 -1.049
vn -0.00881092 0.0132111 0.999874
v 0.2319 -4.0623 -1.0442
vn -0.0271113 0.0535023 0.9982
v 0.2546 -4.0623 -1.0431
vn -0.0388692 0.0183351 0.999076
v 0.27731 -4.0623 -1.0422
vn 0.00264145 0.0158565 0.999871
v 0.30001 -4.0623 -1.0436
vn 0.0483959 0.00219857 0.998826
v 0.32272 -4.0623 -1.0448
vn -0.0978213 -0.0568961 0.993576
v 0.34542 -4.0623 -1.0413
vn -0.17801 -0.0956652 0.979367
v 0.35399 -4.0623 -1.0394
vn -0.284339 -0.124285 0.950634
v 0.77682 -4.0623 -1.0479
vn -0.0294087 0.417322 0.908283
v 0.2319 -4.0396 -1.0457
vn -0.0491986 0.0527261 0.997396
v 0.2319 -4.0169 -1.0466
vn -0.0627882 0.0169546 0.997883
v 0.2546 -4.0396 -1.0435
vn -0.0620602 0.0313098 0.997581
v 0.27731 -4.0396 -1.0428
vn 0.0193741 0.0184967 0.999641
v 0.2546 -4.0169 -1.0443
vn -0.0746322 0.0272262 0.996839
v 0.27731 -4.0169 -1.0431
vn -0.00587106 0.0132175 0.999895
v 0.30001 -4.0396 -1.0439
vn 0.0158557 0.00440503 0.999865
v 0.32272 -4.0396 -1.0434
vn -0.0888435 -0.0227581 0.995786
v 0.39083 -3.99 -0.78962
vn -0.246587 0.944753 0.215956
v 0.41354 -4.0187 -0.74421
vn -0.127838 0.935997 0.327975
v 0.41354 -4.0169 -0.74747
vn -0.098402 0.824193 0.557694
v 0.82223 -4.0623 -0.66904
vn -0.0461083 0.352585 -0.934643
v 0.79952 -4.0623 -0.66989
vn -0.020542 0.423174 -0.905816
v 0.82103 -4.0169 -0.60798
vn -0.267315 0.963609 0
v 0.64059 -3.9942 -1.0473
vn -0.0389341 0.0489914 0.99804
v 0.64059 -3.9715 -1.0497
vn -0.0517309 0.110044 0.99258
v 0.66329 -4.0169 -1.0465
vn 0.0352088 -0.0184875 0.999209
v 0.686 -4.0169 -1.0494
vn 0.135956 -0.019636 0.99052
v 0.66329 -3.9942 -1.0469
vn 0.0606252 0.0360312 0.99751
v 0.686 -3.9942 -1.0493
vn 0.130995 0.00312306 0.991378
v 0.66329 -3.9715 -1.0486
vn 0.00877964 0.0790402 0.996833
v 0.686 -3.9715 -1.0493
vn 0.0641143 0.0412938 0.997088
v 0.76832 -4.0623 -0.67609
vn 0.197612 0.512442 -0.835675
v 0.77682 -4.0623 -0.67408
vn 0.167025 0.515408 -0.84051
v 0.82223 -4.0227 -0.56257
vn -0.318786 0.940186 0.120107
v 0.54977 -4.0623 -0.72042
vn 0.635493 0.456467 -0.622725
v 0.54895 -4.0623 -0.7215
vn 0.760623 0.29654 -0.577509
v 0.55521 -4.0396 -0.6988
vn 0.349842 0.753905 -0.556091
v 0.57247 -4.0396 -0.68899
vn 0.246623 0.774866 -0.582031
v 0.57247 -4.0534 -0.6988
vn 0.34858 0.500817 -0.792259
v 0.59518 -4.0396 -0.68169
vn 0.198432 0.59213 -0.781029
v 0.59518 -4.0623 -0.6944
vn 0.232187 0.47519 -0.848696
v 0.57247 -4.0325 -0.67609
vn 0.135553 0.946193 -0.293845
v 0.61788 -4.0623 -0.69136
vn 0.0998875 0.500264 -0.860092
v 0.686 -4.0623 -0.68776
vn 0.0106027 0.329216 -0.944195
v 0.55949 -4.049 -0.7033
vn 0.49962 0.517647 -0.694566
v 0.57994 -4.0623 -0.6988
vn 0.484559 0.502861 -0.715775
v 0.50436 -4.0103 -0.74421
vn 0.070671 0.951007 0.300983
v 0.84493 -3.9387 -1.0394
vn -0.423303 -0.292617 0.857432
v 0.43624 -3.977 -0.78962
vn -0.442017 0.623638 0.644746
v 0.86764 -3.9942 -1.0479
vn -0.0519716 -0.173306 0.983496
v 0.84493 -3.9715 -1.0466
vn -0.138651 -0.114833 0.983661
v 0.84493 -3.9488 -1.0422
vn -0.247242 -0.184385 0.951249
v 0.48165 -3.9942 -0.83482
vn 0.0281303 0.464671 -0.885037
v 0.48165 -3.9946 -0.83503
vn 0.0225948 0.509537 -0.860152
v 0.79952 -4.0623 -1.0456
vn -0.0465366 0.243068 0.968892
v 0.82223 -4.0623 -1.0449
vn -0.026319 0.273439 0.961529
v 0.84493 -4.0737 -1.0394
vn -0.0430901 0.505112 0.861978
v 0.79952 -4.0396 -1.049
vn -0.0451055 0.0814537 0.995656
v 0.79952 -4.0169 -1.05
vn -0.0510125 0.0228719 0.998436
v 0.31092 -4.0396 -0.78962
vn -0.832477 0.541262 -0.118396
v 0.30166 -4.0623 -0.78962
vn -0.909103 0.370845 -0.189751
v 0.30001 -4.0564 -0.76691
vn -0.867258 0.489327 -0.0917739
v 0.30001 -4.0623 -0.78022
vn -0.915475 0.36844 -0.161737
v 0.29782 -4.0623 -0.76691
vn -0.926927 0.344039 -0.149812
v 0.43624 -4.0041 -0.35822
vn -0.403421 0.772132 -0.490982
v 0.34542 -3.959 -0.31281
vn 0.0912996 0.391035 -0.915836
v 0.34542 -3.9488 -0.3112
vn -0.0237041 0.409478 -0.912012
v 0.85304 -3.9488 -1.0394
vn -0.31569 -0.253486 0.914377
v 0.32805 -3.9715 -0.2447
vn -0.960649 0.252211 0.116376
v 0.33418 -3.9488 -0.2447
vn -0.961179 0.259563 0.0936015
v 0.53372 -4.0396 -0.74421
vn 0.820613 0.557542 -0.125465
v 0.52932 -4.0396 -0.76691
vn 0.953486 0.292279 -0.073738
v 0.50436 -4.0169 -0.7223
vn 0.389174 0.884857 0.25607
v 0.86764 -3.9715 -1.0417
vn -0.218747 -0.269323 0.937878
v 0.89035 -3.9942 -1.0441
vn -0.207036 -0.30532 0.929471
v 0.8758 -3.9715 -1.0394
vn -0.286741 -0.33568 0.897273
v 0.86764 -3.9646 -1.0394
vn -0.277973 -0.28958 0.915901
v 0.89543 -3.9488 -1.0167
vn -0.557011 -0.489758 0.670728
v 0.89035 -3.9428 -1.0167
vn -0.584971 -0.37502 0.719144
v 0.2894 -4.0623 -0.47175
vn -0.720931 0.675228 0.155965
v 0.30001 -4.0567 -0.44904
vn -0.575212 0.803833 0.151606
v 0.29463 -4.0623 -0.44904
vn -0.716054 0.683349 0.142481
v 0.30001 -4.0608 -0.42634
vn -0.624383 0.780868 0.0197698
v 0.29865 -4.0623 -0.42634
vn -0.74042 0.671255 0.0345673
f 1//1 2//2 3//3
f 4//4 5//5 1//1
f 6//6 7//7 4//4
f 4//4 8//8 6//6
f 8//8 9//9 10//10
f 10//10 6//6 8//8
f 11//11 9//9 12//12
f 13//13 10//10 9//9
f 9//9 14//14 13//13
f 14//14 9//9 11//11
f 15//15 11//11 12//12
f 12//12 16//16 15//15
f 17//17 15//15 16//16
f 16//16 18//18 17//17
f 19//19 13//13 20//20
f 20//20 13//13 14//14
f 20//20 14//14 15//15
f 15//15 14//14 11//11
f 21//21 19//19 20//20
f 20//20 22//22 21//21
f 22//22 20//20 15//15
f 15//15 17//17 22//22
f 23//23 17//17 24//24
f 24//24 17//17 25//25
f 25//25 17//17 18//18
f 24//24 26//26 23//23
f 27//27 21//21 22//22
f 27//27 22//22 17//17
f 17//17 23//23 27//27
f 28//28 27//27 29//29
f 29//29 27//27 26//26
f 26//26 27//27 23//23
f 24//24 25//25 30//30
f 31//31 26//26 24//24
f 31//31 24//24 30//30
f 29//29 26//26 31//31
f 32//32 29//29 33//33
f 33//33 29//29 31//31
f 33//33 31//31 34//34
f 33//33 34//34 35//35
f 35//35 36//36 33//33
f 37//37 38//38 39//39
f 39//39 38//38 33//33
f 33//33 38//38 32//32
f 40//40 38//38 37//37
f 39//39 33//33 41//41
f 41//41 33//33 36//36
f 41//41 36//36 42//42
f 43//43 44//44 45//45
f 44//44 46//46 45//45
f 47//47 46//46 44//44
f 44//44 48//48 47//47
f 44//44 43//43 39//39
f 44//44 39//39 49//49
f 39//39 43//43 37//37
f 37//37 43//43 40//40
f 49//49 39//39 41//41
f 48//48 44//44 49//49
f 50//50 51//51 52//52
f 52//52 51//51 53//53
f 54//54 55//55 56//56
f 56//56 55//55 52//52
f 56//56 52//52 53//53
f 1//1 3//3 58//58
f 59//59 60//60 61//61
f 62//62 63//63 64//64
f 64//64 63//63 65//65
f 64//64 65//65 66//66
f 67//67 68//68 60//60
f 67//67 60//60 65//65
f 60//60 68//68 69//69
f 65//65 63//63 67//67
f 70//70 71//71 64//64
f 64//64 71//71 72//72
f 73//73 62//62 72//72
f 72//72 62//62 64//64
f 74//74 75//75 62//62
f 62//62 75//75 63//63
f 76//76 77//77 78//78
f 76//76 78//78 67//67
f 67//67 78//78 68//68
f 67//67 63//63 75//75
f 75//75 76//76 67//67
f 85//85 86//86 50//50
f 50//50 52//52 85//85
f 85//85 52//52 55//55
f 87//87 86//86 57//57
f 57//57 86//86 88//88
f 3//3 79//79 89//89
f 89//89 79//79 80//80
f 80//80 90//90 89//89
f 91//91 90//90 80//80
f 91//91 80//80 92//92
f 92//92 80//80 81//81
f 93//93 90//90 91//91
f 94//94 95//95 96//96
f 97//97 98//98 99//99
f 100//100 101//101 41//41
f 102//102 101//101 100//100
f 83//83 103//103 82//82
f 83//83 84//84 103//103
f 104//104 105//105 88//88
f 88//88 85//85 104//104
f 97//97 106//106 104//104
f 104//104 106//106 105//105
f 107//107 98//98 55//55
f 55//55 54//54 107//107
f 55//55 104//104 85//85
f 104//104 55//55 97//97
f 97//97 55//55 98//98
f 57//57 88//88 108//108
f 108//108 88//88 105//105
f 108//108 105//105 106//106
f 93//93 109//109 96//96
f 3//3 89//89 58//58
f 58//58 89//89 95//95
f 96//96 95//95 89//89
f 96//96 89//89 93//93
f 93//93 89//89 90//90
f 92//92 110//110 91//91
f 82//82 103//103 111//111
f 82//82 111//111 92//92
f 92//92 111//111 110//110
f 91//91 110//110 112//112
f 91//91 112//112 93//93
f 93//93 112//112 109//109
f 112//112 110//110 111//111
f 111//111 113//113 112//112
f 92//92 81//81 82//82
f 94//94 114//114 99//99
f 96//96 109//109 115//115
f 96//96 115//115 94//94
f 94//94 115//115 114//114
f 58//58 95//95 94//94
f 58//58 94//94 99//99
f 58//58 99//99 98//98
f 58//58 98//98 107//107
f 115//115 109//109 112//112
f 111//111 103//103 84//84
f 84//84 116//116 111//111
f 113//113 111//111 116//116
f 116//116 117//117 113//113
f 117//117 116//116 118//118
f 118//118 119//119 117//117
f 118//118 120//120 121//121
f 121//121 122//122 118//118
f 122//122 121//121 123//123
f 123//123 121//121 124//124
f 119//119 118//118 122//122
f 122//122 125//125 119//119
f 125//125 122//122 123//123
f 123//123 126//126 125//125
f 127//127 119//119 125//125
f 128//128 129//129 130//130
f 131//131 130//130 132//132
f 132//132 130//130 129//129
f 133//133 134//134 131//131
f 131//131 134//134 130//130
f 135//135 136//136 137//137
f 138//138 139//139 140//140
f 141//141 138//138 140//140
f 142//142 143//143 138//138
f 144//144 145//145 136//136
f 144//144 136//136 135//135
f 146//146 145//145 147//147
f 148//148 149//149 150//150
f 150//150 101//101 148//148
f 41//41 101//101 150//150
f 123//123 124//124 151//151
f 153//153 151//151 152//152
f 154//154 155//155 156//156
f 157//157 158//158 159//159
f 159//159 158//158 160//160
f 161//161 154//154 156//156
f 162//162 157//157 159//159
f 85//85 88//88 86//86
f 151//151 163//163 123//123
f 163//163 151//151 153//153
f 164//164 162//162 165//165
f 165//165 162//162 166//166
f 167//167 164//164 168//168
f 168//168 164//164 165//165
f 169//169 161//161 170//170
f 170//170 161//161 171//171
f 172//172 157//157 162//162
f 173//173 174//174 157//157
f 157//157 172//172 173//173
f 175//175 172//172 164//164
f 164//164 172//172 162//162
f 175//175 173//173 172//172
f 176//176 170//170 173//173
f 173//173 170//170 174//174
f 177//177 169//169 176//176
f 176//176 169//169 170//170
f 178//178 177//177 176//176
f 161//161 169//169 179//179
f 180//180 181//181 182//182
f 183//183 180//180 184//184
f 184//184 180//180 182//182
f 185//185 186//186 187//187
f 188//188 183//183 187//187
f 189//189 179//179 177//177
f 177//177 179//179 169//169
f 190//190 186//186 189//189
f 189//189 186//186 179//179
f 191//191 190//190 189//189
f 189//189 192//192 191//191
f 193//193 187//187 186//186
f 186//186 190//190 193//193
f 194//194 188//188 193//193
f 193//193 188//188 187//187
f 195//195 193//193 190//190
f 190//190 191//191 195//195
f 196//196 194//194 193//193
f 193//193 195//195 196//196
f 197//197 198//198 199//199
f 199//199 198//198 175//175
f 199//199 175//175 164//164
f 199//199 164//164 167//167
f 200//200 199//199 167//167
f 201//201 202//202 181//181
f 181//181 180//180 201//201
f 203//203 201//201 180//180
f 180//180 183//183 203//203
f 204//204 205//205 201//201
f 201//201 203//203 204//204
f 206//206 203//203 188//188
f 188//188 203//203 183//183
f 207//207 204//204 206//206
f 206//206 204//204 203//203
f 208//208 209//209 204//204
f 204//204 209//209 205//205
f 210//210 211//211 208//208
f 208//208 211//211 209//209
f 212//212 208//208 207//207
f 207//207 208//208 204//204
f 213//213 210//210 208//208
f 208//208 212//212 213//213
f 214//214 206//206 188//188
f 188//188 194//194 214//214
f 215//215 207//207 214//214
f 214//214 207//207 206//206
f 216//216 214//214 194//194
f 194//194 196//196 216//216
f 217//217 215//215 214//214
f 214//214 216//216 217//217
f 218//218 212//212 215//215
f 215//215 212//212 207//207
f 219//219 213//213 212//212
f 212//212 218//218 219//219
f 220//220 218//218 217//217
f 217//217 218//218 215//215
f 221//221 219//219 220//220
f 220//220 219//219 218//218
f 213//213 222//222 210//210
f 223//223 216//216 196//196
f 224//224 217//217 223//223
f 223//223 217//217 216//216
f 225//225 220//220 224//224
f 224//224 220//220 217//217
f 226//226 221//221 220//220
f 220//220 225//225 226//226
f 227//227 225//225 224//224
f 228//228 226//226 225//225
f 225//225 227//227 228//228
f 221//221 226//226 229//229
f 230//230 229//229 226//226
f 226//226 228//228 230//230
f 229//229 230//230 231//231
f 232//232 230//230 228//228
f 244//244 245//245 246//246
f 247//247 248//248 249//249
f 250//250 251//251 252//252
f 241//241 240//240 253//253
f 254//254 71//71 253//253
f 253//253 71//71 250//250
f 253//253 250//250 252//252
f 255//255 253//253 240//240
f 240//240 242//242 255//255
f 256//256 254//254 253//253
f 253//253 255//255 256//256
f 257//257 150//150 258//258
f 258//258 150//150 149//149
f 49//49 41//41 150//150
f 49//49 150//150 257//257
f 257//257 259//259 49//49
f 260//260 47//47 48//48
f 156//156 155//155 261//261
f 102//102 148//148 101//101
f 262//262 255//255 242//242
f 242//242 243//243 262//262
f 263//263 256//256 262//262
f 262//262 256//256 255//255
f 264//264 262//262 265//265
f 265//265 262//262 243//243
f 266//266 263//263 264//264
f 264//264 263//263 262//262
f 267//267 264//264 268//268
f 268//268 264//264 265//265
f 269//269 270//270 264//264
f 269//269 264//264 267//267
f 264//264 270//270 266//266
f 271//271 270//270 269//269
f 272//272 267//267 268//268
f 268//268 273//273 272//272
f 274//274 269//269 267//267
f 267//267 272//272 274//274
f 275//275 271//271 269//269
f 269//269 274//274 275//275
f 276//276 272//272 273//273
f 273//273 277//277 276//276
f 278//278 274//274 272//272
f 272//272 276//276 278//278
f 279//279 275//275 274//274
f 274//274 278//278 279//279
f 280//280 276//276 281//281
f 281//281 276//276 277//277
f 282//282 278//278 276//276
f 276//276 280//280 282//282
f 283//283 279//279 278//278
f 278//278 282//282 283//283
f 284//284 282//282 280//280
f 280//280 285//285 284//284
f 286//286 283//283 282//282
f 282//282 284//284 286//286
f 287//287 284//284 288//288
f 288//288 284//284 285//285
f 289//289 286//286 287//287
f 287//287 286//286 284//284
f 156//156 171//171 161//161
f 290//290 288//288 291//291
f 291//291 292//292 290//290
f 293//293 287//287 290//290
f 290//290 287//287 288//288
f 294//294 289//289 293//293
f 293//293 289//289 287//287
f 295//295 290//290 292//292
f 296//296 293//293 295//295
f 295//295 293//293 290//290
f 296//296 294//294 293//293
f 295//295 297//297 296//296
f 296//296 297//297 298//298
f 299//299 297//297 300//300
f 299//299 301//301 297//297
f 302//302 299//299 303//303
f 303//303 299//299 300//300
f 304//304 303//303 305//305
f 306//306 305//305 307//307
f 308//308 309//309 304//304
f 308//308 304//304 305//305
f 308//308 305//305 306//306
f 310//310 309//309 308//308
f 304//304 302//302 303//303
f 311//311 306//306 307//307
f 73//73 312//312 313//313
f 314//314 315//315 266//266
f 266//266 270//270 314//314
f 316//316 317//317 318//318
f 165//165 166//166 317//317
f 317//317 316//316 165//165
f 279//279 283//283 319//319
f 320//320 319//319 283//283
f 283//283 286//286 320//320
f 319//319 320//320 321//321
f 322//322 320//320 289//289
f 289//289 320//320 286//286
f 323//323 321//321 322//322
f 322//322 321//321 320//320
f 324//324 168//168 325//325
f 326//326 167//167 324//324
f 324//324 167//167 168//168
f 321//321 323//323 327//327
f 328//328 329//329 330//330
f 330//330 327//327 328//328
f 331//331 324//324 325//325
f 325//325 329//329 331//331
f 332//332 326//326 324//324
f 324//324 331//331 332//332
f 333//333 331//331 329//329
f 329//329 328//328 333//333
f 334//334 173//173 175//175
f 178//178 176//176 334//334
f 334//334 176//176 173//173
f 335//335 177//177 178//178
f 192//192 189//189 335//335
f 335//335 189//189 177//177
f 198//198 197//197 336//336
f 175//175 198//198 337//337
f 337//337 334//334 175//175
f 199//199 200//200 338//338
f 167//167 326//326 200//200
f 334//334 337//337 178//178
f 178//178 337//337 339//339
f 178//178 339//339 335//335
f 340//340 338//338 200//200
f 340//340 200//200 332//332
f 332//332 200//200 326//326
f 341//341 342//342 343//343
f 341//341 343//343 344//344
f 345//345 344//344 346//346
f 347//347 341//341 345//345
f 345//345 341//341 344//344
f 140//140 139//139 341//341
f 341//341 139//139 342//342
f 348//348 140//140 347//347
f 347//347 140//140 341//341
f 140//140 348//348 141//141
f 128//128 345//345 346//346
f 134//134 349//349 347//347
f 134//134 347//347 345//345
f 134//134 345//345 128//128
f 347//347 349//349 350//350
f 350//350 348//348 347//347
f 298//298 294//294 296//296
f 351//351 322//322 289//289
f 289//289 294//294 351//351
f 352//352 323//323 322//322
f 322//322 351//351 352//352
f 301//301 351//351 294//294
f 294//294 298//298 301//301
f 353//353 352//352 301//301
f 301//301 352//352 351//351
f 297//297 301//301 298//298
f 354//354 353//353 301//301
f 301//301 355//355 354//354
f 356//356 355//355 302//302
f 357//357 327//327 352//352
f 352//352 327//327 323//323
f 357//357 328//328 327//327
f 353//353 357//357 352//352
f 304//304 358//358 302//302
f 302//302 358//358 356//356
f 138//138 141//141 142//142
f 359//359 349//349 134//134
f 133//133 359//359 134//134
f 360//360 350//350 349//349
f 349//349 359//359 360//360
f 361//361 362//362 142//142
f 361//361 142//142 360//360
f 360//360 142//142 141//141
f 360//360 141//141 350//350
f 137//137 136//136 360//360
f 137//137 360//360 359//359
f 137//137 359//359 133//133
f 360//360 136//136 361//361
f 363//363 364//364 233//233
f 365//365 366//366 364//364
f 364//364 363//363 365//365
f 367//367 368//368 369//369
f 367//367 369//369 370//370
f 368//368 367//367 371//371
f 372//372 367//367 373//373
f 373//373 367//367 374//374
f 374//374 367//367 370//370
f 372//372 371//371 367//367
f 266//266 315//315 263//263
f 375//375 332//332 331//331
f 331//331 333//333 375//375
f 376//376 338//338 340//340
f 377//377 376//376 378//378
f 378//378 376//376 340//340
f 378//378 340//340 375//375
f 375//375 340//340 332//332
f 379//379 328//328 357//357
f 380//380 357//357 353//353
f 381//381 379//379 380//380
f 380//380 379//379 357//357
f 379//379 333//333 328//328
f 382//382 380//380 353//353
f 383//383 358//358 304//304
f 304//304 309//309 383//383
f 375//375 384//384 378//378
f 385//385 74//74 62//62
f 317//317 386//386 318//318
f 318//318 386//386 387//387
f 128//128 130//130 134//134
f 355//355 301//301 299//299
f 302//302 355//355 299//299
f 388//388 354//354 355//355
f 355//355 356//356 388//388
f 389//389 333//333 379//379
f 381//381 389//389 379//379
f 353//353 354//354 382//382
f 390//390 381//381 382//382
f 382//382 381//381 380//380
f 391//391 382//382 354//354
f 354//354 388//388 391//391
f 391//391 390//390 382//382
f 392//392 358//358 383//383
f 393//393 388//388 358//358
f 393//393 358//358 392//392
f 358//358 388//388 356//356
f 383//383 394//394 392//392
f 393//393 391//391 388//388
f 396//396 346//346 397//397
f 397//397 129//129 396//396
f 398//398 399//399 400//400
f 400//400 401//401 398//398
f 401//401 400//400 402//402
f 402//402 400//400 403//403
f 404//404 398//398 401//401
f 401//401 405//405 404//404
f 405//405 401//401 402//402
f 402//402 406//406 405//405
f 407//407 408//408 409//409
f 407//407 410//410 408//408
f 409//409 408//408 411//411
f 411//411 412//412 409//409
f 411//411 408//408 413//413
f 413//413 408//408 410//410
f 414//414 415//415 403//403
f 415//415 414//414 416//416
f 416//416 417//417 415//415
f 402//402 403//403 418//418
f 418//418 403//403 415//415
f 418//418 415//415 417//417
f 417//417 419//419 418//418
f 420//420 421//421 417//417
f 420//420 417//417 416//416
f 420//420 416//416 412//412
f 422//422 423//423 421//421
f 421//421 420//420 422//422
f 419//419 417//417 424//424
f 424//424 417//417 421//421
f 424//424 421//421 425//425
f 425//425 421//421 423//423
f 412//412 411//411 420//420
f 420//420 411//411 413//413
f 413//413 422//422 420//420
f 426//426 427//427 368//368
f 410//410 395//395 364//364
f 364//364 366//366 410//410
f 413//413 410//410 51//51
f 51//51 410//410 366//366
f 428//428 53//53 51//51
f 428//428 51//51 365//365
f 365//365 51//51 366//366
f 429//429 430//430 422//422
f 422//422 430//430 423//423
f 50//50 430//430 429//429
f 425//425 423//423 430//430
f 430//430 86//86 425//425
f 50//50 86//86 430//430
f 422//422 413//413 429//429
f 429//429 413//413 51//51
f 429//429 51//51 50//50
f 431//431 365//365 363//363
f 363//363 432//432 431//431
f 433//433 428//428 365//365
f 365//365 431//431 433//433
f 434//434 431//431 432//432
f 434//434 432//432 435//435
f 436//436 437//437 426//426
f 426//426 437//437 427//427
f 433//433 56//56 428//428
f 406//406 402//402 438//438
f 438//438 402//402 418//418
f 438//438 418//418 419//419
f 419//419 439//439 438//438
f 439//439 419//419 440//440
f 440//440 419//419 424//424
f 440//440 424//424 425//425
f 425//425 441//441 440//440
f 441//441 425//425 86//86
f 86//86 87//87 441//441
f 371//371 426//426 368//368
f 373//373 374//374 442//442
f 443//443 371//371 372//372
f 444//444 373//373 442//442
f 445//445 372//372 373//373
f 373//373 444//444 445//445
f 446//446 443//443 372//372
f 372//372 445//445 446//446
f 447//447 445//445 444//444
f 444//444 448//448 447//447
f 449//449 446//446 445//445
f 445//445 447//447 449//449
f 450//450 436//436 426//426
f 426//426 371//371 450//450
f 451//451 450//450 443//443
f 443//443 450//450 371//371
f 452//452 451//451 446//446
f 446//446 451//451 443//443
f 453//453 452//452 449//449
f 449//449 452//452 446//446
f 454//454 448//448 237//237
f 454//454 237//237 455//455
f 237//237 448//448 234//234
f 456//456 447//447 448//448
f 448//448 454//454 456//456
f 457//457 449//449 447//447
f 447//447 456//456 457//457
f 458//458 459//459 460//460
f 460//460 459//459 455//455
f 455//455 459//459 454//454
f 461//461 459//459 458//458
f 462//462 457//457 461//461
f 461//461 457//457 459//459
f 459//459 457//457 456//456
f 463//463 464//464 465//465
f 59//59 463//463 465//465
f 460//460 464//464 458//458
f 246//246 245//245 463//463
f 463//463 245//245 461//461
f 463//463 461//461 464//464
f 464//464 461//461 458//458
f 461//461 245//245 466//466
f 466//466 462//462 461//461
f 61//61 246//246 463//463
f 463//463 59//59 61//61
f 467//467 466//466 245//245
f 245//245 244//244 467//467
f 69//69 244//244 246//246
f 246//246 61//61 69//69
f 68//68 467//467 69//69
f 69//69 467//467 244//244
f 468//468 453//453 457//457
f 457//457 453//453 449//449
f 467//467 68//68 78//78
f 70//70 469//469 250//250
f 250//250 469//469 251//251
f 66//66 60//60 469//469
f 469//469 60//60 59//59
f 65//65 60//60 66//66
f 64//64 66//66 469//469
f 469//469 70//70 64//64
f 61//61 60//60 69//69
f 250//250 71//71 70//70
f 470//470 72//72 254//254
f 254//254 72//72 71//71
f 73//73 72//72 470//470
f 313//313 62//62 73//73
f 471//471 470//470 254//254
f 254//254 256//256 471//471
f 472//472 312//312 471//471
f 471//471 312//312 470//470
f 470//470 312//312 73//73
f 62//62 313//313 385//385
f 473//473 312//312 472//472
f 474//474 385//385 473//473
f 473//473 385//385 312//312
f 312//312 385//385 313//313
f 315//315 471//471 263//263
f 263//263 471//471 256//256
f 475//475 472//472 315//315
f 315//315 472//472 471//471
f 476//476 477//477 315//315
f 476//476 315//315 314//314
f 315//315 477//477 475//475
f 478//478 477//477 476//476
f 314//314 270//270 479//479
f 314//314 479//479 476//476
f 480//480 479//479 271//271
f 271//271 479//479 270//270
f 481//481 478//478 476//476
f 481//481 476//476 479//479
f 481//481 479//479 480//480
f 482//482 480//480 271//271
f 271//271 275//275 482//482
f 483//483 481//481 480//480
f 480//480 482//482 483//483
f 484//484 473//473 472//472
f 472//472 475//475 484//484
f 485//485 474//474 473//473
f 473//473 484//484 485//485
f 475//475 477//477 484//484
f 387//387 485//485 477//477
f 387//387 477//477 478//478
f 477//477 485//485 484//484
f 318//318 387//387 481//481
f 481//481 387//387 478//478
f 486//486 318//318 481//481
f 481//481 483//483 486//486
f 318//318 486//486 316//316
f 487//487 482//482 275//275
f 275//275 279//279 487//487
f 488//488 483//483 487//487
f 487//487 483//483 482//482
f 319//319 487//487 279//279
f 489//489 488//488 487//487
f 487//487 319//319 489//489
f 321//321 489//489 319//319
f 490//490 486//486 483//483
f 483//483 488//488 490//490
f 491//491 316//316 486//486
f 486//486 490//490 491//491
f 492//492 490//490 489//489
f 489//489 490//490 488//488
f 325//325 491//491 490//490
f 490//490 492//492 325//325
f 168//168 165//165 491//491
f 491//491 165//165 316//316
f 325//325 168//168 491//491
f 330//330 492//492 321//321
f 321//321 492//492 489//489
f 329//329 325//325 330//330
f 330//330 325//325 492//492
f 327//327 330//330 321//321
f 336//336 337//337 198//198
f 338//338 197//197 199//199
f 493//493 336//336 197//197
f 197//197 338//338 493//493
f 494//494 339//339 336//336
f 336//336 339//339 337//337
f 495//495 496//496 494//494
f 494//494 496//496 339//339
f 335//335 339//339 496//496
f 497//497 494//494 336//336
f 336//336 493//493 497//497
f 498//498 495//495 494//494
f 494//494 497//497 498//498
f 499//499 493//493 338//338
f 338//338 376//376 499//499
f 500//500 499//499 376//376
f 376//376 377//377 500//500
f 501//501 497//497 499//499
f 499//499 497//497 493//493
f 502//502 498//498 501//501
f 501//501 498//498 497//497
f 503//503 501//501 499//499
f 499//499 500//500 503//503
f 504//504 502//502 501//501
f 501//501 503//503 504//504
f 505//505 506//506 496//496
f 496//496 495//495 505//505
f 507//507 508//508 505//505
f 505//505 508//508 506//506
f 335//335 496//496 506//506
f 506//506 192//192 335//335
f 192//192 506//506 191//191
f 191//191 506//506 508//508
f 509//509 505//505 498//498
f 498//498 505//505 495//495
f 510//510 507//507 505//505
f 505//505 509//509 510//510
f 511//511 508//508 507//507
f 512//512 195//195 511//511
f 511//511 195//195 191//191
f 511//511 191//191 508//508
f 513//513 196//196 195//195
f 195//195 512//512 513//513
f 514//514 515//515 510//510
f 510//510 515//515 511//511
f 510//510 511//511 507//507
f 516//516 515//515 514//514
f 511//511 515//515 512//512
f 517//517 513//513 516//516
f 516//516 513//513 515//515
f 515//515 513//513 512//512
f 518//518 509//509 498//498
f 498//498 502//502 518//518
f 519//519 510//510 518//518
f 518//518 510//510 509//509
f 520//520 518//518 504//504
f 504//504 518//518 502//502
f 521//521 522//522 518//518
f 521//521 518//518 520//520
f 518//518 522//522 519//519
f 523//523 522//522 521//521
f 524//524 514//514 519//519
f 519//519 514//514 510//510
f 525//525 516//516 514//514
f 514//514 524//524 525//525
f 526//526 517//517 516//516
f 516//516 525//525 526//526
f 519//519 522//522 527//527
f 527//527 524//524 519//519
f 524//524 527//527 525//525
f 528//528 527//527 522//522
f 522//522 523//523 528//528
f 529//529 526//526 525//525
f 529//529 525//525 528//528
f 528//528 525//525 527//527
f 196//196 513//513 223//223
f 530//530 223//223 513//513
f 513//513 517//517 530//530
f 531//531 224//224 530//530
f 530//530 224//224 223//223
f 224//224 531//531 227//227
f 532//532 530//530 517//517
f 517//517 526//526 532//532
f 533//533 532//532 526//526
f 526//526 529//529 533//533
f 532//532 533//533 534//534
f 346//346 396//396 128//128
f 307//307 305//305 535//535
f 383//383 309//309 394//394
f 536//536 394//394 310//310
f 310//310 394//394 309//309
f 537//537 393//393 392//392
f 537//537 392//392 394//394
f 537//537 394//394 536//536
f 538//538 539//539 311//311
f 311//311 539//539 306//306
f 306//306 539//539 308//308
f 540//540 539//539 538//538
f 541//541 308//308 539//539
f 541//541 539//539 540//540
f 542//542 543//543 343//343
f 343//343 543//543 540//540
f 343//343 540//540 538//538
f 540//540 543//543 541//541
f 541//541 543//543 544//544
f 545//545 536//536 310//310
f 310//310 541//541 545//545
f 546//546 537//537 545//545
f 545//545 537//537 536//536
f 541//541 544//544 545//545
f 545//545 544//544 547//547
f 545//545 547//547 546//546
f 546//546 547//547 548//548
f 549//549 544//544 543//543
f 550//550 547//547 544//544
f 544//544 549//549 550//550
f 551//551 548//548 547//547
f 547//547 550//550 551//551
f 552//552 553//553 546//546
f 546//546 553//553 537//537
f 554//554 555//555 552//552
f 552//552 555//555 553//553
f 546//546 548//548 556//556
f 556//556 552//552 546//546
f 552//552 556//556 554//554
f 557//557 558//558 554//554
f 559//559 556//556 551//551
f 551//551 556//556 548//548
f 560//560 500//500 561//561
f 561//561 500//500 384//384
f 384//384 500//500 377//377
f 561//561 384//384 562//562
f 563//563 503//503 500//500
f 500//500 560//560 563//563
f 564//564 504//504 503//503
f 503//503 563//563 564//564
f 565//565 563//563 560//560
f 566//566 564//564 563//563
f 563//563 567//567 566//566
f 568//568 569//569 567//567
f 567//567 569//569 566//566
f 566//566 569//569 570//570
f 571//571 569//569 568//568
f 571//571 568//568 572//572
f 571//571 572//572 573//573
f 574//574 570//570 571//571
f 571//571 570//570 569//569
f 573//573 575//575 571//571
f 571//571 575//575 576//576
f 577//577 574//574 571//571
f 577//577 571//571 578//578
f 578//578 571//571 576//576
f 578//578 576//576 579//579
f 580//580 520//520 504//504
f 504//504 564//564 580//580
f 581//581 521//521 580//580
f 580//580 521//521 520//520
f 582//582 523//523 581//581
f 581//581 523//523 521//521
f 583//583 580//580 564//564
f 564//564 566//566 583//583
f 584//584 585//585 583//583
f 583//583 585//585 581//581
f 583//583 581//581 580//580
f 586//586 528//528 582//582
f 582//582 528//528 523//523
f 586//586 529//529 528//528
f 587//587 585//585 584//584
f 588//588 583//583 589//589
f 589//589 583//583 566//566
f 589//589 566//566 570//570
f 589//589 570//570 574//574
f 577//577 589//589 574//574
f 343//343 342//342 542//542
f 590//590 591//591 592//592
f 592//592 549//549 590//590
f 593//593 592//592 594//594
f 549//549 592//592 595//595
f 595//595 550//550 549//549
f 550//550 595//595 551//551
f 551//551 595//595 596//596
f 593//593 595//595 592//592
f 597//597 596//596 595//595
f 551//551 596//596 559//559
f 596//596 597//597 598//598
f 599//599 593//593 600//600
f 600//600 601//601 599//599
f 602//602 603//603 604//604
f 605//605 391//391 393//393
f 553//553 605//605 537//537
f 537//537 605//605 393//393
f 606//606 468//468 457//457
f 606//606 457//457 462//462
f 607//607 608//608 385//385
f 385//385 474//474 607//607
f 609//609 607//607 485//485
f 485//485 607//607 474//474
f 386//386 609//609 387//387
f 387//387 609//609 485//485
f 610//610 611//611 605//605
f 555//555 610//610 553//553
f 553//553 610//610 605//605
f 612//612 613//613 611//611
f 611//611 610//610 612//612
f 146//146 614//614 362//362
f 433//433 615//615 616//616
f 617//617 618//618 452//452
f 453//453 617//617 452//452
f 397//397 346//346 619//619
f 132//132 129//129 397//397
f 348//348 350//350 141//141
f 614//614 600//600 142//142
f 142//142 600//600 143//143
f 620//620 600//600 614//614
f 142//142 362//362 614//614
f 625//625 626//626 213//213
f 625//625 627//627 626//626
f 628//628 625//625 213//213
f 213//213 219//219 628//628
f 629//629 630//630 631//631
f 632//632 633//633 630//630
f 630//630 629//629 632//632
f 621//621 622//622 634//634
f 637//637 638//638 639//639
f 640//640 641//641 616//616
f 616//616 641//641 639//639
f 639//639 641//641 637//637
f 637//637 107//107 638//638
f 635//635 621//621 642//642
f 642//642 621//621 634//634
f 434//434 437//437 431//431
f 615//615 644//644 645//645
f 646//646 647//647 645//645
f 648//648 649//649 617//617
f 617//617 649//649 618//618
f 650//650 648//648 617//617
f 1//1 58//58 651//651
f 641//641 1//1 651//651
f 651//651 58//58 107//107
f 652//652 653//653 603//603
f 603//603 653//653 654//654
f 655//655 628//628 219//219
f 655//655 602//602 628//628
f 656//656 603//603 602//602
f 656//656 652//652 603//603
f 657//657 658//658 659//659
f 660//660 658//658 652//652
f 652//652 658//658 653//653
f 660//660 659//659 658//658
f 661//661 660//660 652//652
f 643//643 635//635 642//642
f 642//642 662//662 643//643
f 636//636 643//643 662//662
f 662//662 663//663 636//636
f 624//624 636//636 663//663
f 663//663 664//664 624//624
f 623//623 624//624 664//664
f 649//649 645//645 644//644
f 644//644 618//618 649//649
f 645//645 649//649 646//646
f 665//665 646//646 648//648
f 648//648 646//646 649//649
f 666//666 648//648 650//650
f 248//248 667//667 665//665
f 248//248 665//665 648//648
f 248//248 648//648 666//666
f 16//16 12//12 646//646
f 646//646 665//665 16//16
f 668//668 650//650 468//468
f 468//468 669//669 670//670
f 670//670 668//668 468//468
f 671//671 249//249 650//650
f 671//671 650//650 668//668
f 650//650 249//249 666//666
f 666//666 249//249 248//248
f 672//672 670//670 669//669
f 669//669 673//673 672//672
f 674//674 249//249 671//671
f 675//675 676//676 674//674
f 675//675 674//674 671//671
f 675//675 671//671 672//672
f 672//672 671//671 670//670
f 674//674 676//676 247//247
f 673//673 677//677 672//672
f 672//672 677//677 678//678
f 679//679 677//677 680//680
f 681//681 682//682 679//679
f 679//679 682//682 677//677
f 677//677 682//682 678//678
f 683//683 684//684 679//679
f 679//679 684//684 681//681
f 672//672 678//678 675//675
f 675//675 678//678 682//682
f 685//685 686//686 687//687
f 687//687 686//686 682//682
f 688//688 689//689 690//690
f 690//690 689//689 691//691
f 683//683 691//691 689//689
f 692//692 688//688 693//693
f 693//693 688//688 690//690
f 694//694 695//695 608//608
f 608//608 695//695 693//693
f 696//696 697//697 694//694
f 694//694 697//697 695//695
f 698//698 694//694 608//608
f 608//608 607//607 698//698
f 699//699 696//696 694//694
f 694//694 698//698 699//699
f 693//693 695//695 692//692
f 700//700 695//695 697//697
f 699//699 701//701 696//696
f 701//701 700//700 697//697
f 702//702 698//698 609//609
f 609//609 698//698 607//607
f 160//160 699//699 698//698
f 698//698 702//702 160//160
f 703//703 702//702 386//386
f 386//386 702//702 609//609
f 159//159 160//160 702//702
f 702//702 703//703 159//159
f 166//166 703//703 386//386
f 386//386 317//317 166//166
f 162//162 159//159 166//166
f 166//166 159//159 703//703
f 222//222 626//626 704//704
f 704//704 626//626 627//627
f 213//213 626//626 222//222
f 219//219 221//221 655//655
f 705//705 602//602 655//655
f 706//706 656//656 705//705
f 705//705 656//656 602//602
f 706//706 707//707 656//656
f 656//656 707//707 708//708
f 709//709 531//531 530//530
f 530//530 532//532 709//709
f 534//534 709//709 532//532
f 710//710 227//227 531//531
f 531//531 709//709 710//710
f 711//711 228//228 227//227
f 227//227 710//710 711//711
f 712//712 710//710 709//709
f 709//709 534//534 712//712
f 713//713 711//711 712//712
f 712//712 711//711 710//710
f 714//714 705//705 655//655
f 231//231 714//714 229//229
f 715//715 706//706 705//705
f 705//705 714//714 715//715
f 716//716 717//717 715//715
f 715//715 717//717 706//706
f 718//718 715//715 714//714
f 714//714 231//231 718//718
f 228//228 711//711 232//232
f 719//719 231//231 230//230
f 720//720 232//232 713//713
f 713//713 232//232 711//711
f 721//721 719//719 232//232
f 232//232 720//720 721//721
f 722//722 718//718 719//719
f 719//719 718//718 231//231
f 723//723 722//722 719//719
f 719//719 721//721 723//723
f 724//724 659//659 660//660
f 725//725 726//726 659//659
f 725//725 659//659 727//727
f 728//728 729//729 659//659
f 728//728 659//659 724//724
f 659//659 729//729 727//727
f 730//730 729//729 728//728
f 661//661 731//731 660//660
f 661//661 652//652 708//708
f 660//660 731//731 732//732
f 732//732 724//724 660//660
f 708//708 707//707 661//661
f 724//724 732//732 728//728
f 733//733 731//731 661//661
f 734//734 732//732 731//731
f 731//731 733//733 734//734
f 735//735 733//733 661//661
f 735//735 661//661 707//707
f 735//735 707//707 736//736
f 735//735 734//734 733//733
f 737//737 730//730 734//734
f 734//734 730//730 728//728
f 734//734 728//728 732//732
f 738//738 730//730 737//737
f 739//739 717//717 716//716
f 739//739 735//735 717//717
f 717//717 735//735 736//736
f 740//740 375//375 333//333
f 333//333 389//389 740//740
f 741//741 740//740 742//742
f 742//742 740//740 389//389
f 743//743 741//741 744//744
f 744//744 741//741 742//742
f 562//562 384//384 375//375
f 562//562 375//375 740//740
f 745//745 562//562 740//740
f 740//740 741//741 745//745
f 572//572 562//562 745//745
f 746//746 745//745 741//741
f 741//741 743//743 746//746
f 747//747 746//746 743//743
f 579//579 576//576 748//748
f 749//749 750//750 751//751
f 749//749 579//579 748//748
f 752//752 534//534 533//533
f 533//533 753//753 752//752
f 754//754 712//712 752//752
f 752//752 712//712 534//534
f 754//754 713//713 712//712
f 645//645 616//616 615//615
f 647//647 640//640 616//616
f 616//616 645//645 647//647
f 8//8 4//4 755//755
f 646//646 755//755 647//647
f 755//755 9//9 8//8
f 668//668 670//670 671//671
f 247//247 249//249 674//674
f 247//247 676//676 756//756
f 757//757 676//676 675//675
f 757//757 756//756 676//676
f 675//675 682//682 686//686
f 675//675 686//686 757//757
f 758//758 759//759 760//760
f 761//761 762//762 763//763
f 758//758 764//764 765//765
f 766//766 247//247 756//756
f 258//258 149//149 764//764
f 769//769 770//770 700//700
f 701//701 697//697 696//696
f 699//699 771//771 701//701
f 772//772 773//773 774//774
f 772//772 774//774 771//771
f 775//775 769//769 700//700
f 775//775 700//700 701//701
f 701//701 771//771 775//775
f 775//775 771//771 774//774
f 765//765 764//764 148//148
f 765//765 148//148 767//767
f 148//148 764//764 149//149
f 776//776 772//772 158//158
f 174//174 776//776 158//158
f 158//158 157//157 174//174
f 772//772 776//776 171//171
f 170//170 171//171 174//174
f 174//174 171//171 776//776
f 777//777 554//554 556//556
f 777//777 556//556 559//559
f 778//778 586//586 585//585
f 778//778 585//585 587//587
f 586//586 778//778 779//779
f 587//587 780//780 778//778
f 778//778 780//780 779//779
f 779//779 780//780 781//781
f 751//751 750//750 782//782
f 783//783 595//595 593//593
f 559//559 596//596 784//784
f 559//559 784//784 777//777
f 616//616 639//639 433//433
f 785//785 107//107 637//637
f 786//786 1//1 641//641
f 786//786 641//641 640//640
f 1//1 786//786 4//4
f 107//107 785//785 651//651
f 755//755 786//786 647//647
f 647//647 786//786 640//640
f 755//755 4//4 786//786
f 12//12 755//755 646//646
f 12//12 9//9 755//755
f 687//687 760//760 759//759
f 765//765 768//768 759//759
f 765//765 759//759 758//758
f 158//158 787//787 160//160
f 788//788 743//743 613//613
f 789//789 788//788 612//612
f 612//612 788//788 613//613
f 790//790 612//612 555//555
f 555//555 612//612 610//610
f 791//791 792//792 612//612
f 791//791 612//612 790//790
f 612//612 792//792 789//789
f 793//793 792//792 791//791
f 555//555 558//558 794//794
f 794//794 790//790 555//555
f 790//790 794//794 791//791
f 572//572 565//565 561//561
f 572//572 561//561 562//562
f 573//573 572//572 745//745
f 745//745 746//746 573//573
f 743//743 788//788 747//747
f 795//795 575//575 746//746
f 795//795 746//746 747//747
f 746//746 575//575 573//573
f 748//748 575//575 795//795
f 796//796 584//584 583//583
f 796//796 780//780 587//587
f 796//796 587//587 584//584
f 782//782 750//750 788//788
f 782//782 788//788 789//789
f 788//788 750//750 747//747
f 747//747 750//750 795//795
f 789//789 792//792 782//782
f 749//749 748//748 750//750
f 750//750 748//748 795//795
f 797//797 782//782 793//793
f 793//793 782//782 792//792
f 798//798 579//579 749//749
f 799//799 578//578 798//798
f 798//798 578//578 579//579
f 595//595 783//783 597//597
f 753//753 533//533 529//529
f 800//800 16//16 665//665
f 800//800 665//665 667//667
f 800//800 667//667 801//801
f 804//804 802//802 805//805
f 247//247 800//800 801//801
f 554//554 558//558 555//555
f 777//777 806//806 554//554
f 554//554 806//806 557//557
f 567//567 563//563 568//568
f 568//568 563//563 565//565
f 568//568 565//565 572//572
f 581//581 585//585 582//582
f 807//807 529//529 586//586
f 585//585 586//586 582//582
f 779//779 807//807 586//586
f 583//583 588//588 796//796
f 529//529 807//807 753//753
f 779//779 753//753 807//807
f 681//681 684//684 687//687
f 146//146 147//147 808//808
f 637//637 641//641 785//785
f 785//785 641//641 651//651
f 639//639 638//638 433//433
f 56//56 638//638 54//54
f 638//638 107//107 54//54
f 618//618 644//644 451//451
f 452//452 618//618 451//451
f 462//462 466//466 606//606
f 611//611 390//390 391//391
f 613//613 744//744 390//390
f 390//390 611//611 613//613
f 613//613 743//743 744//744
f 605//605 611//611 391//391
f 136//136 145//145 361//361
f 361//361 145//145 809//809
f 615//615 433//433 431//431
f 615//615 431//431 437//437
f 615//615 437//437 436//436
f 433//433 638//638 56//56
f 644//644 615//615 436//436
f 436//436 450//450 644//644
f 451//451 644//644 450//450
f 650//650 617//617 453//453
f 810//810 811//811 815//815
f 468//468 650//650 453//453
f 606//606 669//669 468//468
f 673//673 669//669 606//606
f 742//742 389//389 381//381
f 744//744 742//742 390//390
f 390//390 742//742 381//381
f 809//809 362//362 361//361
f 146//146 362//362 809//809
f 824//824 816//816 826//826
f 826//826 816//816 817//817
f 826//826 817//817 818//818
f 818//818 827//827 826//826
f 825//825 824//824 826//826
f 826//826 828//828 825//825
f 828//828 826//826 829//829
f 829//829 826//826 827//827
f 399//399 825//825 400//400
f 400//400 825//825 828//828
f 400//400 828//828 403//403
f 403//403 828//828 829//829
f 827//827 818//818 819//819
f 819//819 830//830 827//827
f 830//830 819//819 831//831
f 829//829 827//827 830//830
f 830//830 414//414 829//829
f 414//414 830//830 831//831
f 831//831 416//416 414//414
f 409//409 831//831 407//407
f 407//407 831//831 820//820
f 407//407 821//821 822//822
f 412//412 416//416 831//831
f 822//822 395//395 410//410
f 822//822 410//410 407//407
f 403//403 829//829 414//414
f 680//680 677//677 606//606
f 680//680 606//606 467//467
f 467//467 606//606 466//466
f 606//606 677//677 673//673
f 78//78 680//680 467//467
f 832//832 679//679 680//680
f 680//680 78//78 832//832
f 683//683 679//679 832//832
f 833//833 834//834 74//74
f 74//74 834//834 75//75
f 693//693 834//834 833//833
f 690//690 691//691 76//76
f 76//76 691//691 77//77
f 78//78 77//77 832//832
f 832//832 77//77 691//691
f 691//691 683//683 832//832
f 76//76 75//75 690//690
f 690//690 75//75 834//834
f 693//693 690//690 834//834
f 608//608 833//833 74//74
f 74//74 385//385 608//608
f 608//608 693//693 833//833
f 604//604 627//627 625//625
f 653//653 835//835 836//836
f 836//836 654//654 653//653
f 603//603 654//654 604//604
f 604//604 654//654 627//627
f 602//602 604//604 625//625
f 708//708 652//652 656//656
f 837//837 707//707 706//706
f 736//736 707//707 837//837
f 706//706 717//717 837//837
f 837//837 717//717 736//736
f 658//658 657//657 835//835
f 835//835 653//653 658//658
f 116//116 84//84 120//120
f 120//120 118//118 116//116
f 127//127 125//125 838//838
f 838//838 125//125 126//126
f 839//839 127//127 838//838
f 126//126 123//123 163//163
f 163//163 840//840 126//126
f 840//840 163//163 841//841
f 841//841 163//163 153//153
f 838//838 126//126 840//840
f 840//840 842//842 838//838
f 842//842 840//840 841//841
f 841//841 843//843 842//842
f 839//839 838//838 844//844
f 844//844 838//838 842//842
f 844//844 842//842 843//843
f 843//843 845//845 844//844
f 846//846 627//627 847//847
f 654//654 836//836 627//627
f 627//627 836//836 847//847
f 625//625 628//628 602//602
f 229//229 655//655 221//221
f 655//655 229//229 714//714
f 848//848 716//716 715//715
f 715//715 718//718 848//848
f 230//230 232//232 719//719
f 261//261 155//155 849//849
f 849//849 850//850 261//261
f 851//851 852//852 853//853
f 853//853 852//852 854//854
f 853//853 854//854 855//855
f 856//856 852//852 161//161
f 161//161 852//852 851//851
f 161//161 851//851 154//154
f 185//185 854//854 856//856
f 856//856 854//854 852//852
f 179//179 856//856 161//161
f 186//186 185//185 856//856
f 856//856 179//179 186//186
f 182//182 857//857 854//854
f 854//854 857//857 855//855
f 182//182 181//181 857//857
f 184//184 182//182 185//185
f 185//185 182//182 854//854
f 187//187 184//184 185//185
f 187//187 183//183 184//184
f 205//205 858//858 201//201
f 201//201 858//858 202//202
f 222//222 211//211 210//210
f 851//851 853//853 859//859
f 853//853 860//860 859//859
f 860//860 849//849 859//859
f 849//849 155//155 859//859
f 155//155 154//154 859//859
f 154//154 851//851 859//859
f 42//42 100//100 41//41
f 100//100 42//42 102//102
f 774//774 861//861 775//775
f 775//775 861//861 769//769
f 561//561 565//565 560//560
f 758//758 760//760 863//863
f 767//767 768//768 765//765
f 787//787 771//771 699//699
f 772//772 771//771 787//787
f 160//160 787//787 699//699
f 158//158 772//772 787//787
f 56//56 53//53 428//428
f 687//687 682//682 681//681
f 811//811 814//814 815//815
f 815//815 865//865 810//810
f 865//865 815//815 864//864
f 812//812 810//810 865//865
f 865//865 866//866 812//812
f 766//766 867//867 868//868
f 868//868 867//867 34//34
f 34//34 31//31 868//868
f 871//871 631//631 870//870
f 631//631 871//871 629//629
f 831//831 819//819 820//820
f 407//407 820//820 821//821
f 831//831 409//409 412//412
f 872//872 823//823 869//869
f 872//872 869//869 813//813
f 813//813 869//869 870//870
f 873//873 872//872 814//814
f 814//814 872//872 813//813
f 813//813 870//870 631//631
f 442//442 235//235 444//444
f 448//448 444//444 235//235
f 235//235 234//234 448//448
f 455//455 237//237 236//236
f 460//460 455//455 238//238
f 238//238 455//455 236//236
f 454//454 459//459 456//456
f 465//465 464//464 239//239
f 239//239 464//464 460//460
f 239//239 460//460 238//238
f 874//874 465//465 239//239
f 239//239 875//875 874//874
f 465//465 874//874 59//59
f 876//876 877//877 878//878
f 251//251 874//874 876//876
f 876//876 874//874 877//877
f 877//877 874//874 875//875
f 469//469 59//59 874//874
f 874//874 251//251 469//469
f 252//252 876//876 241//241
f 241//241 876//876 878//878
f 252//252 251//251 876//876
f 253//253 252//252 241//241
f 378//378 384//384 377//377
f 542//542 342//342 139//139
f 542//542 139//139 590//590
f 590//590 139//139 591//591
f 879//879 791//791 794//794
f 593//593 599//599 880//880
f 599//599 601//601 881//881
f 862//862 812//812 866//866
f 862//862 866//866 882//882
f 883//883 145//145 144//144
f 145//145 883//883 884//884
f 885//885 886//886 47//47
f 47//47 886//886 46//46
f 261//261 885//885 260//260
f 260//260 885//885 47//47
f 156//156 260//260 772//772
f 156//156 261//261 260//260
f 171//171 156//156 772//772
f 396//396 129//129 128//128
f 590//590 543//543 542//542
f 543//543 590//590 549//549
f 143//143 594//594 138//138
f 138//138 594//594 139//139
f 139//139 594//594 591//591
f 594//594 592//592 591//591
f 600//600 594//594 143//143
f 600//600 593//593 594//594
f 620//620 601//601 600//600
f 861//861 259//259 770//770
f 770//770 769//769 861//861
f 258//258 770//770 257//257
f 257//257 770//770 259//259
f 48//48 49//49 861//861
f 861//861 49//49 259//259
f 773//773 887//887 774//774
f 260//260 48//48 887//887
f 260//260 887//887 773//773
f 772//772 260//260 773//773
f 774//774 887//887 861//861
f 861//861 887//887 48//48
f 863//863 760//760 683//683
f 683//683 760//760 684//684
f 687//687 684//684 760//760
f 687//687 759//759 685//685
f 761//761 689//689 688//688
f 689//689 863//863 683//683
f 763//763 764//764 761//761
f 761//761 764//764 689//689
f 689//689 764//764 758//758
f 689//689 758//758 863//863
f 700//700 762//762 761//761
f 700//700 761//761 688//688
f 700//700 688//688 692//692
f 692//692 695//695 700//700
f 764//764 763//763 258//258
f 700//700 770//770 762//762
f 763//763 762//762 770//770
f 770//770 258//258 763//763
f 864//864 888//888 865//865
f 890//890 888//888 864//864
f 890//890 864//864 803//803
f 803//803 864//864 889//889
f 803//803 802//802 890//890
f 882//882 866//866 865//865
f 882//882 865//865 891//891
f 891//891 865//865 888//888
f 891//891 804//804 882//882
f 882//882 804//804 862//862
f 891//891 888//888 890//890
f 890//890 802//802 804//804
f 890//890 804//804 891//891
f 892//892 805//805 802//802
f 893//893 804//804 805//805
f 893//893 805//805 892//892
f 146//146 620//620 614//614
f 808//808 620//620 146//146
f 809//809 145//145 146//146
f 884//884 147//147 145//145
f 884//884 808//808 147//147
f 292//292 894//894 295//295
f 895//895 295//295 894//894
f 894//894 896//896 895//895
f 300//300 297//297 895//895
f 895//895 297//297 295//295
f 897//897 895//895 896//896
f 896//896 898//898 897//897
f 303//303 300//300 895//895
f 895//895 897//897 303//303
f 305//305 897//897 535//535
f 535//535 897//897 898//898
f 305//305 303//303 897//897
f 541//541 310//310 308//308
