# Created by Open3D 
# object name: cluster27
# number of vertices: 771
# number of triangles: 1329
v -2.5809 1.2507 0.50457
vn 0.65848 -0.751685 -0.0370657
v -2.5835 1.2507 0.48187
vn 0.630104 -0.77315 -0.0721692
v -2.5608 1.2692 0.48187
vn 0.651422 -0.757626 -0.0406416
v -2.5608 1.269 0.50457
vn 0.678636 -0.734356 -0.0132132
v -2.5799 1.2507 0.52728
vn 0.68423 -0.729259 -0.00311301
v -2.5608 1.2689 0.52728
vn 0.691284 -0.722363 0.0178235
v -2.5807 1.2507 0.54998
vn 0.683871 -0.728745 0.0353614
v -2.5608 1.2699 0.54998
vn 0.694168 -0.719471 0.0221813
v -2.5831 1.2507 0.57269
vn 0.658647 -0.749378 0.0679514
v -2.5608 1.2703 0.57269
vn 0.674669 -0.73682 0.0437995
v -2.6062 1.2379 0.6181
vn 0.48848 -0.872044 0.0304348
v -2.6062 1.2372 0.5954
vn 0.508453 -0.861075 0.00499287
v -2.5835 1.2507 0.61194
vn 0.505307 -0.862937 -0.00189988
v -2.5835 1.2504 0.6181
vn 0.465555 -0.884828 0.0184066
v -2.5843 1.2507 0.5954
vn 0.524762 -0.85087 -0.0253856
v -2.583 1.2507 0.6181
vn 0.585238 -0.810858 0.0023331
v -2.5835 1.2512 0.5954
vn 0.529734 -0.847777 -0.0256261
v -2.5835 1.2507 0.57712
vn 0.659004 -0.749784 0.0594782
v -2.6062 1.2393 0.64081
vn 0.448335 -0.89294 0.0406633
v -2.5835 1.2504 0.64081
vn 0.442534 -0.896711 0.00855849
v -2.6062 1.2411 0.66351
vn 0.418437 -0.906452 0.0570613
v -2.5835 1.2507 0.64955
vn 0.508036 -0.860627 0.034928
v -2.5846 1.2507 0.66351
vn 0.409649 -0.911672 0.0322808
v -2.5831 1.2507 0.64081
vn 0.586972 -0.809578 0.00689439
v -2.5835 1.2513 0.66351
vn 0.567056 -0.82292 0.0353679
v -2.5608 1.2668 0.6181
vn 0.587411 -0.809283 0.00307711
v -2.5608 1.2669 0.64081
vn 0.585601 -0.810551 0.00882641
v -2.5608 1.2671 0.66351
vn 0.578315 -0.815619 0.0177989
v -2.5608 1.2822 -0.085759
vn 0.665697 -0.745906 0.0217259
v -2.5608 1.2815 -0.10846
vn 0.647558 -0.761167 0.0359811
v -2.5449 1.2961 -0.085759
vn 0.650884 -0.758343 0.0355867
v -2.5432 1.2961 -0.10846
vn 0.637734 -0.768775 0.0477555
v -2.5608 1.2824 -0.063054
vn 0.681768 -0.73154 0.00644494
v -2.5461 1.2961 -0.063054
vn 0.669618 -0.742409 0.020965
v -2.5608 1.2816 -0.017643
vn 0.670549 -0.741051 -0.0347358
v -2.5608 1.2823 -0.040349
vn 0.679334 -0.733481 -0.0226123
v -2.5459 1.2961 -0.040349
vn 0.672712 -0.739269 -0.0306544
v -2.5446 1.2961 -0.017643
vn 0.660646 -0.749129 -0.0484989
v -2.5608 1.2803 0.0050616
vn 0.655536 -0.75366 -0.0476377
v -2.5424 1.2961 0.0050616
vn 0.697164 -0.715101 -0.0509192
v -2.5608 1.2792 0.027767
vn 0.64718 -0.762003 -0.0225709
v -2.5408 1.2961 0.027767
vn 0.696419 -0.717492 -0.0143416
v -2.5608 1.2796 0.050472
vn 0.638049 -0.769752 0.0193715
v -2.5407 1.2961 0.050472
vn 0.687453 -0.725825 0.0242189
v -2.5424 1.2961 0.073177
vn 0.745154 -0.664481 0.0566702
v -2.5448 1.2961 0.095882
vn 0.827242 -0.558865 0.0578054
v -2.5454 1.2961 0.11859
vn 0.82373 -0.566707 -0.0176951
v -2.5437 1.2961 0.14129
vn 0.824229 -0.562882 -0.0617237
v -2.5608 1.2727 0.34564
vn 0.446871 -0.894047 -0.0313907
v -2.5608 1.2734 0.32571
vn 0.446882 -0.894042 -0.0314064
v -2.5594 1.2734 0.34564
vn 0.446871 -0.894047 -0.0313907
v -2.5608 1.2735 0.32293
vn 0.447408 -0.89375 -0.0321931
v -2.561 1.2734 0.32293
vn 0.447408 -0.89375 -0.0321931
v -2.5381 1.2756 0.95868
vn 0.873305 -0.476305 -0.102337
v -2.5381 1.2734 0.96892
vn 0.873305 -0.476305 -0.102337
v -2.5393 1.2734 0.95868
vn 0.873305 -0.476305 -0.102337
v -2.5608 1.2501 1.1403
vn 0.554384 -0.83163 -0.0324
v -2.5608 1.2507 1.1249
vn 0.530689 -0.846907 -0.0334276
v -2.5599 1.2507 1.1403
vn 0.554384 -0.83163 -0.0324
v -2.5608 1.251 1.1176
vn 0.446912 -0.893824 -0.0367239
v -2.5614 1.2507 1.1176
vn 0.446912 -0.893824 -0.0367239
v -2.5383 1.2734 1.163
vn 0.89448 -0.447107 0
v -2.5381 1.2734 1.1536
vn 0.894318 -0.447026 0.0190312
v -2.5381 1.2738 1.163
vn 0.89448 -0.447107 0
v -2.5381 1.2734 1.1726
vn 0.894325 -0.447029 -0.0186348
v -2.5946 1.228 1.2538
vn 0.475444 -0.879587 -0.0167535
v -2.5942 1.228 1.2311
vn 0.476005 -0.879406 0.00806691
v -2.5835 1.234 1.2538
vn 0.472141 -0.881343 -0.0178316
v -2.5835 1.2338 1.2311
vn 0.476535 -0.879122 0.00774221
v -2.5926 1.228 1.2765
vn 0.467587 -0.882756 -0.0458739
v -2.5835 1.2327 1.2765
vn 0.458287 -0.887351 -0.0508167
v -2.5314 1.2734 1.3901
vn 0.898431 -0.438693 0.0192546
v -2.5325 1.2734 1.4128
vn 0.888905 -0.458068 0.00463534
v -2.5381 1.2633 1.4128
vn 0.87378 -0.484475 0.042344
v -2.5312 1.2734 1.4355
vn 0.883737 -0.46328 -0.0661848
v -2.629 1.2143 1.6171
vn 0.440822 -0.873977 -0.204549
v -2.6062 1.228 1.6069
vn 0.451037 -0.872443 -0.188174
v -2.6062 1.2258 1.6171
vn 0.449626 -0.869714 -0.203552
v -2.6025 1.228 1.6171
vn 0.420184 -0.87839 -0.227763
v -2.6062 1.2203 1.6398
vn 0.40513 -0.897167 -0.175955
v -2.5888 1.228 1.6398
vn 0.393545 -0.894588 -0.21174
v -2.6062 1.2183 1.6625
vn 0.356392 -0.933801 -0.0316273
v -2.5835 1.228 1.6518
vn 0.36992 -0.922567 -0.109675
v -2.5835 1.2269 1.6625
vn 0.360051 -0.93277 0.0173841
v -2.5835 1.2302 1.6398
vn 0.377995 -0.91063 -0.166952
v -2.5816 1.228 1.6625
vn 0.501066 -0.865408 -0.00149865
v -2.6062 1.2195 1.6852
vn 0.352138 -0.933809 0.0632466
v -2.5835 1.2279 1.6852
vn 0.348998 -0.936124 0.0432687
v -2.6062 1.2213 1.7079
vn 0.365677 -0.927829 0.0735746
v -2.5892 1.228 1.7079
vn 0.354299 -0.931403 0.0834338
v -2.5835 1.228 1.6863
vn 0.34547 -0.934024 0.0908322
v -2.5834 1.228 1.6852
vn 0.51476 -0.856432 0.0393351
v -2.629 1.2088 1.2084
vn 0.355301 -0.933948 -0.0387705
v -2.6382 1.2053 1.2084
vn 0.352412 -0.935245 -0.0334965
v -2.6339 1.2082 1.1857
vn 0.355088 -0.933387 -0.0519784
v -2.6352 1.2053 1.2538
vn 0.346572 -0.937744 -0.0229013
v -2.6321 1.207 1.2311
vn 0.351024 -0.936053 -0.0242245
v -2.5835 1.2866 -0.38093
vn 0.202449 -0.977773 -0.0545428
v -2.5608 1.2919 -0.38093
vn 0.253625 -0.96491 -0.0679991
v -2.5835 1.2856 -0.35822
vn 0.143326 -0.985857 -0.0868492
v -2.5608 1.2891 -0.35822
vn 0.235629 -0.966962 -0.097275
v -2.5835 1.2834 -0.33552
vn 0.14033 -0.985209 -0.0983447
v -2.5608 1.2863 -0.33552
vn 0.309322 -0.946054 -0.0964494
v -2.5497 1.2961 -0.35822
vn 0.534117 -0.839334 -0.101181
v -2.5455 1.2961 -0.33552
vn 0.533801 -0.84176 -0.0806051
v -2.5835 1.2806 -0.31281
vn 0.17424 -0.980649 -0.0892687
v -2.5608 1.2845 -0.31281
vn 0.3396 -0.937207 -0.0794649
v -2.5422 1.2961 -0.31281
vn 0.528014 -0.846641 -0.0663376
v -2.5835 1.2787 -0.29011
vn 0.185702 -0.980324 -0.0669245
v -2.5608 1.283 -0.29011
vn 0.251615 -0.965893 -0.0611667
v -2.5835 1.2775 -0.2674
vn 0.196364 -0.979674 -0.0409909
v -2.5608 1.2819 -0.2674
vn 0.190188 -0.981213 -0.032412
v -2.5835 1.2764 -0.2447
vn 0.221766 -0.974335 -0.0386183
v -2.5608 1.2815 -0.2447
vn 0.33117 -0.943201 -0.0264404
v -2.5381 1.2961 -0.24792
vn 0.546492 -0.834708 0.0678983
v -2.5385 1.2961 -0.2447
vn 0.546492 -0.834708 0.0678983
v -2.5835 1.2755 -0.22199
vn 0.227321 -0.973629 -0.0192949
v -2.5608 1.2808 -0.22199
vn 0.408878 -0.91251 -0.0120394
v -2.541 1.2961 -0.22199
vn 0.611445 -0.791287 -7.88332e-05
v -2.5835 1.2755 -0.19929
vn 0.221865 -0.974774 0.0243306
v -2.5608 1.2806 -0.19929
vn 0.400208 -0.915399 0.0433419
v -2.5419 1.2961 -0.19929
vn 0.626272 -0.779125 0.0273477
v -2.5835 1.2774 -0.17658
vn 0.218555 -0.972774 0.0771015
v -2.5608 1.2825 -0.17658
vn 0.329104 -0.941844 0.0679761
v -2.5835 1.279 -0.15387
vn 0.202749 -0.979221 0.00431223
v -2.5608 1.2837 -0.15387
vn 0.202746 -0.979222 -0.00431352
v -2.5835 1.278 -0.13117
vn 0.211934 -0.975159 -0.0644193
v -2.5608 1.2823 -0.13117
vn 0.309312 -0.950018 -0.042341
v -2.5835 1.2753 -0.10846
vn 0.289226 -0.956139 -0.0463256
v -2.585 1.2734 -0.085759
vn 0.312257 -0.949982 -0.00550202
v -2.5846 1.2734 -0.063054
vn 0.312257 -0.949982 -0.00550202
v -2.6062 1.2663 -0.063054
vn 0.312257 -0.949982 -0.00550202
v -2.5835 1.274 -0.085759
vn 0.339608 -0.94012 -0.0289865
v -2.5835 1.2739 -0.063054
vn 0.346606 -0.93799 -0.00616826
v -2.6062 1.2647 -0.017643
vn 0.320261 -0.947232 -0.0135595
v -2.6062 1.2653 -0.040349
vn 0.328579 -0.944147 -0.0249431
v -2.5835 1.2732 -0.040349
vn 0.326702 -0.944741 -0.0270419
v -2.5835 1.2725 -0.017643
vn 0.324887 -0.945524 -0.0208226
v -2.5827 1.2734 -0.040349
vn 0.376155 -0.925575 -0.0426517
v -2.5835 1.2734 -0.047627
vn 0.362467 -0.931806 -0.0188584
v -2.5801 1.2734 -0.017643
vn 0.385598 -0.922062 -0.0334076
v -2.6062 1.265 0.0050616
vn 0.302312 -0.953126 0.0125859
v -2.5835 1.2722 0.0050616
vn 0.309934 -0.950754 -0.00279376
v -2.5835 1.272 0.027767
vn 0.302333 -0.953193 -0.00419632
v -2.6062 1.2648 0.027767
vn 0.309919 -0.950697 -0.0111659
v -2.5785 1.2734 0.0050616
vn 0.372984 -0.92735 -0.0300697
v -2.5779 1.2734 0.027767
vn 0.334449 -0.942385 -0.00738864
v -2.6062 1.2642 0.050472
vn 0.339716 -0.940427 -0.0138087
v -2.5835 1.272 0.050472
vn 0.317481 -0.94826 -0.00278641
v -2.6062 1.2634 0.073177
vn 0.37322 -0.927599 -0.0163412
v -2.5835 1.2724 0.073177
vn 0.354278 -0.935124 -0.00549235
v -2.5785 1.2734 0.050472
vn 0.348078 -0.936713 0.0375589
v -2.5803 1.2734 0.073177
vn 0.379503 -0.925024 0.0175502
v -2.5608 1.2814 0.073177
vn 0.497628 -0.865987 0.0493147
v -2.6062 1.263 0.095882
vn 0.38254 -0.923796 -0.0162726
v -2.5835 1.2724 0.095882
vn 0.370912 -0.928643 -0.00681594
v -2.5835 1.2723 0.11859
vn 0.347047 -0.937845 0.00206572
v -2.6062 1.2635 0.11859
vn 0.361452 -0.932382 -0.00410664
v -2.5806 1.2734 0.095882
vn 0.412925 -0.910576 0.0185247
v -2.5608 1.2828 0.095882
vn 0.538644 -0.842366 0.0168234
v -2.5803 1.2734 0.11859
vn 0.415239 -0.909556 -0.0168356
v -2.5608 1.2826 0.11859
vn 0.545034 -0.837957 -0.0276833
v -2.5835 1.2725 0.14129
vn 0.332359 -0.943071 -0.0124603
v -2.6062 1.2645 0.14129
vn 0.324942 -0.945669 -0.0111061
v -2.6062 1.2643 0.164
vn 0.309928 -0.950723 -0.00837411
v -2.5835 1.2717 0.164
vn 0.32116 -0.946796 -0.0208463
v -2.5802 1.2734 0.14129
vn 0.376988 -0.925762 -0.0290564
v -2.5608 1.2813 0.14129
vn 0.537947 -0.841869 -0.0432512
v -2.5768 1.2734 0.164
vn 0.372529 -0.925001 -0.0747984
v -2.5608 1.2798 0.164
vn 0.576892 -0.814937 -0.0554438
v -2.5426 1.2961 0.164
vn 0.709334 -0.704164 -0.0315868
v -2.5835 1.2671 0.20941
vn 0.347296 -0.934949 -0.0724941
v -2.6062 1.2619 0.1867
vn 0.308632 -0.946749 -0.0917154
v -2.5835 1.2693 0.1867
vn 0.308632 -0.946749 -0.0917154
v -2.57 1.2734 0.1867
vn 0.386386 -0.919323 -0.0745011
v -2.5608 1.2781 0.1867
vn 0.646647 -0.761846 -0.0379376
v -2.5422 1.2961 0.1867
vn 0.715631 -0.697954 -0.0270489
v -2.5673 1.2734 0.20941
vn 0.405341 -0.913235 -0.0412406
v -2.5608 1.2776 0.20941
vn 0.672761 -0.739711 -0.0148376
v -2.5413 1.2961 0.20941
vn 0.699323 -0.714621 -0.016258
v -2.5835 1.2653 0.23211
vn 0.393031 -0.917494 -0.0610898
v -2.6062 1.2582 0.20941
vn 0.364028 -0.928474 -0.0736211
v -2.5663 1.2734 0.23211
vn 0.469611 -0.881883 -0.0418031
v -2.5608 1.2775 0.23211
vn 0.679065 -0.733947 -0.0139125
v -2.5408 1.2961 0.23211
vn 0.708552 -0.705654 -0.00245116
v -2.5835 1.2634 0.25482
vn 0.452906 -0.891033 -0.0306018
v -2.5643 1.2734 0.25482
vn 0.491082 -0.870706 -0.0266129
v -2.5608 1.2763 0.25482
vn 0.703749 -0.709945 -0.0267583
v -2.5412 1.2961 0.25482
vn 0.725042 -0.688643 -0.00924597
v -2.6062 1.2513 0.27752
vn 0.464243 -0.88557 -0.0156073
v -2.6062 1.2517 0.25482
vn 0.461197 -0.887221 -0.011725
v -2.5835 1.2632 0.27752
vn 0.459124 -0.888343 -0.0071619
v -2.5835 1.2633 0.30023
vn 0.450492 -0.892709 -0.0113358
v -2.6062 1.2513 0.30023
vn 0.467326 -0.884031 -0.0097355
v -2.5633 1.2734 0.27752
vn 0.471198 -0.881925 -0.0134397
v -2.5608 1.2754 0.27752
vn 0.706869 -0.706856 -0.0262739
v -2.5408 1.2961 0.27752
vn 0.745371 -0.666142 -0.0260356
v -2.5624 1.2734 0.30023
vn 0.448118 -0.893674 -0.0231969
v -2.5608 1.2746 0.30023
vn 0.709138 -0.704344 -0.031973
v -2.5395 1.2961 0.30023
vn 0.735817 -0.676241 -0.0356505
v -2.5835 1.2627 0.32293
vn 0.439191 -0.898084 -0.0236039
v -2.5386 1.2961 0.32293
vn 0.727638 -0.68526 -0.030997
v -2.5835 1.2622 0.34564
vn 0.425305 -0.904768 -0.0226066
v -2.5381 1.2961 0.33496
vn 0.855511 -0.516114 -0.0415472
v -2.5381 1.2956 0.34564
vn 0.730349 -0.682957 -0.0126754
v -2.5835 1.2615 0.36834
vn 0.451603 -0.891412 -0.0379492
v -2.5608 1.2724 0.36834
vn 0.428928 -0.903205 -0.0155363
v -2.5587 1.2734 0.36834
vn 0.717263 -0.696788 -0.00445863
v -2.5381 1.2958 0.36834
vn 0.738095 -0.674611 0.0107725
v -2.5835 1.2595 0.39105
vn 0.504668 -0.861351 -0.0581729
v -2.5608 1.2722 0.39105
vn 0.468572 -0.882864 -0.0314995
v -2.5585 1.2734 0.39105
vn 0.725455 -0.688262 -0.00318812
v -2.5381 1.2961 0.3769
vn 0.853933 -0.520364 0.00447838
v -2.5385 1.2961 0.39105
vn 0.754689 -0.656082 0.00141042
v -2.538 1.2961 0.36834
vn 0.959371 -0.282099 -0.0052006
v -2.5379 1.2961 0.34564
vn 0.963125 -0.26904 -0.00277715
v -2.5381 1.2973 0.32293
vn 0.970656 -0.239457 -0.0220629
v -2.5381 1.2967 0.39105
vn 0.946982 -0.321222 0.00644415
v -2.5835 1.2573 0.41375
vn 0.54934 -0.833175 -0.0636015
v -2.5608 1.2718 0.41375
vn 0.519206 -0.853707 -0.0401322
v -2.5581 1.2734 0.41375
vn 0.73437 -0.678578 -0.0152347
v -2.5386 1.2961 0.41375
vn 0.770636 -0.637269 -0.00291645
v -2.5835 1.2551 0.43646
vn 0.579558 -0.812092 -0.0679624
v -2.5608 1.271 0.43646
vn 0.558153 -0.828236 -0.0498994
v -2.5571 1.2734 0.43646
vn 0.748615 -0.662608 -0.0229176
v -2.5392 1.2961 0.43646
vn 0.802369 -0.596828 0.000427161
v -2.5835 1.2529 0.45916
vn 0.606741 -0.792832 -0.0573002
v -2.5608 1.2697 0.45916
vn 0.59171 -0.805097 -0.0412076
v -2.5557 1.2734 0.45916
vn 0.7989 -0.6012 0.0177797
v -2.5399 1.2961 0.45916
vn 0.829664 -0.555661 0.0538281
v -2.5835 1.2507 0.48155
vn 0.630613 -0.772481 -0.0748333
v -2.5564 1.2734 0.48187
vn 0.828144 -0.558647 0.0457163
v -2.5422 1.2961 0.48187
vn 0.844754 -0.529314 0.0788499
v -2.5381 1.297 0.41375
vn 0.944363 -0.328737 0.0105123
v -2.5381 1.2981 0.43646
vn 0.944948 -0.326581 0.0204607
v -2.557 1.2734 0.50457
vn 0.861636 -0.507313 0.0146975
v -2.5452 1.2961 0.50457
vn 0.870379 -0.488276 0.0634489
v -2.557 1.2734 0.52728
vn 0.872664 -0.488302 0.00423164
v -2.546 1.2961 0.52728
vn 0.879514 -0.475871 -0.0012181
v -2.5578 1.2734 0.54998
vn 0.853272 -0.521196 0.0167528
v -2.5453 1.2961 0.54998
vn 0.865247 -0.500747 -0.0244968
v -2.5579 1.2734 0.57269
vn 0.83499 -0.548226 -0.0473282
v -2.5436 1.2961 0.57269
vn 0.842263 -0.534705 -0.0684323
v -2.5608 1.2685 0.5954
vn 0.627243 -0.777885 -0.0382292
v -2.5557 1.2734 0.5954
vn 0.817033 -0.572398 -0.0694074
v -2.5418 1.2961 0.5954
vn 0.855189 -0.515539 -0.0535785
v -2.5539 1.2734 0.6181
vn 0.822629 -0.567792 -0.0299115
v -2.5409 1.2961 0.6181
vn 0.867495 -0.497207 -0.0154152
v -2.5539 1.2734 0.64081
vn 0.822222 -0.569147 -0.0046525
v -2.5406 1.2961 0.64081
vn 0.861341 -0.507552 -0.0219773
v -2.5537 1.2734 0.66351
vn 0.802619 -0.594921 -0.0432613
v -2.5395 1.2961 0.66351
vn 0.847021 -0.52724 -0.0676241
v -2.5381 1.2985 0.66351
vn 0.918761 -0.391762 -0.0490001
v -2.5835 1.2517 0.68622
vn 0.521893 -0.852291 -0.0350375
v -2.5608 1.266 0.68622
vn 0.57118 -0.819711 -0.0427583
v -2.5514 1.2734 0.68622
vn 0.788562 -0.608814 -0.0866901
v -2.5381 1.2961 0.67764
vn 0.901014 -0.42703 -0.076281
v -2.5381 1.2942 0.68622
vn 0.860666 -0.502232 -0.0837651
v -2.5835 1.2507 0.70892
vn 0.499475 -0.865493 -0.0380287
v -2.5608 1.2638 0.70892
vn 0.542169 -0.83753 -0.0677928
v -2.5486 1.2734 0.70892
vn 0.759817 -0.64599 -0.0733159
v -2.5381 1.2908 0.70892
vn 0.873428 -0.481429 -0.0731437
v -2.6241 1.228 0.75433
vn 0.431959 -0.899077 -0.0712182
v -2.6062 1.2389 0.73163
vn 0.440214 -0.896003 -0.0582259
v -2.6062 1.2366 0.75433
vn 0.458923 -0.886583 -0.0579722
v -2.5835 1.249 0.75433
vn 0.474063 -0.880256 -0.0203526
v -2.5835 1.249 0.73163
vn 0.406511 -0.913646 0
v -2.58 1.2507 0.73163
vn 0.50389 -0.862515 -0.0465167
v -2.5835 1.2507 0.70898
vn 0.498208 -0.863651 -0.076782
v -2.5608 1.262 0.73163
vn 0.564667 -0.825216 -0.0130437
v -2.5467 1.2734 0.73163
vn 0.747305 -0.664379 -0.0116189
v -2.5381 1.2881 0.73163
vn 0.890184 -0.453822 -0.0402256
v -2.5805 1.2507 0.75433
vn 0.533561 -0.844615 0.0440223
v -2.5608 1.2631 0.75433
vn 0.577085 -0.815032 0.0519141
v -2.5472 1.2734 0.75433
vn 0.731296 -0.680347 0.0483132
v -2.5381 1.2875 0.75433
vn 0.865989 -0.498359 0.0412359
v -2.5362 1.2961 0.70892
vn 0.935228 -0.351582 -0.0417095
v -2.5374 1.2961 0.68622
vn 0.931264 -0.359993 -0.0561452
v -2.5353 1.2961 0.73163
vn 0.941928 -0.33505 -0.0226331
v -2.535 1.2961 0.75433
vn 0.941499 -0.33686 0.0102409
v -2.6214 1.228 0.77704
vn 0.454924 -0.890443 -0.012449
v -2.6062 1.2359 0.77704
vn 0.495559 -0.86856 0.00499002
v -2.5835 1.2499 0.77704
vn 0.523892 -0.851487 0.0225022
v -2.6221 1.228 0.79974
vn 0.465498 -0.885005 0.00880694
v -2.6062 1.2364 0.79974
vn 0.50252 -0.864517 0.00918212
v -2.5835 1.2503 0.79974
vn 0.522203 -0.852813 0.00375668
v -2.5823 1.2507 0.77704
vn 0.563193 -0.82576 0.030556
v -2.5608 1.2652 0.77704
vn 0.566188 -0.822763 0.0499254
v -2.5497 1.2734 0.77704
vn 0.741258 -0.667725 0.0684124
v -2.5381 1.2908 0.77704
vn 0.864563 -0.497805 0.0687143
v -2.5829 1.2507 0.79974
vn 0.571714 -0.820449 0.00251843
v -2.5608 1.2661 0.79974
vn 0.578702 -0.81551 0.00694242
v -2.5511 1.2734 0.79974
vn 0.770969 -0.635627 0.0398029
v -2.5381 1.2946 0.79974
vn 0.864752 -0.50077 0.037848
v -2.6225 1.228 0.82245
vn 0.462356 -0.886636 -0.0101835
v -2.6062 1.2365 0.82245
vn 0.487782 -0.872703 -0.021409
v -2.5835 1.2501 0.82245
vn 0.516642 -0.856046 -0.016335
v -2.6211 1.228 0.84515
vn 0.448868 -0.892932 -0.034499
v -2.6062 1.2354 0.84515
vn 0.476226 -0.877429 -0.057688
v -2.5835 1.2489 0.84515
vn 0.511186 -0.857431 -0.0591687
v -2.5825 1.2507 0.82245
vn 0.571199 -0.820471 -0.0236501
v -2.5608 1.2658 0.82245
vn 0.589715 -0.807077 -0.029373
v -2.5512 1.2734 0.82245
vn 0.802189 -0.596794 -0.0181482
v -2.5381 1.2954 0.82245
vn 0.865742 -0.500239 -0.0158535
v -2.5805 1.2507 0.84515
vn 0.579001 -0.813256 -0.0580706
v -2.5608 1.2649 0.84515
vn 0.5957 -0.800829 -0.0617599
v -2.5499 1.2734 0.84515
vn 0.75574 -0.651007 -0.0710505
v -2.5381 1.2931 0.84515
vn 0.873849 -0.482236 -0.0619382
v -2.5361 1.2961 0.77704
vn 0.929833 -0.365206 0.0451026
v -2.5376 1.2961 0.79974
vn 0.920609 -0.389783 0.0234049
v -2.5379 1.2961 0.82245
vn 0.918008 -0.396332 -0.0134552
v -2.537 1.2961 0.84515
vn 0.916342 -0.398196 -0.0419233
v -2.6194 1.228 0.86786
vn 0.421673 -0.905611 -0.0453883
v -2.629 1.2233 0.86786
vn 0.439483 -0.897648 -0.0328968
v -2.6062 1.2338 0.86786
vn 0.449852 -0.890371 -0.0697987
v -2.5835 1.2465 0.86786
vn 0.494308 -0.865356 -0.0825722
v -2.6166 1.228 0.89056
vn 0.397743 -0.915728 -0.0569359
v -2.6062 1.2321 0.89056
vn 0.437593 -0.897586 -0.0533975
v -2.5835 1.244 0.89056
vn 0.47129 -0.87932 -0.0684252
v -2.5769 1.2507 0.86786
vn 0.592512 -0.800816 -0.0873126
v -2.5608 1.2628 0.86786
vn 0.600647 -0.794501 -0.0893877
v -2.547 1.2734 0.86786
vn 0.738422 -0.664284 -0.116016
v -2.5381 1.289 0.86786
vn 0.892902 -0.439606 -0.0973242
v -2.5733 1.2507 0.89056
vn 0.578509 -0.812053 -0.076797
v -2.5608 1.2597 0.89056
vn 0.592672 -0.800865 -0.0857654
v -2.5428 1.2734 0.89056
vn 0.70468 -0.704684 -0.0827482
v -2.5381 1.283 0.89056
vn 0.920377 -0.38022 -0.0913228
v -2.6135 1.228 0.91327
vn 0.394274 -0.917703 -0.0486745
v -2.629 1.2205 0.91327
vn 0.434799 -0.898569 -0.0593501
v -2.6062 1.2309 0.91327
vn 0.449513 -0.892988 -0.0226014
v -2.5835 1.2429 0.91327
vn 0.487036 -0.872888 -0.0293664
v -2.6121 1.228 0.93597
vn 0.437322 -0.899191 -0.0142923
v -2.6062 1.2306 0.93597
vn 0.459657 -0.88805 -0.00906714
v -2.5835 1.2428 0.93597
vn 0.492574 -0.870215 -0.00986908
v -2.5714 1.2507 0.91327
vn 0.551951 -0.833211 -0.0333216
v -2.5706 1.2507 0.93597
vn 0.529379 -0.847963 -0.0267644
v -2.5608 1.2579 0.91327
vn 0.603411 -0.796688 -0.0343935
v -2.5412 1.2734 0.91327
vn 0.70686 -0.706866 -0.0262543
v -2.5381 1.2794 0.91327
vn 0.930779 -0.363826 -0.0357924
v -2.5608 1.2572 0.93597
vn 0.598508 -0.800011 -0.0420924
v -2.541 1.2734 0.93597
vn 0.666995 -0.744218 -0.035446
v -2.5381 1.2787 0.93597
vn 0.928199 -0.370496 -0.0343288
v -2.5357 1.2961 0.86786
vn 0.925013 -0.376299 -0.0524389
v -2.534 1.2961 0.89056
vn 0.93837 -0.340552 -0.0590427
v -2.5325 1.2961 0.91327
vn 0.948245 -0.315256 -0.0380105
v -2.5319 1.2961 0.93597
vn 0.950818 -0.30846 -0.0282386
v -2.6115 1.228 0.95868
vn 0.464313 -0.885637 -0.00783804
v -2.629 1.2183 0.95868
vn 0.489678 -0.871819 -0.0121019
v -2.6062 1.2305 0.95868
vn 0.45823 -0.888831 -0.0021147
v -2.5835 1.2425 0.95868
vn 0.477775 -0.878443 -0.00828102
v -2.629 1.2178 0.98138
vn 0.504858 -0.863136 -0.010663
v -2.6113 1.228 0.98138
vn 0.479347 -0.877611 -0.0049891
v -2.6062 1.2305 0.98138
vn 0.463876 -0.885899 0.00138541
v -2.5835 1.2425 0.98138
vn 0.468159 -0.883617 0.0068704
v -2.5687 1.2507 0.95868
vn 0.493911 -0.868877 -0.0332237
v -2.5671 1.2507 0.98138
vn 0.452819 -0.891571 -0.0075311
v -2.5608 1.2555 0.95868
vn 0.60891 -0.791427 -0.0535879
v -2.5608 1.2541 0.98138
vn 0.588995 -0.806498 -0.0514307
v -2.5381 1.2716 0.98138
vn 0.641463 -0.762568 -0.0837589
v -2.629 1.2174 1.0041
vn 0.515749 -0.856333 -0.026395
v -2.6114 1.228 1.0041
vn 0.502958 -0.864001 -0.0231308
v -2.6062 1.2306 1.0041
vn 0.480801 -0.876816 -0.00491365
v -2.5835 1.2433 1.0041
vn 0.457928 -0.888919 0.0111791
v -2.629 1.2164 1.0268
vn 0.491143 -0.869916 -0.0450049
v -2.6095 1.228 1.0268
vn 0.49574 -0.866805 -0.0537601
v -2.6062 1.2297 1.0268
vn 0.502609 -0.86296 -0.0518101
v -2.5835 1.243 1.0268
vn 0.490671 -0.870769 -0.0316713
v -2.5674 1.2507 1.0041
vn 0.428031 -0.903613 0.0165586
v -2.5686 1.2507 1.0268
vn 0.447795 -0.894135 0.00140409
v -2.5608 1.2539 1.0041
vn 0.534059 -0.84538 0.0106676
v -2.5381 1.2695 1.0041
vn 0.599467 -0.800392 -0.00346295
v -2.5608 1.2547 1.0268
vn 0.543173 -0.839291 0.0235293
v -2.5381 1.2707 1.0268
vn 0.614365 -0.788111 0.0379189
v -2.5307 1.2961 0.95868
vn 0.947554 -0.313499 -0.0621285
v -2.5368 1.2734 0.98138
vn 0.930696 -0.357079 -0.0793664
v -2.5287 1.2961 0.98138
vn 0.949329 -0.306193 -0.0708554
v -2.5351 1.2734 1.0041
vn 0.927808 -0.372559 -0.0193108
v -2.5274 1.2961 1.0041
vn 0.956779 -0.289139 -0.0311758
v -2.536 1.2734 1.0268
vn 0.920047 -0.390251 0.0349007
v -2.5275 1.2961 1.0268
vn 0.950317 -0.311189 0.00767392
v -2.629 1.2151 1.0495
vn 0.470476 -0.881247 -0.0453542
v -2.6062 1.228 1.0494
vn 0.497858 -0.86461 -0.0677224
v -2.6062 1.228 1.0495
vn 0.497686 -0.866524 -0.0380169
v -2.5835 1.2415 1.0495
vn 0.506801 -0.860541 -0.0512053
v -2.629 1.2144 1.0722
vn 0.454901 -0.890393 -0.016298
v -2.6062 1.227 1.0722
vn 0.489659 -0.871741 -0.017339
v -2.6048 1.228 1.0722
vn 0.499651 -0.865808 -0.0269459
v -2.5835 1.2402 1.0722
vn 0.50064 -0.864661 -0.0414922
v -2.568 1.2507 1.0495
vn 0.495339 -0.867848 -0.038471
v -2.5654 1.2507 1.0722
vn 0.49956 -0.865033 -0.0464454
v -2.5608 1.255 1.0495
vn 0.594597 -0.804024 -0.000741271
v -2.5381 1.2724 1.0495
vn 0.628044 -0.777514 0.0321513
v -2.5608 1.2535 1.0722
vn 0.627889 -0.777058 -0.0439988
v -2.5381 1.2725 1.0722
vn 0.644795 -0.763896 -0.0264964
v -2.629 1.2143 1.0949
vn 0.475644 -0.879615 -0.00641626
v -2.6062 1.227 1.0949
vn 0.493892 -0.869521 -0.00193846
v -2.6047 1.228 1.0949
vn 0.478386 -0.878117 -0.00750506
v -2.5835 1.2395 1.0949
vn 0.486055 -0.873618 -0.0233052
v -2.629 1.2139 1.1176
vn 0.48024 -0.876777 -0.0251487
v -2.6062 1.2269 1.1176
vn 0.497225 -0.867469 -0.0163012
v -2.6046 1.228 1.1176
vn 0.475346 -0.879663 -0.0154524
v -2.5835 1.239 1.1176
vn 0.467004 -0.883818 -0.0278042
v -2.5632 1.2507 1.0949
vn 0.483884 -0.874381 -0.0362384
v -2.5608 1.2522 1.0949
vn 0.640607 -0.766851 -0.0395238
v -2.5381 1.2715 1.0949
vn 0.664639 -0.746303 -0.0358646
v -2.5381 1.2705 1.1176
vn 0.669975 -0.742315 -0.0100795
v -2.5374 1.2734 1.0495
vn 0.913874 -0.404911 0.0296795
v -2.5277 1.2961 1.0495
vn 0.938563 -0.344944 0.0106338
v -2.5375 1.2734 1.0722
vn 0.915556 -0.40211 -0.00811665
v -2.5276 1.2961 1.0722
vn 0.938733 -0.344612 -0.00482296
v -2.5369 1.2734 1.0949
vn 0.925088 -0.379719 -0.00502081
v -2.5278 1.2961 1.0949
vn 0.937173 -0.348862 0.00137645
v -2.5364 1.2734 1.1176
vn 0.931799 -0.362834 0.0101361
v -2.5283 1.2961 1.1176
vn 0.934247 -0.356413 0.0123459
v -2.629 1.2131 1.1403
vn 0.479602 -0.876258 -0.0464065
v -2.6062 1.2261 1.1403
vn 0.500756 -0.864623 -0.0408785
v -2.6033 1.228 1.1403
vn 0.466783 -0.883334 -0.0428362
v -2.5835 1.2379 1.1403
vn 0.465024 -0.884254 -0.0429901
v -2.629 1.2118 1.163
vn 0.467597 -0.88141 -0.0668572
v -2.6062 1.2245 1.163
vn 0.496261 -0.865564 -0.0672615
v -2.6006 1.228 1.163
vn 0.470108 -0.880127 -0.0661517
v -2.5835 1.2366 1.163
vn 0.476152 -0.877122 -0.0627409
v -2.5608 1.2494 1.163
vn 0.490234 -0.870461 -0.0443667
v -2.5589 1.2507 1.163
vn 0.725239 -0.687513 -0.0368025
v -2.5381 1.2719 1.1403
vn 0.699692 -0.713829 0.0296422
v -2.629 1.2101 1.1857
vn 0.451835 -0.890007 -0.0610981
v -2.6062 1.2222 1.1857
vn 0.486662 -0.870376 -0.0748739
v -2.5967 1.228 1.1857
vn 0.47984 -0.874457 -0.071269
v -2.5835 1.2347 1.1857
vn 0.48458 -0.872577 -0.0615809
v -2.6062 1.2205 1.2084
vn 0.486367 -0.873021 -0.0358052
v -2.5938 1.228 1.2084
vn 0.481619 -0.87602 -0.0251315
v -2.5835 1.2333 1.2084
vn 0.486917 -0.873277 -0.01731
v -2.5608 1.2479 1.1857
vn 0.507853 -0.859272 -0.0611295
v -2.5568 1.2507 1.1857
vn 0.724344 -0.68557 -0.0729428
v -2.5608 1.2464 1.2084
vn 0.505576 -0.862355 -0.0271594
v -2.5543 1.2507 1.2084
vn 0.692604 -0.720145 -0.0411189
v -2.5381 1.2719 1.1857
vn 0.764628 -0.640281 -0.0733768
v -2.5381 1.2693 1.2084
vn 0.765106 -0.642656 -0.0400597
v -2.5372 1.2734 1.1403
vn 0.932539 -0.358373 0.0440346
v -2.5288 1.2961 1.1403
vn 0.931546 -0.363468 0.0105924
v -2.5281 1.2961 1.163
vn 0.917774 -0.394609 -0.0444449
v -2.5372 1.2734 1.1857
vn 0.894153 -0.443386 -0.0624423
v -2.5261 1.2961 1.1857
vn 0.9126 -0.404351 -0.0605145
v -2.5356 1.2734 1.2084
vn 0.899725 -0.43605 -0.0188474
v -2.629 1.2081 1.2311
vn 0.467888 -0.883663 -0.0148659
v -2.6062 1.2204 1.2311
vn 0.494059 -0.869407 -0.00603957
v -2.629 1.2077 1.2538
vn 0.459478 -0.887986 -0.0190044
v -2.6062 1.2204 1.2538
vn 0.500057 -0.865882 -0.0138248
v -2.5608 1.2462 1.2311
vn 0.492311 -0.870404 -0.00519688
v -2.5539 1.2507 1.2311
vn 0.715176 -0.698923 -0.00542771
v -2.5608 1.2459 1.2538
vn 0.493786 -0.869007 -0.0316634
v -2.5536 1.2507 1.2538
vn 0.723352 -0.689983 -0.0261879
v -2.5381 1.2697 1.2311
vn 0.788167 -0.61544 0.00511082
v -2.5381 1.2701 1.2538
vn 0.804279 -0.593696 -0.025695
v -2.629 1.2073 1.2765
vn 0.466487 -0.884264 -0.0216365
v -2.6062 1.2197 1.2765
vn 0.498617 -0.866326 -0.0293488
v -2.629 1.2069 1.2993
vn 0.449568 -0.892912 -0.0244262
v -2.6062 1.2188 1.2993
vn 0.481489 -0.87569 -0.0365483
v -2.59 1.228 1.2993
vn 0.472085 -0.879804 -0.0555108
v -2.5835 1.2311 1.2993
vn 0.44635 -0.892688 -0.062287
v -2.5608 1.2444 1.2765
vn 0.490207 -0.869711 -0.0574417
v -2.5517 1.2507 1.2765
vn 0.740386 -0.669926 -0.0550174
v -2.5608 1.2427 1.2993
vn 0.490561 -0.869303 -0.0605148
v -2.5497 1.2507 1.2993
vn 0.700813 -0.710403 -0.0647167
v -2.5381 1.2688 1.2765
vn 0.823995 -0.565181 -0.0400274
v -2.5381 1.2669 1.2993
vn 0.827894 -0.557106 -0.0649981
v -2.536 1.2734 1.2311
vn 0.899121 -0.437544 0.0117221
v -2.5362 1.2734 1.2538
vn 0.898924 -0.438032 -0.00792134
v -2.5356 1.2734 1.2765
vn 0.894937 -0.445252 -0.0289693
v -2.5347 1.2734 1.2993
vn 0.896299 -0.441358 -0.0430188
v -2.629 1.2065 1.322
vn 0.428778 -0.903224 -0.0183076
v -2.6062 1.2177 1.322
vn 0.461236 -0.886494 -0.0372858
v -2.5869 1.228 1.322
vn 0.450464 -0.890994 -0.0566739
v -2.5835 1.2295 1.322
vn 0.450252 -0.890476 -0.0657689
v -2.629 1.2063 1.3447
vn 0.40302 -0.915191 0.000266478
v -2.6062 1.2169 1.3447
vn 0.433294 -0.901033 -0.0198886
v -2.5835 1.228 1.343
vn 0.437424 -0.896903 -0.0650077
v -2.5835 1.2279 1.3447
vn 0.43405 -0.900837 -0.00964835
v -2.5608 1.2412 1.322
vn 0.517479 -0.853227 -0.0649521
v -2.5475 1.2507 1.322
vn 0.718326 -0.691433 -0.0770004
v -2.5834 1.228 1.3447
vn 0.445589 -0.895118 -0.0146076
v -2.5608 1.2392 1.3447
vn 0.49433 -0.86778 -0.0509456
v -2.5448 1.2507 1.3447
vn 0.670865 -0.739255 -0.0586795
v -2.5381 1.2639 1.322
vn 0.85214 -0.518002 -0.0743702
v -2.5381 1.2604 1.3447
vn 0.857825 -0.509157 -0.0699639
v -2.629 1.2065 1.3674
vn 0.407049 -0.913321 0.0124502
v -2.6062 1.2168 1.3674
vn 0.42449 -0.905195 0.0207695
v -2.5835 1.2276 1.3674
vn 0.430233 -0.902713 0.00296994
v -2.629 1.2073 1.3901
vn 0.418129 -0.907458 0.0410814
v -2.6062 1.2181 1.3901
vn 0.443491 -0.893773 0.066968
v -2.5835 1.228 1.3751
vn 0.426401 -0.902495 0.0606977
v -2.5866 1.228 1.3901
vn 0.434189 -0.895604 0.0968166
v -2.5835 1.2293 1.3901
vn 0.405498 -0.909725 0.0892808
v -2.5827 1.228 1.3674
vn 0.434638 -0.90049 -0.0144197
v -2.5608 1.2383 1.3674
vn 0.51472 -0.857345 0.00471479
v -2.5431 1.2507 1.3674
vn 0.64967 -0.760183 -0.00715443
v -2.5608 1.2395 1.3901
vn 0.471278 -0.878434 0.0790658
v -2.5443 1.2507 1.3901
vn 0.652227 -0.75539 0.063137
v -2.5381 1.2577 1.3674
vn 0.854202 -0.519781 -0.0128812
v -2.5381 1.2592 1.3901
vn 0.857422 -0.509572 0.0718631
v -2.5331 1.2734 1.322
vn 0.899261 -0.433297 -0.0598561
v -2.5314 1.2734 1.3447
vn 0.902432 -0.426824 -0.0586367
v -2.5302 1.2734 1.3674
vn 0.909007 -0.416779 -0.00154733
v -2.629 1.2083 1.4128
vn 0.446688 -0.893372 0.0485403
v -2.6062 1.22 1.4128
vn 0.472305 -0.879796 0.0537258
v -2.5918 1.228 1.4128
vn 0.452774 -0.888092 0.0792974
v -2.5835 1.2317 1.4128
vn 0.408625 -0.908285 0.08969
v -2.629 1.2091 1.4355
vn 0.462392 -0.885927 0.0364257
v -2.6062 1.2211 1.4355
vn 0.48401 -0.874337 0.0356281
v -2.5948 1.228 1.4355
vn 0.483156 -0.874 0.0518166
v -2.5835 1.2336 1.4355
vn 0.426163 -0.901498 0.075408
v -2.5608 1.242 1.4128
vn 0.469526 -0.878548 0.0877443
v -2.5482 1.2507 1.4128
vn 0.677935 -0.730227 0.0846905
v -2.5608 1.2444 1.4355
vn 0.463068 -0.882253 0.084841
v -2.551 1.2507 1.4355
vn 0.630769 -0.773034 0.0674505
v -2.5381 1.2636 1.4355
vn 0.776171 -0.63029 0.0170884
v -2.629 1.21 1.4582
vn 0.462472 -0.886084 0.0312282
v -2.6062 1.2218 1.4582
vn 0.508996 -0.860313 0.0280092
v -2.5966 1.228 1.4582
vn 0.509906 -0.859491 0.0356493
v -2.5835 1.2353 1.4582
vn 0.454438 -0.888681 0.0610953
v -2.6062 1.2225 1.4809
vn 0.496003 -0.867996 0.0237419
v -2.598 1.228 1.4809
vn 0.521462 -0.852999 0.0216655
v -2.5835 1.2364 1.4809
vn 0.485129 -0.873551 0.0394825
v -2.5608 1.2468 1.4582
vn 0.470239 -0.87896 0.0794026
v -2.554 1.2507 1.4582
vn 0.594961 -0.798582 0.0910441
v -2.5608 1.2492 1.4809
vn 0.492326 -0.869578 0.0380739
v -2.5582 1.2507 1.4809
vn 0.591219 -0.805137 0.0470627
v -2.5381 1.2639 1.4582
vn 0.712161 -0.700662 0.0435708
v -2.5381 1.2663 1.4809
vn 0.659526 -0.749594 0.0559913
v -2.5304 1.2734 1.4582
vn 0.833083 -0.552794 -0.0197889
v -2.5313 1.2734 1.4809
vn 0.786116 -0.618035 -0.00729033
v -2.6062 1.2231 1.5036
vn 0.507319 -0.861443 0.0233131
v -2.629 1.2117 1.5036
vn 0.447089 -0.894177 0.0236339
v -2.5988 1.228 1.5036
vn 0.500321 -0.865723 0.0142082
v -2.5835 1.2366 1.5036
vn 0.488584 -0.872517 -0.000443906
v -2.6062 1.2239 1.5263
vn 0.489071 -0.870184 0.0599092
v -2.5997 1.228 1.5263
vn 0.488109 -0.871795 0.0415127
v -2.5835 1.2366 1.5263
vn 0.470055 -0.882301 0.0243433
v -2.5608 1.2495 1.5036
vn 0.494488 -0.869099 -0.0121824
v -2.5587 1.2507 1.5036
vn 0.589624 -0.807462 -0.0186641
v -2.5608 1.2485 1.5263
vn 0.46712 -0.884188 0.00337658
v -2.5569 1.2507 1.5263
vn 0.574428 -0.817849 -0.0339937
v -2.5381 1.2664 1.5036
vn 0.637742 -0.76979 -0.0266144
v -2.5381 1.2644 1.5263
vn 0.635871 -0.770332 -0.0475092
v -2.6062 1.2256 1.549
vn 0.465281 -0.880706 0.0887216
v -2.629 1.214 1.549
vn 0.467163 -0.880981 0.0750372
v -2.6025 1.228 1.549
vn 0.483335 -0.872295 0.0740863
v -2.5835 1.2379 1.549
vn 0.455794 -0.887007 0.0739608
v -2.629 1.2153 1.5717
vn 0.499307 -0.8657 0.0354539
v -2.6062 1.228 1.567
vn 0.477084 -0.873535 0.0965763
v -2.6073 1.228 1.5717
vn 0.496949 -0.866446 0.048085
v -2.6062 1.2285 1.5717
vn 0.481714 -0.875187 0.0447173
v -2.5835 1.2411 1.5717
vn 0.433587 -0.8985 0.0685582
v -2.5608 1.2488 1.549
vn 0.421374 -0.90471 0.0627942
v -2.5569 1.2507 1.549
vn 0.53116 -0.846855 0.0265453
v -2.5608 1.2505 1.5717
vn 0.382038 -0.923246 0.0407937
v -2.5603 1.2507 1.5717
vn 0.491753 -0.869475 0.0468212
v -2.5381 1.2636 1.549
vn 0.627435 -0.778542 -0.0140647
v -2.5381 1.2635 1.5717
vn 0.572706 -0.819604 0.0160571
v -2.5311 1.2734 1.5036
vn 0.773918 -0.632337 -0.0346503
v -2.5294 1.2734 1.5263
vn 0.764685 -0.643091 -0.0411229
v -2.5284 1.2734 1.549
vn 0.764693 -0.643706 -0.0297758
v -2.5273 1.2734 1.5717
vn 0.756507 -0.652958 -0.0366611
v -2.629 1.2156 1.5944
vn 0.494975 -0.868199 -0.0350779
v -2.6089 1.228 1.5944
vn 0.513007 -0.858365 -0.00574599
v -2.6062 1.2294 1.5944
vn 0.489044 -0.872193 0.0107101
v -2.5835 1.2424 1.5944
vn 0.439465 -0.897997 0.0217117
v -2.5608 1.2507 1.592
vn 0.407921 -0.912574 0.0284546
v -2.5615 1.2507 1.5944
vn 0.348853 -0.931637 0.101752
v -2.5608 1.2509 1.5944
vn 0.273886 -0.958439 0.0798858
v -2.6408 1.2105 1.0457
vn 0.374289 -0.926414 -0.0408107
v -2.6374 1.2106 1.0949
vn 0.403086 -0.915106 -0.0100799
v -2.636 1.2099 1.1403
vn 0.415387 -0.908673 -0.0420309
v -2.6311 1.2065 1.2765
vn 0.358915 -0.933231 -0.0161132
v -2.6304 1.2061 1.322
vn 0.301131 -0.953504 -0.012232
v -2.6319 1.2053 1.3447
vn 0.325991 -0.94537 0.00215533
v -2.6307 1.2061 1.3674
vn 0.274679 -0.961349 0.0189564
v -2.6381 1.2112 1.5944
vn 0.435219 -0.900106 -0.0198247
v -2.629 1.2611 -0.063054
vn 0.187334 -0.980811 -0.0539917
v -2.629 1.2597 -0.040349
vn 0.15178 -0.98654 -0.0608354
v -2.6517 1.2583 -0.040349
vn 0.0614455 -0.996218 -0.0614322
v -2.6517 1.2505 0.14129
vn 0.178617 -0.982285 -0.0566781
v -2.6517 1.2507 0.13627
vn 0.218464 -0.975844 0.00152099
v -2.6506 1.2507 0.14129
vn 0.227968 -0.972067 -0.0558276
v -2.6517 1.2491 0.164
vn 0.227725 -0.97117 -0.0705008
v -2.645 1.2507 0.164
vn 0.248761 -0.966477 -0.0635705
v -2.629 1.2558 0.14129
vn 0.306168 -0.951953 -0.0068565
v -2.629 1.2555 0.11859
vn 0.275356 -0.961258 0.012706
v -2.629 1.2552 0.164
vn 0.331788 -0.940933 -0.0675438
v -2.6517 1.2471 0.1867
vn 0.242156 -0.965867 -0.0919902
v -2.6375 1.2507 0.1867
vn 0.251825 -0.962566 -0.100253
v -2.6517 1.2446 0.20941
vn 0.216901 -0.967768 -0.12798
v -2.629 1.2507 0.20411
vn 0.304371 -0.942576 -0.137507
v -2.629 1.2498 0.20941
vn 0.255196 -0.954133 -0.156539
v -2.629 1.2531 0.1867
vn 0.335042 -0.936329 -0.105049
v -2.5541 1.2961 -0.38093
vn 0.644237 -0.757655 -0.10449
v -2.5393 1.2961 -0.29011
vn 0.537049 -0.840761 -0.0685538
v -2.5381 1.2961 -0.28069
vn 0.711444 -0.701658 -0.039029
v -2.5381 1.2954 -0.2674
vn 0.522047 -0.852917 0
v -2.5376 1.2961 -0.2674
vn 0.870977 -0.491323 0
v -2.5381 1.2975 -0.29011
vn 0.830978 -0.550685 -0.0788755
v -2.5381 1.2967 -0.2447
vn 0.894011 -0.439985 0.0845965
v -2.629 1.2679 -0.22199
vn 0.107436 -0.993047 -0.0481152
v -2.629 1.2695 -0.2447
vn 0.100123 -0.992515 -0.0699274
v -2.6062 1.2702 -0.22199
vn 0.100253 -0.993796 -0.0481471
v -2.629 1.2668 -0.19929
vn 0.121839 -0.992079 -0.0305859
v -2.6062 1.2696 -0.19929
vn 0.11469 -0.992973 -0.0291576
v -2.629 1.2665 -0.17658
vn 0.121886 -0.992458 -0.0131074
v -2.5425 1.2961 -0.17658
vn 0.705847 -0.707958 0.0239833
v -2.5429 1.2961 -0.15387
vn 0.756797 -0.653649 0.00126749
v -2.629 1.2636 -0.10846
vn 0.189116 -0.979959 -0.0625814
v -2.629 1.2652 -0.13117
vn 0.189035 -0.979542 -0.0690134
v -2.6062 1.268 -0.10846
vn 0.190537 -0.979906 -0.0589866
v -2.5428 1.2961 -0.13117
vn 0.672999 -0.739584 -0.009408
v -2.629 1.2623 -0.085759
vn 0.199627 -0.978826 -0.0452699
v -2.6062 1.2668 -0.085759
vn 0.193499 -0.980413 -0.0367076
v -2.6263 1.2507 0.20941
vn 0.340653 -0.924632 -0.170326
v -2.6517 1.2419 0.23211
vn 0.175367 -0.978898 -0.104903
v -2.629 1.2461 0.23211
vn 0.228953 -0.965018 -0.127749
v -2.6517 1.2398 0.25482
vn 0.168951 -0.983384 -0.0664163
v -2.629 1.2436 0.25482
vn 0.241944 -0.966985 -0.0800225
v -2.6517 1.2384 0.27752
vn 0.185942 -0.981609 -0.0432286
v -2.629 1.2425 0.27752
vn 0.261764 -0.964462 -0.0359533
v -2.6517 1.2373 0.30023
vn 0.208172 -0.977712 -0.0272737
v -2.629 1.242 0.30023
vn 0.283176 -0.958892 -0.0183555
v -2.6517 1.2367 0.32293
vn 0.225968 -0.973957 -0.0185866
v -2.629 1.2418 0.32293
vn 0.295575 -0.955266 -0.0101502
v -2.6517 1.2361 0.34564
vn 0.243363 -0.969174 -0.0384211
v -2.629 1.2417 0.34564
vn 0.308998 -0.950867 -0.0193053
v -2.6517 1.2349 0.36834
vn 0.246852 -0.966133 -0.0751678
v -2.629 1.2408 0.36834
vn 0.314137 -0.946956 -0.067762
v -2.6517 1.233 0.39105
vn 0.238364 -0.966231 -0.097877
v -2.629 1.2386 0.39105
vn 0.297655 -0.94931 -0.101055
v -2.629 1.2359 0.41375
vn 0.29411 -0.949082 -0.112885
v -2.615 1.2507 0.23211
vn 0.332435 -0.933983 -0.131007
v -2.6089 1.2507 0.25482
vn 0.344178 -0.937201 -0.0565362
v -2.6062 1.2541 0.23211
vn 0.425534 -0.897784 -0.113597
v -2.6077 1.2507 0.27752
vn 0.364214 -0.931207 -0.0141889
v -2.6075 1.2507 0.30023
vn 0.376224 -0.926502 -0.00699525
v -2.6069 1.2507 0.32293
vn 0.375075 -0.926976 -0.00588707
v -2.6067 1.2507 0.34564
vn 0.374642 -0.927127 -0.00883054
v -2.6062 1.251 0.32293
vn 0.45227 -0.891805 -0.0116411
v -2.6062 1.2509 0.34564
vn 0.444102 -0.895929 -0.00917748
v -2.6062 1.2507 0.35221
vn 0.412156 -0.910347 -0.0373676
v -2.6062 1.2498 0.36834
vn 0.374665 -0.923419 -0.0832119
v -2.6046 1.2507 0.36834
vn 0.458152 -0.885177 -0.0809862
v -2.6062 1.2472 0.39105
vn 0.377184 -0.920285 -0.103964
v -2.5996 1.2507 0.39105
vn 0.464692 -0.88047 -0.0939904
v -2.6062 1.2444 0.41375
vn 0.364767 -0.92431 -0.112233
v -2.6517 1.2102 0.93597
vn 0.364613 -0.929967 -0.047103
v -2.6517 1.2117 0.91327
vn 0.362597 -0.93005 -0.0594086
v -2.629 1.2191 0.93597
vn 0.403921 -0.91368 -0.0451368
v -2.6062 1.2419 0.68622
vn 0.392841 -0.919604 0.00202545
v -2.5856 1.2507 0.68622
vn 0.396514 -0.918021 -0.00376301
v -2.6062 1.2412 0.70892
vn 0.392692 -0.917895 -0.0571139
v -2.5836 1.2507 0.70892
vn 0.389622 -0.920272 -0.0359582
v -2.629 1.2223 0.89056
vn 0.423245 -0.904318 -0.05544
v -2.6517 1.2867 -0.38093
vn -0.167086 -0.980921 -0.099375
v -2.629 1.2831 -0.38093
vn -0.0512487 -0.995615 -0.0782529
v -2.6517 1.2836 -0.35822
vn -0.138459 -0.982207 -0.126884
v -2.629 1.2806 -0.35822
vn -0.0232393 -0.991303 -0.129528
v -2.6517 1.2804 -0.33552
vn -0.135476 -0.981477 -0.135456
v -2.629 1.2772 -0.33552
vn -0.0203132 -0.990209 -0.138105
v -2.6517 1.2776 -0.31281
vn -0.153824 -0.980332 -0.123644
v -2.629 1.2741 -0.31281
vn -0.0261459 -0.991299 -0.12901
v -2.6437 1.2734 -0.29011
vn -0.13734 -0.985641 -0.0982335
v -2.629 1.2734 -0.30632
vn -0.0145024 -0.993345 -0.114263
v -2.629 1.2719 -0.29011
vn 0.00246119 -0.997473 -0.070997
v -2.6517 1.2753 -0.29011
vn -0.229977 -0.968239 -0.0981045
v -2.629 1.2706 -0.2674
vn 0.0340864 -0.997803 -0.0568096
v -2.6517 1.257 -0.017643
vn 0.087718 -0.995578 -0.0336156
v -2.629 1.2588 -0.017643
vn 0.146106 -0.9888 -0.0304706
v -2.6517 1.2562 0.0050616
vn 0.110873 -0.993488 -0.0262563
v -2.629 1.2586 0.0050616
vn 0.182235 -0.983196 -0.0108128
v -2.6517 1.2555 0.027767
vn 0.122357 -0.992015 -0.0305834
v -2.629 1.2583 0.027767
vn 0.223976 -0.974358 -0.0214577
v -2.6062 1.2836 -0.38093
vn 0.0948411 -0.995105 -0.027762
v -2.6062 1.2824 -0.35822
vn 0.10374 -0.99031 -0.0923241
v -2.6062 1.2796 -0.33552
vn 0.132439 -0.982461 -0.131265
v -2.6062 1.2764 -0.31281
vn 0.144945 -0.981725 -0.123321
v -2.607 1.2734 -0.29011
vn 0.0834969 -0.990326 -0.110828
v -2.6062 1.2735 -0.29011
vn 0.218393 -0.968324 -0.121046
v -2.6062 1.2734 -0.28881
vn 0.124057 -0.989894 -0.0686942
v -2.6062 1.272 -0.2674
vn 0.0829852 -0.995166 -0.0525201
v -2.5979 1.2734 -0.2674
vn 0.223578 -0.972855 -0.0597205
v -2.6062 1.271 -0.2447
vn 0.114577 -0.992657 -0.038784
v -2.5933 1.2734 -0.2447
vn 0.232655 -0.971775 -0.0390522
v -2.5904 1.2734 -0.22199
vn 0.237345 -0.9712 -0.0209371
v -2.5902 1.2734 -0.19929
vn 0.270395 -0.962215 0.0320724
v -2.6062 1.2701 -0.17658
vn 0.208465 -0.977814 0.0205383
v -2.5949 1.2734 -0.17658
vn 0.298584 -0.952982 0.0516982
v -2.629 1.2662 -0.15387
vn 0.192579 -0.981181 -0.0140444
v -2.6062 1.2709 -0.15387
vn 0.231187 -0.972909 0
v -2.5987 1.2734 -0.15387
vn 0.32344 -0.946221 0.00722953
v -2.6062 1.2701 -0.13117
vn 0.238592 -0.969545 -0.0552916
v -2.5962 1.2734 -0.13117
vn 0.323399 -0.94366 -0.0701291
v -2.5886 1.2734 -0.10846
vn 0.308526 -0.948292 -0.0745206
v -2.629 1.2574 0.050472
vn 0.289432 -0.956391 -0.0393125
v -2.629 1.2563 0.073177
vn 0.300989 -0.953131 -0.0307846
v -2.629 1.2556 0.095882
vn 0.308667 -0.951023 -0.0167536
v -2.6517 1.2256 0.45916
vn 0.215551 -0.969975 -0.112634
v -2.6517 1.228 0.43795
vn 0.209829 -0.972084 -0.104999
v -2.6409 1.228 0.45916
vn 0.22635 -0.968688 -0.102022
v -2.6517 1.2281 0.43646
vn 0.207662 -0.97601 -0.0654369
v -2.6525 1.228 0.43646
vn 0.123652 -0.990103 -0.0663818
v -2.629 1.233 0.43646
vn 0.305885 -0.947126 -0.0968909
v -2.629 1.2309 0.45916
vn 0.324269 -0.94206 -0.0858693
v -2.6517 1.2229 0.48187
vn 0.239289 -0.964594 -0.110903
v -2.6318 1.228 0.48187
vn 0.243064 -0.964655 -0.101788
v -2.629 1.2287 0.48187
vn 0.352653 -0.930718 -0.09695
v -2.6517 1.2202 0.50457
vn 0.208636 -0.97127 -0.114482
v -2.629 1.228 0.487
vn 0.282884 -0.948785 -0.140653
v -2.629 1.2251 0.50457
vn 0.247072 -0.959766 -0.133435
v -2.6517 1.2184 0.52728
vn 0.180377 -0.982707 -0.0418402
v -2.629 1.2224 0.52728
vn 0.272366 -0.960329 -0.0598724
v -2.6517 1.2176 0.54998
vn 0.194409 -0.980683 -0.0215972
v -2.629 1.2221 0.54998
vn 0.270862 -0.962528 0.0132033
v -2.6517 1.2174 0.57269
vn 0.240812 -0.970367 0.0199399
v -2.629 1.2236 0.57269
vn 0.326727 -0.944101 0.0438413
v -2.6517 1.2175 0.5954
vn 0.292027 -0.956112 0.0238613
v -2.629 1.2248 0.5954
vn 0.337854 -0.940571 0.0343667
v -2.6517 1.2179 0.6181
vn 0.31602 -0.948062 0.0361919
v -2.629 1.2256 0.6181
vn 0.361716 -0.930268 0.0613526
v -2.6517 1.2193 0.64081
vn 0.353368 -0.931239 0.0890191
v -2.629 1.228 0.64059
vn 0.408509 -0.908201 0.091056
v -2.629 1.228 0.64081
vn 0.356699 -0.927443 0.112314
v -2.6517 1.2214 0.66351
vn 0.394948 -0.91661 0.0619938
v -2.6362 1.228 0.66351
vn 0.371578 -0.924818 0.081493
v -2.629 1.2308 0.66351
vn 0.411305 -0.908171 0.077798
v -2.6517 1.2225 0.68622
vn 0.405441 -0.914066 0.0100639
v -2.6393 1.228 0.68622
vn 0.387113 -0.921988 0.00905713
v -2.629 1.232 0.68622
vn 0.39164 -0.920107 0.00448553
v -2.6517 1.2219 0.70892
vn 0.39108 -0.919141 -0.0472969
v -2.6371 1.228 0.70892
vn 0.3676 -0.927471 -0.0683217
v -2.629 1.2311 0.70892
vn 0.395611 -0.915321 -0.0753621
v -2.6517 1.22 0.73163
vn 0.358695 -0.928781 -0.0932923
v -2.6307 1.228 0.73163
vn 0.353068 -0.929771 -0.104254
v -2.629 1.2286 0.73163
vn 0.404297 -0.908754 -0.103492
v -2.6517 1.2178 0.75433
vn 0.329105 -0.940748 -0.0817479
v -2.629 1.228 0.73614
vn 0.367606 -0.923438 -0.110127
v -2.629 1.2256 0.75433
vn 0.345272 -0.934265 -0.0890876
v -2.6517 1.2164 0.77704
vn 0.329825 -0.943748 -0.0235562
v -2.629 1.2241 0.77704
vn 0.363247 -0.93113 -0.0323661
v -2.6517 1.2159 0.79974
vn 0.353069 -0.935561 -0.00824178
v -2.629 1.2243 0.79974
vn 0.362945 -0.931811 0.000243789
v -2.6517 1.2156 0.82245
vn 0.36845 -0.929323 -0.0245592
v -2.629 1.2245 0.82245
vn 0.386687 -0.922178 -0.00785072
v -2.6517 1.2147 0.84515
vn 0.377759 -0.925377 -0.0312447
v -2.629 1.2239 0.84515
vn 0.395973 -0.917843 -0.027749
v -2.6517 1.2139 0.86786
vn 0.381176 -0.923777 -0.0366182
v -2.6517 1.213 0.89056
vn 0.372715 -0.92635 -0.0543961
v -2.595 1.2507 0.41375
vn 0.491609 -0.865367 -0.0972665
v -2.6062 1.2415 0.43646
vn 0.410552 -0.906162 -0.10157
v -2.5906 1.2507 0.43646
vn 0.506602 -0.857849 -0.0863063
v -2.6062 1.2395 0.45916
vn 0.422105 -0.903143 -0.0784897
v -2.5869 1.2507 0.45916
vn 0.505002 -0.859707 -0.0766665
v -2.6062 1.2377 0.48187
vn 0.439983 -0.8928 -0.0965549
v -2.6214 1.228 0.50457
vn 0.373764 -0.919048 -0.12511
v -2.6062 1.2345 0.50457
vn 0.493922 -0.864966 -0.088739
v -2.5835 1.2488 0.50457
vn 0.525146 -0.847867 -0.0731001
v -2.6154 1.228 0.52728
vn 0.403154 -0.913903 -0.047411
v -2.6062 1.2323 0.52728
vn 0.529012 -0.84802 -0.0317479
v -2.5835 1.2479 0.52728
vn 0.564428 -0.825317 -0.0165313
v -2.6159 1.228 0.54998
vn 0.424884 -0.904102 0.0455197
v -2.6062 1.2328 0.54998
vn 0.5336 -0.844508 0.0455744
v -2.5835 1.2486 0.54998
vn 0.569004 -0.820255 0.0584525
v -2.6202 1.228 0.57269
vn 0.454558 -0.887975 0.0698385
v -2.6062 1.2354 0.57269
vn 0.524971 -0.847557 0.0778018
v -2.5835 1.2504 0.57269
vn 0.551056 -0.831981 0.0643755
v -2.6231 1.228 0.5954
vn 0.473079 -0.88004 0.0415488
v -2.6247 1.228 0.6181
vn 0.463733 -0.883964 0.0596623
f 1//1 2//2 3//3
f 3//3 4//4 1//1
f 5//5 1//1 4//4
f 4//4 6//6 5//5
f 7//7 5//5 6//6
f 6//6 8//8 7//7
f 9//9 7//7 10//10
f 10//10 7//7 8//8
f 11//11 12//12 13//13
f 11//11 13//13 14//14
f 13//13 12//12 15//15
f 14//14 13//13 16//16
f 17//17 13//13 15//15
f 10//10 18//18 9//9
f 19//19 11//11 14//14
f 14//14 20//20 19//19
f 21//21 19//19 22//22
f 21//21 22//22 23//23
f 22//22 19//19 20//20
f 20//20 14//14 24//24
f 24//24 14//14 16//16
f 24//24 22//22 20//20
f 23//23 22//22 25//25
f 24//24 16//16 26//26
f 26//26 27//27 24//24
f 25//25 22//22 28//28
f 28//28 22//22 27//27
f 27//27 22//22 24//24
f 29//29 30//30 31//31
f 31//31 30//30 32//32
f 33//33 29//29 34//34
f 34//34 29//29 31//31
f 35//35 36//36 37//37
f 37//37 38//38 35//35
f 39//39 35//35 38//38
f 38//38 40//40 39//39
f 41//41 39//39 40//40
f 40//40 42//42 41//41
f 43//43 41//41 42//42
f 42//42 44//44 43//43
f 45//45 43//43 44//44
f 49//49 50//50 51//51
f 52//52 50//50 53//53
f 54//54 55//55 56//56
f 57//57 58//58 59//59
f 60//60 58//58 61//61
f 62//62 63//63 64//64
f 64//64 65//65 62//62
f 66//66 67//67 68//68
f 68//68 67//67 69//69
f 70//70 66//66 68//68
f 68//68 71//71 70//70
f 72//72 73//73 74//74
f 76//76 77//77 78//78
f 78//78 77//77 79//79
f 80//80 76//76 78//78
f 80//80 78//78 79//79
f 79//79 81//81 80//80
f 82//82 80//80 83//83
f 82//82 83//83 84//84
f 83//83 80//80 81//81
f 85//85 83//83 81//81
f 84//84 83//83 86//86
f 87//87 82//82 84//84
f 84//84 88//88 87//87
f 89//89 87//87 90//90
f 90//90 87//87 91//91
f 91//91 87//87 88//88
f 88//88 84//84 92//92
f 92//92 84//84 86//86
f 92//92 91//91 88//88
f 93//93 94//94 95//95
f 96//96 94//94 97//97
f 94//94 93//93 97//97
f 100//100 98//98 101//101
f 101//101 98//98 99//99
f 102//102 100//100 103//103
f 103//103 100//100 101//101
f 103//103 101//101 104//104
f 104//104 105//105 103//103
f 106//106 102//102 107//107
f 107//107 102//102 103//103
f 107//107 103//103 105//105
f 105//105 108//108 107//107
f 109//109 106//106 110//110
f 110//110 106//106 107//107
f 110//110 107//107 108//108
f 111//111 109//109 110//110
f 110//110 112//112 111//111
f 113//113 111//111 114//114
f 114//114 111//111 112//112
f 114//114 115//115 116//116
f 117//117 113//113 118//118
f 118//118 113//113 114//114
f 118//118 114//114 119//119
f 120//120 117//117 118//118
f 118//118 121//121 120//120
f 121//121 118//118 122//122
f 122//122 118//118 119//119
f 123//123 120//120 121//121
f 121//121 124//124 123//123
f 124//124 121//121 122//122
f 125//125 123//123 124//124
f 124//124 126//126 125//125
f 127//127 125//125 128//128
f 128//128 125//125 126//126
f 129//129 127//127 30//30
f 30//30 127//127 128//128
f 30//30 128//128 32//32
f 130//130 131//131 132//132
f 133//133 129//129 29//29
f 29//29 129//129 30//30
f 134//134 133//133 29//29
f 29//29 33//33 134//134
f 135//135 136//136 137//137
f 137//137 138//138 135//135
f 139//139 140//140 36//36
f 36//36 140//140 33//33
f 33//33 140//140 134//134
f 141//141 139//139 36//36
f 36//36 35//35 141//141
f 142//142 135//135 143//143
f 143//143 135//135 138//138
f 143//143 144//144 145//145
f 146//146 141//141 35//35
f 35//35 39//39 146//146
f 147//147 146//146 39//39
f 39//39 41//41 147//147
f 148//148 145//145 149//149
f 149//149 145//145 144//144
f 150//150 148//148 151//151
f 151//151 148//148 149//149
f 152//152 147//147 43//43
f 43//43 147//147 41//41
f 153//153 152//152 154//154
f 154//154 152//152 43//43
f 154//154 43//43 45//45
f 155//155 150//150 156//156
f 156//156 150//150 151//151
f 156//156 157//157 158//158
f 159//159 153//153 154//154
f 154//154 160//160 159//159
f 160//160 154//154 46//46
f 46//46 154//154 45//45
f 161//161 159//159 160//160
f 160//160 162//162 161//161
f 162//162 160//160 47//47
f 47//47 160//160 46//46
f 157//157 163//163 164//164
f 165//165 164//164 166//166
f 166//166 164//164 163//163
f 167//167 161//161 168//168
f 168//168 161//161 162//162
f 168//168 162//162 47//47
f 47//47 48//48 168//168
f 169//169 167//167 168//168
f 168//168 170//170 169//169
f 170//170 168//168 171//171
f 171//171 168//168 48//48
f 172//172 173//173 174//174
f 175//175 169//169 170//170
f 170//170 176//176 175//175
f 176//176 170//170 177//177
f 177//177 170//170 171//171
f 175//175 178//178 172//172
f 176//176 179//179 178//178
f 179//179 176//176 177//177
f 177//177 180//180 179//179
f 181//181 182//182 172//172
f 181//181 172//172 178//178
f 178//178 183//183 181//181
f 179//179 184//184 183//183
f 184//184 179//179 180//180
f 180//180 185//185 184//184
f 186//186 181//181 183//183
f 183//183 187//187 186//186
f 187//187 183//183 184//184
f 184//184 188//188 187//187
f 188//188 184//184 189//189
f 189//189 184//184 185//185
f 190//190 191//191 192//192
f 192//192 191//191 186//186
f 192//192 193//193 194//194
f 192//192 186//186 187//187
f 187//187 195//195 192//192
f 195//195 187//187 188//188
f 188//188 196//196 195//195
f 196//196 188//188 197//197
f 197//197 188//188 189//189
f 193//193 192//192 195//195
f 195//195 198//198 193//193
f 198//198 195//195 196//196
f 196//196 199//199 198//198
f 199//199 196//196 197//197
f 197//197 200//200 199//199
f 201//201 194//194 193//193
f 201//201 193//193 198//198
f 198//198 53//53 201//201
f 53//53 198//198 199//199
f 199//199 52//52 53//53
f 52//52 199//199 202//202
f 202//202 199//199 200//200
f 203//203 201//201 50//50
f 203//203 50//50 49//49
f 50//50 201//201 53//53
f 51//51 50//50 204//204
f 51//51 204//204 205//205
f 204//204 50//50 202//202
f 202//202 50//50 52//52
f 206//206 203//203 207//207
f 207//207 203//203 49//49
f 207//207 49//49 51//51
f 51//51 208//208 207//207
f 208//208 51//51 205//205
f 205//205 209//209 208//208
f 210//210 206//206 211//211
f 211//211 206//206 207//207
f 211//211 207//207 208//208
f 208//208 212//212 211//211
f 212//212 208//208 213//213
f 212//212 213//213 214//214
f 213//213 208//208 209//209
f 209//209 205//205 215//215
f 215//215 205//205 216//216
f 217//217 204//204 202//202
f 214//214 213//213 218//218
f 219//219 210//210 220//220
f 220//220 210//210 211//211
f 220//220 211//211 212//212
f 212//212 221//221 220//220
f 221//221 212//212 214//214
f 214//214 222//222 221//221
f 223//223 219//219 224//224
f 224//224 219//219 220//220
f 224//224 220//220 221//221
f 221//221 225//225 224//224
f 225//225 221//221 222//222
f 222//222 226//226 225//225
f 227//227 223//223 228//228
f 228//228 223//223 224//224
f 228//228 224//224 225//225
f 225//225 229//229 228//228
f 229//229 225//225 226//226
f 226//226 230//230 229//229
f 2//2 231//231 3//3
f 3//3 231//231 227//227
f 3//3 227//227 228//228
f 3//3 228//228 232//232
f 232//232 228//228 229//229
f 232//232 229//229 233//233
f 233//233 229//229 230//230
f 222//222 214//214 218//218
f 218//218 234//234 222//222
f 226//226 222//222 234//234
f 234//234 235//235 226//226
f 230//230 226//226 235//235
f 4//4 3//3 236//236
f 236//236 3//3 232//232
f 236//236 232//232 237//237
f 237//237 232//232 233//233
f 6//6 4//4 236//236
f 236//236 238//238 6//6
f 238//238 236//236 239//239
f 239//239 236//236 237//237
f 8//8 6//6 238//238
f 238//238 240//240 8//8
f 240//240 238//238 241//241
f 241//241 238//238 239//239
f 10//10 8//8 240//240
f 240//240 242//242 10//10
f 242//242 240//240 241//241
f 241//241 243//243 242//242
f 17//17 18//18 244//244
f 244//244 18//18 10//10
f 244//244 10//10 242//242
f 242//242 245//245 244//244
f 245//245 242//242 243//243
f 243//243 246//246 245//245
f 16//16 13//13 26//26
f 26//26 13//13 244//244
f 244//244 13//13 17//17
f 26//26 244//244 245//245
f 245//245 247//247 26//26
f 247//247 245//245 246//246
f 246//246 248//248 247//247
f 27//27 26//26 247//247
f 247//247 249//249 27//27
f 249//249 247//247 248//248
f 248//248 250//250 249//249
f 28//28 27//27 249//249
f 249//249 251//251 28//28
f 251//251 249//249 250//250
f 250//250 252//252 251//251
f 252//252 250//250 253//253
f 254//254 25//25 255//255
f 255//255 25//25 28//28
f 255//255 28//28 251//251
f 251//251 256//256 255//255
f 256//256 251//251 252//252
f 256//256 252//252 257//257
f 256//256 257//257 258//258
f 259//259 254//254 260//260
f 260//260 254//254 255//255
f 260//260 255//255 256//256
f 256//256 261//261 260//260
f 261//261 256//256 262//262
f 262//262 256//256 258//258
f 263//263 264//264 265//265
f 265//265 264//264 266//266
f 266//266 264//264 267//267
f 268//268 269//269 260//260
f 268//268 260//260 270//270
f 260//260 269//269 259//259
f 270//270 260//260 261//261
f 261//261 271//271 270//270
f 271//271 261//261 272//272
f 272//272 261//261 262//262
f 273//273 268//268 270//270
f 270//270 274//274 273//273
f 274//274 270//270 271//271
f 271//271 275//275 274//274
f 275//275 271//271 276//276
f 276//276 271//271 272//272
f 262//262 258//258 277//277
f 277//277 258//258 278//278
f 272//272 262//262 279//279
f 279//279 262//262 277//277
f 276//276 272//272 280//280
f 280//280 272//272 279//279
f 253//253 257//257 252//252
f 281//281 263//263 265//265
f 265//265 282//282 281//281
f 282//282 265//265 266//266
f 266//266 283//283 282//282
f 284//284 281//281 285//285
f 285//285 281//281 282//282
f 285//285 282//282 283//283
f 283//283 286//286 285//285
f 287//287 273//273 288//288
f 288//288 273//273 274//274
f 288//288 274//274 289//289
f 289//289 274//274 275//275
f 289//289 275//275 276//276
f 276//276 290//290 289//289
f 291//291 287//287 292//292
f 292//292 287//287 288//288
f 292//292 288//288 293//293
f 293//293 288//288 289//289
f 293//293 289//289 290//290
f 290//290 294//294 293//293
f 295//295 284//284 296//296
f 296//296 284//284 285//285
f 296//296 285//285 297//297
f 297//297 285//285 286//286
f 298//298 295//295 296//296
f 296//296 299//299 298//298
f 299//299 296//296 300//300
f 300//300 296//296 297//297
f 301//301 291//291 292//292
f 292//292 302//302 301//301
f 302//302 292//292 303//303
f 303//303 292//292 293//293
f 303//303 293//293 294//294
f 294//294 304//304 303//303
f 305//305 301//301 302//302
f 302//302 306//306 305//305
f 306//306 302//302 307//307
f 307//307 302//302 303//303
f 307//307 303//303 308//308
f 308//308 303//303 304//304
f 290//290 276//276 280//280
f 280//280 309//309 290//290
f 294//294 290//290 309//309
f 309//309 310//310 294//294
f 304//304 294//294 310//310
f 310//310 311//311 304//304
f 308//308 304//304 311//311
f 311//311 312//312 308//308
f 298//298 313//313 314//314
f 313//313 298//298 299//299
f 299//299 315//315 313//313
f 315//315 299//299 316//316
f 316//316 299//299 300//300
f 317//317 313//313 315//315
f 315//315 318//318 317//317
f 318//318 315//315 319//319
f 319//319 315//315 316//316
f 320//320 305//305 306//306
f 306//306 321//321 320//320
f 321//321 306//306 307//307
f 307//307 322//322 321//321
f 322//322 307//307 323//323
f 323//323 307//307 308//308
f 324//324 320//320 321//321
f 321//321 325//325 324//324
f 325//325 321//321 322//322
f 322//322 326//326 325//325
f 326//326 322//322 327//327
f 327//327 322//322 323//323
f 317//317 328//328 329//329
f 328//328 317//317 318//318
f 318//318 330//330 328//328
f 330//330 318//318 331//331
f 331//331 318//318 319//319
f 332//332 328//328 330//330
f 330//330 333//333 332//332
f 333//333 330//330 334//334
f 334//334 330//330 331//331
f 324//324 335//335 331//331
f 334//334 331//331 335//335
f 335//335 336//336 334//334
f 335//335 324//324 325//325
f 325//325 337//337 335//335
f 337//337 325//325 326//326
f 326//326 338//338 337//337
f 338//338 326//326 339//339
f 339//339 326//326 327//327
f 336//336 335//335 337//337
f 337//337 340//340 336//336
f 340//340 337//337 341//341
f 341//341 337//337 338//338
f 341//341 338//338 342//342
f 342//342 338//338 339//339
f 323//323 308//308 343//343
f 343//343 308//308 312//312
f 327//327 323//323 344//344
f 344//344 323//323 343//343
f 339//339 327//327 345//345
f 345//345 327//327 344//344
f 342//342 339//339 346//346
f 346//346 339//339 345//345
f 332//332 347//347 348//348
f 347//347 332//332 333//333
f 333//333 349//349 347//347
f 349//349 333//333 350//350
f 350//350 333//333 334//334
f 351//351 348//348 352//352
f 352//352 348//348 347//347
f 352//352 347//347 349//349
f 349//349 353//353 352//352
f 353//353 349//349 350//350
f 350//350 354//354 353//353
f 350//350 334//334 336//336
f 336//336 355//355 350//350
f 354//354 350//350 355//355
f 355//355 356//356 354//354
f 355//355 336//336 340//340
f 340//340 357//357 355//355
f 357//357 340//340 341//341
f 341//341 56//56 357//357
f 56//56 341//341 54//54
f 54//54 341//341 342//342
f 356//356 355//355 357//357
f 357//357 358//358 356//356
f 358//358 357//357 55//55
f 358//358 55//55 359//359
f 55//55 357//357 56//56
f 360//360 351//351 361//361
f 361//361 351//351 352//352
f 361//361 352//352 362//362
f 362//362 352//352 353//353
f 362//362 353//353 354//354
f 354//354 363//363 362//362
f 364//364 360//360 361//361
f 361//361 365//365 364//364
f 365//365 361//361 362//362
f 362//362 366//366 365//365
f 366//366 362//362 367//367
f 367//367 362//362 363//363
f 363//363 354//354 356//356
f 356//356 368//368 363//363
f 367//367 363//363 369//369
f 369//369 363//363 368//368
f 368//368 356//356 370//370
f 370//370 356//356 358//358
f 370//370 358//358 371//371
f 371//371 358//358 359//359
f 369//369 368//368 372//372
f 372//372 368//368 370//370
f 372//372 370//370 371//371
f 371//371 373//373 372//372
f 54//54 342//342 374//374
f 374//374 342//342 346//346
f 359//359 55//55 375//375
f 375//375 55//55 376//376
f 376//376 55//55 374//374
f 374//374 55//55 54//54
f 371//371 359//359 377//377
f 377//377 359//359 375//375
f 377//377 375//375 376//376
f 376//376 378//378 377//377
f 373//373 371//371 377//377
f 377//377 379//379 373//373
f 379//379 377//377 380//380
f 380//380 377//377 378//378
f 381//381 364//364 365//365
f 381//381 365//365 382//382
f 381//381 382//382 383//383
f 366//366 382//382 365//365
f 383//383 382//382 384//384
f 384//384 382//382 366//366
f 384//384 366//366 367//367
f 385//385 381//381 386//386
f 386//386 381//381 383//383
f 386//386 383//383 387//387
f 387//387 383//383 384//384
f 384//384 388//388 387//387
f 384//384 367//367 389//389
f 389//389 367//367 369//369
f 388//388 384//384 389//389
f 389//389 390//390 388//388
f 389//389 369//369 372//372
f 372//372 391//391 389//389
f 391//391 372//372 373//373
f 373//373 392//392 391//391
f 390//390 389//389 391//391
f 391//391 393//393 390//390
f 393//393 391//391 394//394
f 394//394 391//391 392//392
f 395//395 385//385 386//386
f 386//386 396//396 395//395
f 396//396 386//386 387//387
f 387//387 397//397 396//396
f 397//397 387//387 398//398
f 398//398 387//387 388//388
f 399//399 395//395 400//400
f 400//400 395//395 396//396
f 400//400 396//396 397//397
f 397//397 401//401 400//400
f 401//401 397//397 402//402
f 402//402 397//397 398//398
f 398//398 388//388 390//390
f 390//390 403//403 398//398
f 402//402 398//398 403//403
f 403//403 61//61 402//402
f 403//403 390//390 393//393
f 393//393 404//404 403//403
f 404//404 393//393 405//405
f 405//405 393//393 394//394
f 61//61 403//403 404//404
f 404//404 60//60 61//61
f 60//60 404//404 406//406
f 406//406 404//404 405//405
f 392//392 373//373 379//379
f 379//379 407//407 392//392
f 407//407 379//379 408//408
f 408//408 379//379 380//380
f 394//394 392//392 407//407
f 407//407 409//409 394//394
f 409//409 407//407 408//408
f 408//408 410//410 409//409
f 405//405 394//394 411//411
f 411//411 394//394 409//409
f 411//411 409//409 410//410
f 410//410 412//412 411//411
f 406//406 405//405 413//413
f 413//413 405//405 411//411
f 413//413 411//411 414//414
f 414//414 411//411 412//412
f 415//415 399//399 416//416
f 416//416 399//399 400//400
f 416//416 400//400 401//401
f 401//401 417//417 416//416
f 417//417 401//401 402//402
f 402//402 418//418 417//417
f 419//419 415//415 420//420
f 420//420 415//415 416//416
f 420//420 416//416 417//417
f 417//417 421//421 420//420
f 421//421 417//417 418//418
f 418//418 422//422 421//421
f 418//418 402//402 58//58
f 418//418 58//58 57//57
f 58//58 402//402 61//61
f 422//422 418//418 423//423
f 423//423 418//418 57//57
f 423//423 57//57 59//59
f 59//59 424//424 423//423
f 59//59 58//58 425//425
f 425//425 58//58 406//406
f 406//406 58//58 60//60
f 424//424 59//59 63//63
f 424//424 63//63 62//62
f 63//63 59//59 425//425
f 426//426 419//419 427//427
f 427//427 419//419 420//420
f 427//427 420//420 421//421
f 421//421 428//428 427//427
f 428//428 421//421 422//422
f 422//422 429//429 428//428
f 93//93 426//426 430//430
f 430//430 426//426 427//427
f 430//430 427//427 428//428
f 428//428 431//431 430//430
f 431//431 428//428 429//429
f 429//429 432//432 431//431
f 429//429 422//422 433//433
f 433//433 422//422 423//423
f 433//433 423//423 424//424
f 424//424 434//434 433//433
f 432//432 429//429 435//435
f 435//435 429//429 433//433
f 435//435 433//433 434//434
f 434//434 436//436 435//435
f 434//434 424//424 65//65
f 434//434 65//65 437//437
f 65//65 424//424 62//62
f 436//436 434//434 438//438
f 438//438 434//434 437//437
f 425//425 406//406 413//413
f 413//413 439//439 425//425
f 439//439 413//413 440//440
f 440//440 413//413 414//414
f 439//439 63//63 425//425
f 64//64 63//63 441//441
f 441//441 63//63 440//440
f 440//440 63//63 439//439
f 437//437 65//65 442//442
f 442//442 65//65 443//443
f 443//443 65//65 441//441
f 441//441 65//65 64//64
f 438//438 437//437 444//444
f 444//444 437//437 442//442
f 444//444 442//442 443//443
f 445//445 93//93 446//446
f 446//446 93//93 430//430
f 446//446 430//430 67//67
f 67//67 430//430 431//431
f 67//67 431//431 69//69
f 69//69 431//431 432//432
f 447//447 445//445 448//448
f 448//448 445//445 446//446
f 448//448 446//446 66//66
f 66//66 446//446 67//67
f 69//69 432//432 435//435
f 435//435 449//449 69//69
f 449//449 435//435 436//436
f 436//436 450//450 449//449
f 68//68 69//69 449//449
f 449//449 451//451 68//68
f 451//451 449//449 450//450
f 450//450 452//452 451//451
f 450//450 436//436 438//438
f 438//438 453//453 450//450
f 452//452 450//450 453//453
f 453//453 454//454 452//452
f 455//455 447//447 456//456
f 456//456 447//447 448//448
f 456//456 448//448 66//66
f 66//66 70//70 456//456
f 457//457 455//455 458//458
f 458//458 455//455 456//456
f 458//458 456//456 70//70
f 70//70 459//459 458//458
f 459//459 70//70 71//71
f 71//71 460//460 459//459
f 71//71 68//68 461//461
f 461//461 68//68 451//451
f 461//461 451//451 452//452
f 452//452 462//462 461//461
f 460//460 71//71 463//463
f 463//463 71//71 461//461
f 463//463 461//461 462//462
f 462//462 464//464 463//463
f 462//462 452//452 454//454
f 454//454 465//465 462//462
f 464//464 462//462 466//466
f 466//466 462//462 465//465
f 453//453 438//438 444//444
f 444//444 467//467 453//453
f 454//454 453//453 467//467
f 467//467 468//468 454//454
f 465//465 454//454 469//469
f 469//469 454//454 468//468
f 466//466 465//465 470//470
f 470//470 465//465 469//469
f 471//471 457//457 472//472
f 472//472 457//457 458//458
f 472//472 458//458 459//459
f 459//459 473//473 472//472
f 473//473 459//459 460//460
f 460//460 474//474 473//473
f 475//475 471//471 476//476
f 476//476 471//471 472//472
f 476//476 472//472 473//473
f 476//476 473//473 477//477
f 476//476 477//477 478//478
f 474//474 477//477 473//473
f 474//474 460//460 463//463
f 463//463 479//479 474//474
f 479//479 463//463 464//464
f 464//464 480//480 479//479
f 478//478 477//477 481//481
f 481//481 477//477 482//482
f 482//482 477//477 474//474
f 482//482 474//474 479//479
f 482//482 479//479 480//480
f 480//480 483//483 482//482
f 480//480 464//464 466//466
f 466//466 484//484 480//480
f 483//483 480//480 485//485
f 485//485 480//480 484//484
f 486//486 475//475 476//476
f 476//476 487//487 486//486
f 487//487 476//476 478//478
f 478//478 488//488 487//487
f 489//489 486//486 487//487
f 487//487 490//490 489//489
f 490//490 487//487 491//491
f 490//490 491//491 492//492
f 491//491 487//487 488//488
f 492//492 491//491 493//493
f 488//488 478//478 494//494
f 494//494 478//478 481//481
f 494//494 481//481 482//482
f 482//482 495//495 494//494
f 495//495 482//482 483//483
f 483//483 496//496 495//495
f 494//494 491//491 488//488
f 493//493 491//491 497//497
f 497//497 491//491 495//495
f 495//495 491//491 494//494
f 497//497 495//495 498//498
f 498//498 495//495 496//496
f 496//496 483//483 499//499
f 499//499 483//483 485//485
f 498//498 496//496 499//499
f 499//499 500//500 498//498
f 484//484 466//466 501//501
f 501//501 466//466 470//470
f 485//485 484//484 502//502
f 502//502 484//484 501//501
f 499//499 485//485 503//503
f 503//503 485//485 502//502
f 500//500 499//499 503//503
f 503//503 72//72 500//500
f 504//504 489//489 490//490
f 490//490 505//505 504//504
f 505//505 490//490 506//506
f 506//506 490//490 492//492
f 506//506 492//492 507//507
f 507//507 492//492 493//493
f 508//508 504//504 505//505
f 505//505 509//509 508//508
f 509//509 505//505 510//510
f 510//510 505//505 506//506
f 510//510 506//506 511//511
f 511//511 506//506 507//507
f 507//507 493//493 497//497
f 497//497 512//512 507//507
f 512//512 497//497 513//513
f 513//513 497//497 498//498
f 511//511 507//507 512//512
f 512//512 514//514 511//511
f 514//514 512//512 515//515
f 515//515 512//512 513//513
f 513//513 498//498 500//500
f 500//500 74//74 513//513
f 515//515 513//513 516//516
f 516//516 513//513 74//74
f 517//517 508//508 509//509
f 509//509 518//518 517//517
f 518//518 509//509 519//519
f 519//519 509//509 510//510
f 519//519 510//510 520//520
f 520//520 510//510 511//511
f 521//521 518//518 522//522
f 522//522 518//518 519//519
f 522//522 519//519 523//523
f 523//523 519//519 520//520
f 520//520 511//511 514//514
f 514//514 524//524 520//520
f 524//524 514//514 525//525
f 525//525 514//514 515//515
f 523//523 520//520 524//524
f 524//524 526//526 523//523
f 526//526 524//524 527//527
f 527//527 524//524 525//525
f 525//525 515//515 528//528
f 528//528 515//515 516//516
f 527//527 525//525 529//529
f 529//529 525//525 528//528
f 74//74 500//500 72//72
f 516//516 74//74 73//73
f 73//73 75//75 516//516
f 528//528 516//516 75//75
f 75//75 530//530 528//528
f 529//529 528//528 530//530
f 530//530 531//531 529//529
f 521//521 532//532 533//533
f 532//532 521//521 522//522
f 522//522 534//534 532//532
f 534//534 522//522 535//535
f 535//535 522//522 523//523
f 536//536 532//532 537//537
f 537//537 532//532 534//534
f 537//537 534//534 538//538
f 538//538 534//534 535//535
f 535//535 523//523 526//526
f 526//526 539//539 535//535
f 539//539 526//526 527//527
f 527//527 540//540 539//539
f 538//538 535//535 541//541
f 541//541 535//535 539//539
f 541//541 539//539 540//540
f 540//540 542//542 541//541
f 540//540 527//527 543//543
f 543//543 527//527 529//529
f 542//542 540//540 543//543
f 543//543 544//544 542//542
f 536//536 545//545 546//546
f 545//545 536//536 547//547
f 547//547 536//536 537//537
f 547//547 537//537 548//548
f 548//548 537//537 538//538
f 549//549 546//546 550//550
f 549//549 550//550 551//551
f 550//550 546//546 545//545
f 547//547 550//550 545//545
f 551//551 550//550 552//552
f 552//552 550//550 553//553
f 553//553 550//550 548//548
f 548//548 550//550 547//547
f 548//548 538//538 541//541
f 541//541 554//554 548//548
f 554//554 541//541 542//542
f 542//542 555//555 554//554
f 553//553 548//548 554//554
f 554//554 556//556 553//553
f 556//556 554//554 557//557
f 557//557 554//554 555//555
f 555//555 542//542 558//558
f 558//558 542//542 544//544
f 557//557 555//555 559//559
f 559//559 555//555 558//558
f 543//543 529//529 531//531
f 531//531 560//560 543//543
f 544//544 543//543 561//561
f 561//561 543//543 560//560
f 558//558 544//544 561//561
f 561//561 562//562 558//558
f 559//559 558//558 562//562
f 562//562 563//563 559//559
f 564//564 549//549 565//565
f 565//565 549//549 551//551
f 565//565 551//551 566//566
f 566//566 551//551 552//552
f 566//566 552//552 553//553
f 553//553 567//567 566//566
f 76//76 564//564 77//77
f 77//77 564//564 565//565
f 566//566 77//77 565//565
f 567//567 77//77 566//566
f 567//567 553//553 568//568
f 567//567 568//568 569//569
f 568//568 553//553 556//556
f 557//557 568//568 556//556
f 569//569 568//568 570//570
f 559//559 568//568 557//557
f 364//364 381//381 571//571
f 381//381 385//385 571//571
f 385//385 395//395 572//572
f 395//395 399//399 572//572
f 399//399 415//415 573//573
f 415//415 419//419 573//573
f 419//419 426//426 95//95
f 426//426 93//93 95//95
f 93//93 445//445 97//97
f 445//445 447//447 97//97
f 447//447 96//96 97//97
f 96//96 447//447 574//574
f 447//447 455//455 574//574
f 455//455 457//457 574//574
f 457//457 471//471 575//575
f 471//471 475//475 575//575
f 475//475 576//576 575//575
f 576//576 475//475 577//577
f 475//475 486//486 577//577
f 486//486 489//489 577//577
f 549//549 564//564 578//578
f 564//564 76//76 578//578
f 579//579 580//580 581//581
f 582//582 583//583 584//584
f 585//585 582//582 584//584
f 584//584 586//586 585//585
f 584//584 583//583 587//587
f 587//587 583//583 588//588
f 586//586 584//584 587//587
f 587//587 589//589 586//586
f 590//590 585//585 586//586
f 586//586 591//591 590//590
f 592//592 590//590 591//591
f 592//592 591//591 593//593
f 592//592 593//593 594//594
f 591//591 586//586 589//589
f 589//589 595//595 591//591
f 595//595 593//593 591//591
f 101//101 99//99 104//104
f 104//104 99//99 596//596
f 108//108 597//597 110//110
f 112//112 110//110 598//598
f 112//112 598//598 599//599
f 598//598 110//110 597//597
f 114//114 112//112 115//115
f 115//115 112//112 599//599
f 599//599 598//598 600//600
f 600//600 115//115 599//599
f 597//597 108//108 601//601
f 601//601 598//598 597//597
f 603//603 604//604 605//605
f 606//606 603//603 607//607
f 607//607 603//603 605//605
f 119//119 114//114 116//116
f 608//608 606//606 607//607
f 122//122 609//609 124//124
f 126//126 124//124 609//609
f 609//609 610//610 126//126
f 119//119 116//116 602//602
f 611//611 612//612 613//613
f 128//128 126//126 614//614
f 614//614 126//126 610//610
f 32//32 128//128 614//614
f 615//615 611//611 613//613
f 613//613 616//616 615//615
f 579//579 615//615 132//132
f 132//132 615//615 616//616
f 580//580 579//579 136//136
f 136//136 579//579 132//132
f 36//36 33//33 34//34
f 34//34 37//37 36//36
f 149//149 144//144 152//152
f 152//152 144//144 147//147
f 587//587 588//588 158//158
f 158//158 164//164 587//587
f 164//164 158//158 157//157
f 589//589 587//587 165//165
f 165//165 587//587 164//164
f 163//163 157//157 161//161
f 161//161 167//167 163//163
f 166//166 163//163 167//167
f 167//167 169//169 166//166
f 594//594 593//593 617//617
f 595//595 589//589 173//173
f 173//173 589//589 165//165
f 173//173 165//165 166//166
f 166//166 174//174 173//173
f 617//617 593//593 182//182
f 182//182 593//593 173//173
f 173//173 593//593 595//595
f 182//182 173//173 172//172
f 174//174 166//166 169//169
f 169//169 175//175 174//174
f 172//172 174//174 175//175
f 178//178 175//175 176//176
f 618//618 592//592 619//619
f 619//619 592//592 594//594
f 620//620 618//618 621//621
f 621//621 618//618 619//619
f 622//622 620//620 623//623
f 623//623 620//620 621//621
f 624//624 622//622 625//625
f 625//625 622//622 623//623
f 626//626 624//624 627//627
f 627//627 624//624 625//625
f 628//628 626//626 629//629
f 629//629 626//626 627//627
f 630//630 628//628 631//631
f 631//631 628//628 629//629
f 632//632 630//630 633//633
f 633//633 630//630 631//631
f 634//634 632//632 633//633
f 619//619 594//594 635//635
f 635//635 594//594 617//617
f 621//621 619//619 635//635
f 635//635 636//636 621//621
f 635//635 617//617 182//182
f 182//182 637//637 635//635
f 637//637 182//182 181//181
f 636//636 635//635 637//637
f 637//637 191//191 636//636
f 191//191 637//637 186//186
f 186//186 637//637 181//181
f 183//183 178//178 179//179
f 623//623 621//621 636//636
f 636//636 638//638 623//623
f 625//625 623//623 638//638
f 638//638 639//639 625//625
f 638//638 636//636 191//191
f 191//191 190//190 638//638
f 639//639 638//638 190//190
f 190//190 194//194 639//639
f 194//194 190//190 192//192
f 627//627 625//625 639//639
f 639//639 640//640 627//627
f 629//629 627//627 640//640
f 640//640 641//641 629//629
f 640//640 639//639 194//194
f 194//194 642//642 640//640
f 642//642 194//194 201//201
f 641//641 640//640 642//642
f 642//642 643//643 641//641
f 643//643 642//642 203//203
f 203//203 642//642 201//201
f 631//631 629//629 644//644
f 631//631 644//644 645//645
f 644//644 629//629 641//641
f 645//645 644//644 646//646
f 633//633 631//631 647//647
f 647//647 631//631 645//645
f 647//647 645//645 646//646
f 646//646 648//648 647//647
f 643//643 644//644 641//641
f 646//646 644//644 206//206
f 206//206 644//644 203//203
f 203//203 644//644 643//643
f 648//648 646//646 206//206
f 206//206 210//210 648//648
f 205//205 204//204 216//216
f 215//215 213//213 209//209
f 634//634 633//633 649//649
f 649//649 633//633 647//647
f 649//649 647//647 648//648
f 650//650 651//651 652//652
f 652//652 651//651 329//329
f 653//653 21//21 654//654
f 654//654 21//21 23//23
f 655//655 653//653 654//654
f 654//654 656//656 655//655
f 654//654 23//23 254//254
f 254//254 23//23 25//25
f 656//656 654//654 254//254
f 254//254 259//259 656//656
f 264//264 655//655 267//267
f 267//267 655//655 269//269
f 269//269 655//655 656//656
f 267//267 269//269 268//268
f 266//266 267//267 273//273
f 273//273 267//267 268//268
f 259//259 269//269 656//656
f 258//258 257//257 278//278
f 283//283 266//266 287//287
f 287//287 266//266 273//273
f 286//286 283//283 287//287
f 287//287 291//291 286//286
f 297//297 286//286 291//291
f 291//291 301//301 297//297
f 300//300 297//297 301//301
f 301//301 305//305 300//300
f 657//657 314//314 313//313
f 313//313 317//317 657//657
f 316//316 300//300 305//305
f 305//305 320//320 316//316
f 319//319 316//316 320//320
f 320//320 324//324 319//319
f 329//329 657//657 317//317
f 652//652 329//329 328//328
f 328//328 332//332 652//652
f 331//331 319//319 324//324
f 348//348 650//650 652//652
f 348//348 652//652 332//332
f 660//660 658//658 659//659
f 659//659 661//661 660//660
f 662//662 660//660 661//661
f 661//661 663//663 662//662
f 664//664 662//662 663//663
f 663//663 665//665 664//664
f 666//666 667//667 668//668
f 669//669 664//664 666//666
f 666//666 664//664 667//667
f 667//667 664//664 665//665
f 670//670 666//666 668//668
f 671//671 581//581 672//672
f 672//672 581//581 580//580
f 673//673 671//671 674//674
f 674//674 671//671 672//672
f 675//675 673//673 676//676
f 676//676 673//673 674//674
f 661//661 659//659 678//678
f 678//678 659//659 677//677
f 678//678 677//677 100//100
f 100//100 677//677 98//98
f 663//663 661//661 679//679
f 679//679 661//661 678//678
f 679//679 678//678 102//102
f 102//102 678//678 100//100
f 665//665 663//663 680//680
f 680//680 663//663 679//679
f 680//680 679//679 106//106
f 106//106 679//679 102//102
f 668//668 667//667 681//681
f 681//681 667//667 680//680
f 681//681 680//680 682//682
f 680//680 667//667 665//665
f 682//682 680//680 109//109
f 109//109 680//680 106//106
f 670//670 668//668 683//683
f 670//670 683//683 684//684
f 683//683 668//668 681//681
f 684//684 683//683 685//685
f 682//682 683//683 681//681
f 685//685 683//683 109//109
f 685//685 109//109 111//111
f 109//109 683//683 682//682
f 604//604 670//670 684//684
f 684//684 686//686 604//604
f 686//686 684//684 685//685
f 685//685 687//687 686//686
f 687//687 685//685 111//111
f 111//111 113//113 687//687
f 116//116 115//115 602//602
f 605//605 604//604 686//686
f 605//605 686//686 687//687
f 687//687 688//688 605//605
f 688//688 687//687 113//113
f 113//113 117//117 688//688
f 607//607 605//605 688//688
f 688//688 689//689 607//607
f 689//689 688//688 117//117
f 117//117 120//120 689//689
f 607//607 690//690 608//608
f 690//690 607//607 691//691
f 691//691 607//607 689//689
f 691//691 689//689 123//123
f 123//123 689//689 120//120
f 692//692 608//608 690//690
f 690//690 693//693 692//692
f 693//693 690//690 694//694
f 694//694 690//690 691//691
f 694//694 691//691 125//125
f 125//125 691//691 123//123
f 612//612 692//692 695//695
f 695//695 692//692 693//693
f 695//695 693//693 694//694
f 694//694 696//696 695//695
f 696//696 694//694 125//125
f 125//125 127//127 696//696
f 613//613 612//612 695//695
f 613//613 695//695 696//696
f 696//696 697//697 613//613
f 697//697 696//696 127//127
f 127//127 129//129 697//697
f 616//616 613//613 697//697
f 697//697 130//130 616//616
f 130//130 697//697 129//129
f 129//129 133//133 130//130
f 132//132 616//616 130//130
f 131//131 130//130 133//133
f 133//133 134//134 131//131
f 136//136 132//132 140//140
f 136//136 140//140 137//137
f 140//140 132//132 131//131
f 134//134 140//140 131//131
f 672//672 580//580 135//135
f 135//135 580//580 136//136
f 137//137 140//140 139//139
f 138//138 137//137 139//139
f 139//139 141//141 138//138
f 674//674 672//672 135//135
f 135//135 142//142 674//674
f 676//676 674//674 142//142
f 142//142 145//145 676//676
f 145//145 142//142 143//143
f 143//143 138//138 141//141
f 141//141 146//146 143//143
f 144//144 143//143 146//146
f 146//146 147//147 144//144
f 698//698 676//676 148//148
f 148//148 676//676 145//145
f 699//699 698//698 150//150
f 150//150 698//698 148//148
f 151//151 149//149 153//153
f 153//153 149//149 152//152
f 700//700 699//699 155//155
f 155//155 699//699 150//150
f 588//588 700//700 155//155
f 155//155 158//158 588//588
f 158//158 155//155 156//156
f 156//156 151//151 159//159
f 159//159 151//151 153//153
f 157//157 156//156 159//159
f 159//159 161//161 157//157
f 701//701 702//702 703//703
f 704//704 702//702 705//705
f 703//703 702//702 706//706
f 703//703 706//706 707//707
f 706//706 702//702 704//704
f 708//708 701//701 703//703
f 703//703 709//709 708//708
f 709//709 703//703 707//707
f 707//707 710//710 709//709
f 711//711 708//708 712//712
f 711//711 712//712 713//713
f 712//712 708//708 709//709
f 710//710 712//712 709//709
f 714//714 711//711 715//715
f 715//715 711//711 713//713
f 716//716 714//714 717//717
f 717//717 714//714 715//715
f 718//718 716//716 717//717
f 717//717 719//719 718//718
f 720//720 718//718 719//719
f 719//719 721//721 720//720
f 722//722 720//720 721//721
f 721//721 723//723 722//722
f 724//724 722//722 723//723
f 724//724 723//723 725//725
f 724//724 725//725 726//726
f 727//727 724//724 728//728
f 728//728 724//724 726//726
f 728//728 726//726 729//729
f 730//730 727//727 731//731
f 731//731 727//727 728//728
f 731//731 728//728 732//732
f 732//732 728//728 729//729
f 733//733 730//730 731//731
f 731//731 734//734 733//733
f 734//734 731//731 732//732
f 732//732 735//735 734//734
f 736//736 733//733 734//734
f 734//734 737//737 736//736
f 737//737 734//734 735//735
f 735//735 738//738 737//737
f 739//739 736//736 740//740
f 739//739 740//740 741//741
f 740//740 736//736 737//737
f 738//738 740//740 737//737
f 742//742 739//739 743//743
f 743//743 739//739 741//741
f 744//744 742//742 745//745
f 745//745 742//742 743//743
f 746//746 744//744 747//747
f 747//747 744//744 745//745
f 748//748 746//746 749//749
f 749//749 746//746 747//747
f 750//750 748//748 314//314
f 314//314 748//748 749//749
f 751//751 750//750 657//657
f 657//657 750//750 314//314
f 651//651 751//751 329//329
f 329//329 751//751 657//657
f 648//648 752//752 649//649
f 706//706 634//634 753//753
f 753//753 634//634 649//649
f 753//753 649//649 752//752
f 752//752 754//754 753//753
f 752//752 648//648 210//210
f 210//210 219//219 752//752
f 754//754 752//752 219//219
f 219//219 223//223 754//754
f 707//707 706//706 755//755
f 755//755 706//706 753//753
f 755//755 753//753 754//754
f 754//754 756//756 755//755
f 710//710 707//707 757//757
f 757//757 707//707 755//755
f 757//757 755//755 756//756
f 757//757 756//756 231//231
f 757//757 231//231 2//2
f 756//756 754//754 223//223
f 223//223 227//227 756//756
f 227//227 231//231 756//756
f 713//713 712//712 758//758
f 758//758 712//712 757//757
f 758//758 757//757 759//759
f 757//757 712//712 710//710
f 759//759 757//757 760//760
f 760//760 757//757 2//2
f 715//715 713//713 758//758
f 758//758 761//761 715//715
f 761//761 758//758 759//759
f 759//759 762//762 761//761
f 762//762 759//759 763//763
f 763//763 759//759 760//760
f 2//2 1//1 760//760
f 763//763 760//760 1//1
f 1//1 5//5 763//763
f 717//717 715//715 764//764
f 764//764 715//715 761//761
f 764//764 761//761 765//765
f 765//765 761//761 762//762
f 765//765 762//762 763//763
f 763//763 766//766 765//765
f 719//719 717//717 767//767
f 767//767 717//717 764//764
f 767//767 764//764 768//768
f 768//768 764//764 765//765
f 768//768 765//765 766//766
f 766//766 769//769 768//768
f 766//766 763//763 5//5
f 5//5 7//7 766//766
f 769//769 766//766 9//9
f 9//9 766//766 7//7
f 721//721 719//719 770//770
f 770//770 719//719 767//767
f 770//770 767//767 12//12
f 12//12 767//767 768//768
f 12//12 768//768 18//18
f 12//12 18//18 15//15
f 18//18 768//768 769//769
f 723//723 721//721 770//770
f 770//770 771//771 723//723
f 771//771 770//770 11//11
f 11//11 770//770 12//12
f 9//9 18//18 769//769
f 15//15 18//18 17//17
f 771//771 725//725 723//723
f 726//726 725//725 19//19
f 19//19 725//725 771//771
f 19//19 771//771 11//11
f 729//729 726//726 19//19
f 19//19 21//21 729//729
f 732//732 729//729 21//21
f 21//21 653//653 732//732
f 735//735 732//732 655//655
f 655//655 732//732 653//653
f 738//738 735//735 264//264
f 264//264 735//735 655//655
f 741//741 740//740 263//263
f 263//263 740//740 264//264
f 264//264 740//740 738//738
f 743//743 741//741 263//263
f 263//263 281//281 743//743
f 745//745 743//743 284//284
f 284//284 743//743 281//281
f 747//747 745//745 284//284
f 284//284 295//295 747//747
f 749//749 747//747 295//295
f 295//295 298//298 749//749
f 314//314 749//749 298//298
